<svg xmlns="http://www.w3.org/2000/svg" xmlns:xlink="http://www.w3.org/1999/xlink" width="1920" height="1107" viewBox="0 0 1920 1107">
  <defs>
    <clipPath id="clip-path">
      <rect width="1774.17" height="953.302" fill="none"/>
    </clipPath>
  </defs>
  <g id="Confetti-Doodles_3_" data-name="Confetti-Doodles (3)" opacity="0.9">
    <rect id="Rectangle_16" data-name="Rectangle 16" width="1920" height="1107" fill="#fff5a5"/>
    <path id="Path_170" data-name="Path 170" d="M1522.516,935.3c3.459-1.66,34.316-11.9,35.423-10.378.692.969-5.4,32.932-6.365,33.9C1551.3,959.234,1529.435,941.8,1522.516,935.3Zm171.3-699.746c0-.138-6.78-13.007-9.686-19.649-.138-.415-.415-1.522-.554-2.214a2.015,2.015,0,0,0-.83-1.245.838.838,0,0,0-1.107.138l-18.127,17.02h0a2.782,2.782,0,0,0-.554,1.107,2.5,2.5,0,0,0,.277,1.384c.138.138,1.937,3.459,2.906,4.981,3.321,5.12,8.994,16.743,8.994,16.881a1.86,1.86,0,0,0,.969.83,1.256,1.256,0,0,0,.969-.415s2.491-3.459,3.736-4.981c2.076-2.214,4.151-4.428,6.365-6.5,1.66-1.66,2.214-1.937,2.906-2.214a12.342,12.342,0,0,0,3.459-2.629A2.353,2.353,0,0,0,1693.82,235.55ZM42.631,984.417h0a1.6,1.6,0,0,0-1.66-1.661.832.832,0,0,0-.553.138c-2.214.277-19.787.138-30.719,0a1.69,1.69,0,0,0-1.245.553,1.754,1.754,0,0,0-.553,1.245c0,.277,0,6.78.138,8.164l.553,18.819a2.487,2.487,0,0,0,.553,1.245,1.571,1.571,0,0,0,1.107.415h.138a223.736,223.736,0,0,1,30.442-.83,1.932,1.932,0,0,0,1.245-.415,2.061,2.061,0,0,0,.553-1.245C42.493,1002.406,42.493,992.581,42.631,984.417Z" transform="translate(3.031 81.46)" fill="#d9e811"/>
    <path id="Path_171" data-name="Path 171" d="M171.1,471.478c1.8-3.459,19.787-30.442,21.586-29.888,1.107.415,15.913,29.335,15.913,30.58C208.46,472.585,180.509,472.308,171.1,471.478ZM759.595,925.891c-.138-.138-9.271-11.346-13.422-17.3a14.871,14.871,0,0,1-.969-2.076c-.277-.554-.554-.969-.969-1.107a.927.927,0,0,0-1.107.415L728.6,926.167h0c-.277.277-.277.692-.277,1.245a2.061,2.061,0,0,0,.554,1.245c.138.138,2.491,3.044,3.874,4.289,4.289,4.289,12.177,14.529,12.315,14.667a1.259,1.259,0,0,0,1.107.553.877.877,0,0,0,.83-.692,60.415,60.415,0,0,1,2.767-5.673c1.522-2.629,3.182-5.12,4.843-7.61a8.637,8.637,0,0,1,2.352-2.767,10.515,10.515,0,0,0,2.906-3.321C760.287,927.689,760.148,926.582,759.595,925.891ZM941,189.892h0a1.517,1.517,0,0,0,1.937-1.107v-.553c.277-1.937,3.874-17.435,6.227-26.982a1.076,1.076,0,0,0-.277-1.107,1.9,1.9,0,0,0-1.107-.692c-.277,0-6.5-1.522-7.887-1.8l-18.542-3.736a1.327,1.327,0,0,0-1.245.277,3.669,3.669,0,0,0-.692.83v.138a196.162,196.162,0,0,1-5.4,26.844,1.411,1.411,0,0,0,.277,1.245,1.9,1.9,0,0,0,1.107.692C923.427,185.741,932.974,187.954,941,189.892Zm1.384-2.491a.719.719,0,0,0-.554-.277A.719.719,0,0,1,942.384,187.4Z" transform="translate(65.654 59.039)" fill="#fd576c"/>
    <g id="Repeat_Grid_1" data-name="Repeat Grid 1" transform="translate(63.512 126.198)" clip-path="url(#clip-path)">
      <g transform="translate(-935.512 -153.198)">
        <g id="Group_289" data-name="Group 289" transform="translate(935.512 153.198)" opacity="0.6">
          <path id="Path_172" data-name="Path 172" d="M540.762,453.554A2.551,2.551,0,0,1,538.393,452a2.584,2.584,0,0,1,1.286-3.384,10.983,10.983,0,0,0,5.685-5.753,10.7,10.7,0,0,0,.135-8.054c-.2-.609-.541-1.218-.812-1.9a19.645,19.645,0,0,1-1.557-3.993,12.8,12.8,0,0,1,1.354-8.663,22.018,22.018,0,0,1,5.143-6.159,2.544,2.544,0,1,1,3.316,3.858,17.253,17.253,0,0,0-3.993,4.738,7.2,7.2,0,0,0-.88,5.144,14.4,14.4,0,0,0,1.151,2.91l1.015,2.233a16.447,16.447,0,0,1-.2,11.911,16.138,16.138,0,0,1-8.324,8.46A2.163,2.163,0,0,1,540.762,453.554Zm27.613-34.719a2.555,2.555,0,0,1,2.572,1.286,2.651,2.651,0,0,1-.948,3.587,11.243,11.243,0,0,0-5.143,6.429,11.089,11.089,0,0,0,.744,8.189,18.374,18.374,0,0,0,1.083,1.827,22.846,22.846,0,0,1,2.03,3.858,12.8,12.8,0,0,1-.406,8.934,22.087,22.087,0,0,1-4.6,6.836,2.6,2.6,0,0,1-3.722.135,2.517,2.517,0,0,1-.135-3.655,18.032,18.032,0,0,0,3.587-5.211,7.794,7.794,0,0,0,.338-5.347,16,16,0,0,0-1.489-2.775c-.406-.677-.88-1.421-1.286-2.166a16.507,16.507,0,0,1-1.151-12.047,16.274,16.274,0,0,1,7.58-9.475A1.337,1.337,0,0,1,568.375,418.835ZM244.127,533.55a27.958,27.958,0,0,1,6.362,15.16c.338,4.941-1.624,11.1-6.9,13.806a16.815,16.815,0,0,1-7.58,1.489c-5.347-.068-8.731-1.963-10.423-5.685-1.421-3.181-1.557-7.715,1.218-10.761,2.166-2.369,5.279-2.775,7.58-1.083a1.888,1.888,0,1,1-2.233,3.045c-1.218-.88-2.436.406-2.572.541-1.624,1.76-1.421,4.738-.541,6.7,1.015,2.3,3.181,3.384,7.039,3.452a12.948,12.948,0,0,0,5.82-1.083c3.181-1.624,5.211-5.82,4.873-10.152-.338-4.94-3.587-12.317-8.8-16.175a10.341,10.341,0,0,0-8.731-2.1,17.911,17.911,0,0,0-6.565,3.384,28.509,28.509,0,0,0-9.61,12.859,20.337,20.337,0,0,0,1.286,16.175,1.877,1.877,0,1,1-3.384,1.624c-3.113-6.362-3.655-12.994-1.489-19.085a32.239,32.239,0,0,1,10.9-14.619,21.786,21.786,0,0,1,7.986-4.061,14.2,14.2,0,0,1,11.844,2.707A26.437,26.437,0,0,1,244.127,533.55Z" transform="translate(-208.167 -165.526)" fill="#364f6b"/>
          <circle id="Ellipse_14" data-name="Ellipse 14" cx="4.805" cy="4.805" r="4.805" transform="translate(540.368 67.463)" fill="#364f6b"/>
          <circle id="Ellipse_15" data-name="Ellipse 15" cx="4.805" cy="4.805" r="4.805" transform="translate(547.542 52.71)" fill="#364f6b"/>
          <circle id="Ellipse_16" data-name="Ellipse 16" cx="4.805" cy="4.805" r="4.805" transform="translate(556.34 64.08)" fill="#364f6b"/>
          <path id="Path_173" data-name="Path 173" d="M1126.079,216.37c-3.248-3.655-6.565-7.309-10.016-10.964a83.776,83.776,0,0,0,10.558-12.317,2.534,2.534,0,0,0-4.2-2.843,74.934,74.934,0,0,1-9.813,11.438c-3.249-3.384-6.565-6.768-9.949-10.084a2.536,2.536,0,0,0-3.587,3.587c3.316,3.249,6.565,6.633,9.813,10.016-.744.744-1.557,1.489-2.369,2.166-2.775,2.572-5.685,5.279-8.392,8.121a2.618,2.618,0,0,0,0,3.587h0a2.553,2.553,0,0,0,3.587-.068c2.64-2.707,5.482-5.347,8.189-7.918.812-.744,1.557-1.489,2.369-2.233,3.316,3.587,6.633,7.174,9.881,10.761l.135.135a2.6,2.6,0,0,0,3.519.135A2.361,2.361,0,0,0,1126.079,216.37ZM326.727,183.478l-.271-1.76a197.769,197.769,0,0,1-1.557-25.041c0-3.722,0-7.783.135-12.52V142.6c0-3.384,0-7.58,2.639-9.137,1.489-.88,3.452-.677,5.753.609,3.858,2.1,8.934,5.888,11.844,10.084a20.7,20.7,0,0,1,3.384,17.393c-2.166,8.324-10.152,20.98-20.3,21.725Zm3.046-46.969c-.135,0-.2,0-.271.068s-.474.338-.744,1.827a29.048,29.048,0,0,0-.2,4.264v1.624c-.135,4.67-.135,8.663-.135,12.385a192.416,192.416,0,0,0,1.354,22.808c7.445-1.827,13.806-12.25,15.566-18.815a17.148,17.148,0,0,0-2.842-14.416h0c-2.639-3.722-7.377-7.174-10.761-9A4.749,4.749,0,0,0,329.773,136.509ZM454.437,56.378a.512.512,0,0,1-.271-.068,11.164,11.164,0,0,0-4.534-.474.882.882,0,0,1-.135-1.76,12.834,12.834,0,0,1,5.144.541.869.869,0,0,1,.609,1.083A.922.922,0,0,1,454.437,56.378Zm-6.9,6.565a.879.879,0,0,1-.812-.541,14.16,14.16,0,0,1-.88-4.467.847.847,0,0,1,1.692-.068,15.486,15.486,0,0,0,.744,3.925.832.832,0,0,1-.541,1.083C447.737,62.943,447.6,62.943,447.534,62.943Zm-8.121-4.128a.833.833,0,0,1-.677-.338.923.923,0,0,1,.135-1.218,21.171,21.171,0,0,1,3.925-2.436.863.863,0,1,1,.744,1.557,17.715,17.715,0,0,0-3.587,2.233A.769.769,0,0,1,439.412,58.814Zm4.332-6.159a1.032,1.032,0,0,1-.812-.474,13.524,13.524,0,0,0-1.624-2.3c-.2-.271-.474-.609-.745-.948a.867.867,0,1,1,1.354-1.083c.271.338.542.677.745.948a12.461,12.461,0,0,1,1.827,2.639.893.893,0,0,1-.406,1.151A.507.507,0,0,1,443.744,52.655Zm4.2-.2a1.592,1.592,0,0,1-.541-.135.866.866,0,0,1-.2-1.218,38.5,38.5,0,0,0,2.233-3.519.848.848,0,1,1,1.489.812,32.034,32.034,0,0,1-2.369,3.79A.858.858,0,0,1,447.94,52.452ZM801.628,274.3a.512.512,0,0,1-.271-.068,11.166,11.166,0,0,0-4.535-.474.882.882,0,0,1-.135-1.76,12.833,12.833,0,0,1,5.143.541.869.869,0,0,1,.609,1.083A.922.922,0,0,1,801.628,274.3Zm-6.9,6.565a.879.879,0,0,1-.812-.541,14.161,14.161,0,0,1-.88-4.467.847.847,0,1,1,1.692-.068,15.477,15.477,0,0,0,.745,3.925.832.832,0,0,1-.542,1.083C794.928,280.868,794.792,280.868,794.725,280.868Zm-8.121-4.128a.833.833,0,0,1-.677-.338.922.922,0,0,1,.135-1.218,21.176,21.176,0,0,1,3.925-2.436.863.863,0,0,1,.745,1.557,17.711,17.711,0,0,0-3.587,2.233A.769.769,0,0,1,786.6,276.739Zm4.331-6.159a1.032,1.032,0,0,1-.812-.474,13.527,13.527,0,0,0-1.624-2.3c-.2-.271-.474-.609-.745-.947a.867.867,0,1,1,1.353-1.083c.271.338.541.677.745.948a12.465,12.465,0,0,1,1.827,2.639.893.893,0,0,1-.406,1.151A.508.508,0,0,1,790.935,270.58Zm4.2-.2a1.591,1.591,0,0,1-.541-.135.866.866,0,0,1-.2-1.218,38.466,38.466,0,0,0,2.233-3.519.848.848,0,0,1,1.489.812,32.048,32.048,0,0,1-2.369,3.79A.858.858,0,0,1,795.131,270.377Zm209.8,132.921a10.138,10.138,0,0,1-3.046-.474c-5.685-1.827-11.234-8.6-12.656-13.536a21.056,21.056,0,0,1-.609-2.978c-5.482,2.233-10.49,7.174-10.422,14.212a1.924,1.924,0,0,1-1.827,1.895h0a1.82,1.82,0,0,1-1.827-1.827,17.591,17.591,0,0,1,4.738-12.182,21.317,21.317,0,0,1,9.272-5.956,19.387,19.387,0,0,1,5.008-11.776c4.738-5.008,12.318-6.023,18.476-6.836l.474-.068a1.847,1.847,0,0,1,.541,3.655l-.474.068c-5.82.812-12.453,1.692-16.243,5.685a15.805,15.805,0,0,0-3.858,8.392,26.009,26.009,0,0,1,16.446,3.858,10.948,10.948,0,0,1,4.873,8.6,9.006,9.006,0,0,1-3.519,7.512A9.523,9.523,0,0,1,1004.934,403.3Zm-12.656-18.07a14.427,14.427,0,0,0,.542,2.978c1.15,3.925,5.888,9.61,10.219,11.032a4.967,4.967,0,0,0,4.873-.745,5.19,5.19,0,0,0,2.1-4.467,7.318,7.318,0,0,0-3.249-5.617A21.889,21.889,0,0,0,992.279,385.228Z" transform="translate(-245.897 -47.118)" fill="#364f6b"/>
        </g>
        <g id="Group_290" data-name="Group 290" transform="translate(1063.511 644.198)" opacity="0.6">
          <path id="Path_172-2" data-name="Path 172" d="M540.762,453.554A2.551,2.551,0,0,1,538.393,452a2.584,2.584,0,0,1,1.286-3.384,10.983,10.983,0,0,0,5.685-5.753,10.7,10.7,0,0,0,.135-8.054c-.2-.609-.541-1.218-.812-1.9a19.645,19.645,0,0,1-1.557-3.993,12.8,12.8,0,0,1,1.354-8.663,22.018,22.018,0,0,1,5.143-6.159,2.544,2.544,0,1,1,3.316,3.858,17.253,17.253,0,0,0-3.993,4.738,7.2,7.2,0,0,0-.88,5.144,14.4,14.4,0,0,0,1.151,2.91l1.015,2.233a16.447,16.447,0,0,1-.2,11.911,16.138,16.138,0,0,1-8.324,8.46A2.163,2.163,0,0,1,540.762,453.554Zm27.613-34.719a2.555,2.555,0,0,1,2.572,1.286,2.651,2.651,0,0,1-.948,3.587,11.243,11.243,0,0,0-5.143,6.429,11.089,11.089,0,0,0,.744,8.189,18.374,18.374,0,0,0,1.083,1.827,22.846,22.846,0,0,1,2.03,3.858,12.8,12.8,0,0,1-.406,8.934,22.087,22.087,0,0,1-4.6,6.836,2.6,2.6,0,0,1-3.722.135,2.517,2.517,0,0,1-.135-3.655,18.032,18.032,0,0,0,3.587-5.211,7.794,7.794,0,0,0,.338-5.347,16,16,0,0,0-1.489-2.775c-.406-.677-.88-1.421-1.286-2.166a16.507,16.507,0,0,1-1.151-12.047,16.274,16.274,0,0,1,7.58-9.475A1.337,1.337,0,0,1,568.375,418.835ZM244.127,533.55a27.958,27.958,0,0,1,6.362,15.16c.338,4.941-1.624,11.1-6.9,13.806a16.815,16.815,0,0,1-7.58,1.489c-5.347-.068-8.731-1.963-10.423-5.685-1.421-3.181-1.557-7.715,1.218-10.761,2.166-2.369,5.279-2.775,7.58-1.083a1.888,1.888,0,1,1-2.233,3.045c-1.218-.88-2.436.406-2.572.541-1.624,1.76-1.421,4.738-.541,6.7,1.015,2.3,3.181,3.384,7.039,3.452a12.948,12.948,0,0,0,5.82-1.083c3.181-1.624,5.211-5.82,4.873-10.152-.338-4.94-3.587-12.317-8.8-16.175a10.341,10.341,0,0,0-8.731-2.1,17.911,17.911,0,0,0-6.565,3.384,28.509,28.509,0,0,0-9.61,12.859,20.337,20.337,0,0,0,1.286,16.175,1.877,1.877,0,1,1-3.384,1.624c-3.113-6.362-3.655-12.994-1.489-19.085a32.239,32.239,0,0,1,10.9-14.619,21.786,21.786,0,0,1,7.986-4.061,14.2,14.2,0,0,1,11.844,2.707A26.437,26.437,0,0,1,244.127,533.55Z" transform="translate(-208.167 -165.526)" fill="#364f6b"/>
          <circle id="Ellipse_14-2" data-name="Ellipse 14" cx="4.805" cy="4.805" r="4.805" transform="translate(540.368 67.463)" fill="#364f6b"/>
          <circle id="Ellipse_15-2" data-name="Ellipse 15" cx="4.805" cy="4.805" r="4.805" transform="translate(547.542 52.71)" fill="#364f6b"/>
          <circle id="Ellipse_16-2" data-name="Ellipse 16" cx="4.805" cy="4.805" r="4.805" transform="translate(556.34 64.08)" fill="#364f6b"/>
          <path id="Path_173-2" data-name="Path 173" d="M1126.079,216.37c-3.248-3.655-6.565-7.309-10.016-10.964a83.776,83.776,0,0,0,10.558-12.317,2.534,2.534,0,0,0-4.2-2.843,74.934,74.934,0,0,1-9.813,11.438c-3.249-3.384-6.565-6.768-9.949-10.084a2.536,2.536,0,0,0-3.587,3.587c3.316,3.249,6.565,6.633,9.813,10.016-.744.744-1.557,1.489-2.369,2.166-2.775,2.572-5.685,5.279-8.392,8.121a2.618,2.618,0,0,0,0,3.587h0a2.553,2.553,0,0,0,3.587-.068c2.64-2.707,5.482-5.347,8.189-7.918.812-.744,1.557-1.489,2.369-2.233,3.316,3.587,6.633,7.174,9.881,10.761l.135.135a2.6,2.6,0,0,0,3.519.135A2.361,2.361,0,0,0,1126.079,216.37ZM326.727,183.478l-.271-1.76a197.769,197.769,0,0,1-1.557-25.041c0-3.722,0-7.783.135-12.52V142.6c0-3.384,0-7.58,2.639-9.137,1.489-.88,3.452-.677,5.753.609,3.858,2.1,8.934,5.888,11.844,10.084a20.7,20.7,0,0,1,3.384,17.393c-2.166,8.324-10.152,20.98-20.3,21.725Zm3.046-46.969c-.135,0-.2,0-.271.068s-.474.338-.744,1.827a29.048,29.048,0,0,0-.2,4.264v1.624c-.135,4.67-.135,8.663-.135,12.385a192.416,192.416,0,0,0,1.354,22.808c7.445-1.827,13.806-12.25,15.566-18.815a17.148,17.148,0,0,0-2.842-14.416h0c-2.639-3.722-7.377-7.174-10.761-9A4.749,4.749,0,0,0,329.773,136.509ZM454.437,56.378a.512.512,0,0,1-.271-.068,11.164,11.164,0,0,0-4.534-.474.882.882,0,0,1-.135-1.76,12.834,12.834,0,0,1,5.144.541.869.869,0,0,1,.609,1.083A.922.922,0,0,1,454.437,56.378Zm-6.9,6.565a.879.879,0,0,1-.812-.541,14.16,14.16,0,0,1-.88-4.467.847.847,0,0,1,1.692-.068,15.486,15.486,0,0,0,.744,3.925.832.832,0,0,1-.541,1.083C447.737,62.943,447.6,62.943,447.534,62.943Zm-8.121-4.128a.833.833,0,0,1-.677-.338.923.923,0,0,1,.135-1.218,21.171,21.171,0,0,1,3.925-2.436.863.863,0,1,1,.744,1.557,17.715,17.715,0,0,0-3.587,2.233A.769.769,0,0,1,439.412,58.814Zm4.332-6.159a1.032,1.032,0,0,1-.812-.474,13.524,13.524,0,0,0-1.624-2.3c-.2-.271-.474-.609-.745-.948a.867.867,0,1,1,1.354-1.083c.271.338.542.677.745.948a12.461,12.461,0,0,1,1.827,2.639.893.893,0,0,1-.406,1.151A.507.507,0,0,1,443.744,52.655Zm4.2-.2a1.592,1.592,0,0,1-.541-.135.866.866,0,0,1-.2-1.218,38.5,38.5,0,0,0,2.233-3.519.848.848,0,1,1,1.489.812,32.034,32.034,0,0,1-2.369,3.79A.858.858,0,0,1,447.94,52.452ZM801.628,274.3a.512.512,0,0,1-.271-.068,11.166,11.166,0,0,0-4.535-.474.882.882,0,0,1-.135-1.76,12.833,12.833,0,0,1,5.143.541.869.869,0,0,1,.609,1.083A.922.922,0,0,1,801.628,274.3Zm-6.9,6.565a.879.879,0,0,1-.812-.541,14.161,14.161,0,0,1-.88-4.467.847.847,0,1,1,1.692-.068,15.477,15.477,0,0,0,.745,3.925.832.832,0,0,1-.542,1.083C794.928,280.868,794.792,280.868,794.725,280.868Zm-8.121-4.128a.833.833,0,0,1-.677-.338.922.922,0,0,1,.135-1.218,21.176,21.176,0,0,1,3.925-2.436.863.863,0,0,1,.745,1.557,17.711,17.711,0,0,0-3.587,2.233A.769.769,0,0,1,786.6,276.739Zm4.331-6.159a1.032,1.032,0,0,1-.812-.474,13.527,13.527,0,0,0-1.624-2.3c-.2-.271-.474-.609-.745-.947a.867.867,0,1,1,1.353-1.083c.271.338.541.677.745.948a12.465,12.465,0,0,1,1.827,2.639.893.893,0,0,1-.406,1.151A.508.508,0,0,1,790.935,270.58Zm4.2-.2a1.591,1.591,0,0,1-.541-.135.866.866,0,0,1-.2-1.218,38.466,38.466,0,0,0,2.233-3.519.848.848,0,0,1,1.489.812,32.048,32.048,0,0,1-2.369,3.79A.858.858,0,0,1,795.131,270.377Zm209.8,132.921a10.138,10.138,0,0,1-3.046-.474c-5.685-1.827-11.234-8.6-12.656-13.536a21.056,21.056,0,0,1-.609-2.978c-5.482,2.233-10.49,7.174-10.422,14.212a1.924,1.924,0,0,1-1.827,1.895h0a1.82,1.82,0,0,1-1.827-1.827,17.591,17.591,0,0,1,4.738-12.182,21.317,21.317,0,0,1,9.272-5.956,19.387,19.387,0,0,1,5.008-11.776c4.738-5.008,12.318-6.023,18.476-6.836l.474-.068a1.847,1.847,0,0,1,.541,3.655l-.474.068c-5.82.812-12.453,1.692-16.243,5.685a15.805,15.805,0,0,0-3.858,8.392,26.009,26.009,0,0,1,16.446,3.858,10.948,10.948,0,0,1,4.873,8.6,9.006,9.006,0,0,1-3.519,7.512A9.523,9.523,0,0,1,1004.934,403.3Zm-12.656-18.07a14.427,14.427,0,0,0,.542,2.978c1.15,3.925,5.888,9.61,10.219,11.032a4.967,4.967,0,0,0,4.873-.745,5.19,5.19,0,0,0,2.1-4.467,7.318,7.318,0,0,0-3.249-5.617A21.889,21.889,0,0,0,992.279,385.228Z" transform="translate(-245.897 -47.118)" fill="#364f6b"/>
        </g>
      </g>
      <g transform="translate(138.488 -153.198)">
        <g id="Group_289-2" data-name="Group 289" transform="translate(935.512 153.198)" opacity="0.6">
          <path id="Path_172-3" data-name="Path 172" d="M540.762,453.554A2.551,2.551,0,0,1,538.393,452a2.584,2.584,0,0,1,1.286-3.384,10.983,10.983,0,0,0,5.685-5.753,10.7,10.7,0,0,0,.135-8.054c-.2-.609-.541-1.218-.812-1.9a19.645,19.645,0,0,1-1.557-3.993,12.8,12.8,0,0,1,1.354-8.663,22.018,22.018,0,0,1,5.143-6.159,2.544,2.544,0,1,1,3.316,3.858,17.253,17.253,0,0,0-3.993,4.738,7.2,7.2,0,0,0-.88,5.144,14.4,14.4,0,0,0,1.151,2.91l1.015,2.233a16.447,16.447,0,0,1-.2,11.911,16.138,16.138,0,0,1-8.324,8.46A2.163,2.163,0,0,1,540.762,453.554Zm27.613-34.719a2.555,2.555,0,0,1,2.572,1.286,2.651,2.651,0,0,1-.948,3.587,11.243,11.243,0,0,0-5.143,6.429,11.089,11.089,0,0,0,.744,8.189,18.374,18.374,0,0,0,1.083,1.827,22.846,22.846,0,0,1,2.03,3.858,12.8,12.8,0,0,1-.406,8.934,22.087,22.087,0,0,1-4.6,6.836,2.6,2.6,0,0,1-3.722.135,2.517,2.517,0,0,1-.135-3.655,18.032,18.032,0,0,0,3.587-5.211,7.794,7.794,0,0,0,.338-5.347,16,16,0,0,0-1.489-2.775c-.406-.677-.88-1.421-1.286-2.166a16.507,16.507,0,0,1-1.151-12.047,16.274,16.274,0,0,1,7.58-9.475A1.337,1.337,0,0,1,568.375,418.835ZM244.127,533.55a27.958,27.958,0,0,1,6.362,15.16c.338,4.941-1.624,11.1-6.9,13.806a16.815,16.815,0,0,1-7.58,1.489c-5.347-.068-8.731-1.963-10.423-5.685-1.421-3.181-1.557-7.715,1.218-10.761,2.166-2.369,5.279-2.775,7.58-1.083a1.888,1.888,0,1,1-2.233,3.045c-1.218-.88-2.436.406-2.572.541-1.624,1.76-1.421,4.738-.541,6.7,1.015,2.3,3.181,3.384,7.039,3.452a12.948,12.948,0,0,0,5.82-1.083c3.181-1.624,5.211-5.82,4.873-10.152-.338-4.94-3.587-12.317-8.8-16.175a10.341,10.341,0,0,0-8.731-2.1,17.911,17.911,0,0,0-6.565,3.384,28.509,28.509,0,0,0-9.61,12.859,20.337,20.337,0,0,0,1.286,16.175,1.877,1.877,0,1,1-3.384,1.624c-3.113-6.362-3.655-12.994-1.489-19.085a32.239,32.239,0,0,1,10.9-14.619,21.786,21.786,0,0,1,7.986-4.061,14.2,14.2,0,0,1,11.844,2.707A26.437,26.437,0,0,1,244.127,533.55Z" transform="translate(-208.167 -165.526)" fill="#364f6b"/>
          <circle id="Ellipse_14-3" data-name="Ellipse 14" cx="4.805" cy="4.805" r="4.805" transform="translate(540.368 67.463)" fill="#364f6b"/>
          <circle id="Ellipse_15-3" data-name="Ellipse 15" cx="4.805" cy="4.805" r="4.805" transform="translate(547.542 52.71)" fill="#364f6b"/>
          <circle id="Ellipse_16-3" data-name="Ellipse 16" cx="4.805" cy="4.805" r="4.805" transform="translate(556.34 64.08)" fill="#364f6b"/>
          <path id="Path_173-3" data-name="Path 173" d="M1126.079,216.37c-3.248-3.655-6.565-7.309-10.016-10.964a83.776,83.776,0,0,0,10.558-12.317,2.534,2.534,0,0,0-4.2-2.843,74.934,74.934,0,0,1-9.813,11.438c-3.249-3.384-6.565-6.768-9.949-10.084a2.536,2.536,0,0,0-3.587,3.587c3.316,3.249,6.565,6.633,9.813,10.016-.744.744-1.557,1.489-2.369,2.166-2.775,2.572-5.685,5.279-8.392,8.121a2.618,2.618,0,0,0,0,3.587h0a2.553,2.553,0,0,0,3.587-.068c2.64-2.707,5.482-5.347,8.189-7.918.812-.744,1.557-1.489,2.369-2.233,3.316,3.587,6.633,7.174,9.881,10.761l.135.135a2.6,2.6,0,0,0,3.519.135A2.361,2.361,0,0,0,1126.079,216.37ZM326.727,183.478l-.271-1.76a197.769,197.769,0,0,1-1.557-25.041c0-3.722,0-7.783.135-12.52V142.6c0-3.384,0-7.58,2.639-9.137,1.489-.88,3.452-.677,5.753.609,3.858,2.1,8.934,5.888,11.844,10.084a20.7,20.7,0,0,1,3.384,17.393c-2.166,8.324-10.152,20.98-20.3,21.725Zm3.046-46.969c-.135,0-.2,0-.271.068s-.474.338-.744,1.827a29.048,29.048,0,0,0-.2,4.264v1.624c-.135,4.67-.135,8.663-.135,12.385a192.416,192.416,0,0,0,1.354,22.808c7.445-1.827,13.806-12.25,15.566-18.815a17.148,17.148,0,0,0-2.842-14.416h0c-2.639-3.722-7.377-7.174-10.761-9A4.749,4.749,0,0,0,329.773,136.509ZM454.437,56.378a.512.512,0,0,1-.271-.068,11.164,11.164,0,0,0-4.534-.474.882.882,0,0,1-.135-1.76,12.834,12.834,0,0,1,5.144.541.869.869,0,0,1,.609,1.083A.922.922,0,0,1,454.437,56.378Zm-6.9,6.565a.879.879,0,0,1-.812-.541,14.16,14.16,0,0,1-.88-4.467.847.847,0,0,1,1.692-.068,15.486,15.486,0,0,0,.744,3.925.832.832,0,0,1-.541,1.083C447.737,62.943,447.6,62.943,447.534,62.943Zm-8.121-4.128a.833.833,0,0,1-.677-.338.923.923,0,0,1,.135-1.218,21.171,21.171,0,0,1,3.925-2.436.863.863,0,1,1,.744,1.557,17.715,17.715,0,0,0-3.587,2.233A.769.769,0,0,1,439.412,58.814Zm4.332-6.159a1.032,1.032,0,0,1-.812-.474,13.524,13.524,0,0,0-1.624-2.3c-.2-.271-.474-.609-.745-.948a.867.867,0,1,1,1.354-1.083c.271.338.542.677.745.948a12.461,12.461,0,0,1,1.827,2.639.893.893,0,0,1-.406,1.151A.507.507,0,0,1,443.744,52.655Zm4.2-.2a1.592,1.592,0,0,1-.541-.135.866.866,0,0,1-.2-1.218,38.5,38.5,0,0,0,2.233-3.519.848.848,0,1,1,1.489.812,32.034,32.034,0,0,1-2.369,3.79A.858.858,0,0,1,447.94,52.452ZM801.628,274.3a.512.512,0,0,1-.271-.068,11.166,11.166,0,0,0-4.535-.474.882.882,0,0,1-.135-1.76,12.833,12.833,0,0,1,5.143.541.869.869,0,0,1,.609,1.083A.922.922,0,0,1,801.628,274.3Zm-6.9,6.565a.879.879,0,0,1-.812-.541,14.161,14.161,0,0,1-.88-4.467.847.847,0,1,1,1.692-.068,15.477,15.477,0,0,0,.745,3.925.832.832,0,0,1-.542,1.083C794.928,280.868,794.792,280.868,794.725,280.868Zm-8.121-4.128a.833.833,0,0,1-.677-.338.922.922,0,0,1,.135-1.218,21.176,21.176,0,0,1,3.925-2.436.863.863,0,0,1,.745,1.557,17.711,17.711,0,0,0-3.587,2.233A.769.769,0,0,1,786.6,276.739Zm4.331-6.159a1.032,1.032,0,0,1-.812-.474,13.527,13.527,0,0,0-1.624-2.3c-.2-.271-.474-.609-.745-.947a.867.867,0,1,1,1.353-1.083c.271.338.541.677.745.948a12.465,12.465,0,0,1,1.827,2.639.893.893,0,0,1-.406,1.151A.508.508,0,0,1,790.935,270.58Zm4.2-.2a1.591,1.591,0,0,1-.541-.135.866.866,0,0,1-.2-1.218,38.466,38.466,0,0,0,2.233-3.519.848.848,0,0,1,1.489.812,32.048,32.048,0,0,1-2.369,3.79A.858.858,0,0,1,795.131,270.377Zm209.8,132.921a10.138,10.138,0,0,1-3.046-.474c-5.685-1.827-11.234-8.6-12.656-13.536a21.056,21.056,0,0,1-.609-2.978c-5.482,2.233-10.49,7.174-10.422,14.212a1.924,1.924,0,0,1-1.827,1.895h0a1.82,1.82,0,0,1-1.827-1.827,17.591,17.591,0,0,1,4.738-12.182,21.317,21.317,0,0,1,9.272-5.956,19.387,19.387,0,0,1,5.008-11.776c4.738-5.008,12.318-6.023,18.476-6.836l.474-.068a1.847,1.847,0,0,1,.541,3.655l-.474.068c-5.82.812-12.453,1.692-16.243,5.685a15.805,15.805,0,0,0-3.858,8.392,26.009,26.009,0,0,1,16.446,3.858,10.948,10.948,0,0,1,4.873,8.6,9.006,9.006,0,0,1-3.519,7.512A9.523,9.523,0,0,1,1004.934,403.3Zm-12.656-18.07a14.427,14.427,0,0,0,.542,2.978c1.15,3.925,5.888,9.61,10.219,11.032a4.967,4.967,0,0,0,4.873-.745,5.19,5.19,0,0,0,2.1-4.467,7.318,7.318,0,0,0-3.249-5.617A21.889,21.889,0,0,0,992.279,385.228Z" transform="translate(-245.897 -47.118)" fill="#364f6b"/>
        </g>
        <g id="Group_290-2" data-name="Group 290" transform="translate(1063.511 644.198)" opacity="0.6">
          <path id="Path_172-4" data-name="Path 172" d="M540.762,453.554A2.551,2.551,0,0,1,538.393,452a2.584,2.584,0,0,1,1.286-3.384,10.983,10.983,0,0,0,5.685-5.753,10.7,10.7,0,0,0,.135-8.054c-.2-.609-.541-1.218-.812-1.9a19.645,19.645,0,0,1-1.557-3.993,12.8,12.8,0,0,1,1.354-8.663,22.018,22.018,0,0,1,5.143-6.159,2.544,2.544,0,1,1,3.316,3.858,17.253,17.253,0,0,0-3.993,4.738,7.2,7.2,0,0,0-.88,5.144,14.4,14.4,0,0,0,1.151,2.91l1.015,2.233a16.447,16.447,0,0,1-.2,11.911,16.138,16.138,0,0,1-8.324,8.46A2.163,2.163,0,0,1,540.762,453.554Zm27.613-34.719a2.555,2.555,0,0,1,2.572,1.286,2.651,2.651,0,0,1-.948,3.587,11.243,11.243,0,0,0-5.143,6.429,11.089,11.089,0,0,0,.744,8.189,18.374,18.374,0,0,0,1.083,1.827,22.846,22.846,0,0,1,2.03,3.858,12.8,12.8,0,0,1-.406,8.934,22.087,22.087,0,0,1-4.6,6.836,2.6,2.6,0,0,1-3.722.135,2.517,2.517,0,0,1-.135-3.655,18.032,18.032,0,0,0,3.587-5.211,7.794,7.794,0,0,0,.338-5.347,16,16,0,0,0-1.489-2.775c-.406-.677-.88-1.421-1.286-2.166a16.507,16.507,0,0,1-1.151-12.047,16.274,16.274,0,0,1,7.58-9.475A1.337,1.337,0,0,1,568.375,418.835ZM244.127,533.55a27.958,27.958,0,0,1,6.362,15.16c.338,4.941-1.624,11.1-6.9,13.806a16.815,16.815,0,0,1-7.58,1.489c-5.347-.068-8.731-1.963-10.423-5.685-1.421-3.181-1.557-7.715,1.218-10.761,2.166-2.369,5.279-2.775,7.58-1.083a1.888,1.888,0,1,1-2.233,3.045c-1.218-.88-2.436.406-2.572.541-1.624,1.76-1.421,4.738-.541,6.7,1.015,2.3,3.181,3.384,7.039,3.452a12.948,12.948,0,0,0,5.82-1.083c3.181-1.624,5.211-5.82,4.873-10.152-.338-4.94-3.587-12.317-8.8-16.175a10.341,10.341,0,0,0-8.731-2.1,17.911,17.911,0,0,0-6.565,3.384,28.509,28.509,0,0,0-9.61,12.859,20.337,20.337,0,0,0,1.286,16.175,1.877,1.877,0,1,1-3.384,1.624c-3.113-6.362-3.655-12.994-1.489-19.085a32.239,32.239,0,0,1,10.9-14.619,21.786,21.786,0,0,1,7.986-4.061,14.2,14.2,0,0,1,11.844,2.707A26.437,26.437,0,0,1,244.127,533.55Z" transform="translate(-208.167 -165.526)" fill="#364f6b"/>
          <circle id="Ellipse_14-4" data-name="Ellipse 14" cx="4.805" cy="4.805" r="4.805" transform="translate(540.368 67.463)" fill="#364f6b"/>
          <circle id="Ellipse_15-4" data-name="Ellipse 15" cx="4.805" cy="4.805" r="4.805" transform="translate(547.542 52.71)" fill="#364f6b"/>
          <circle id="Ellipse_16-4" data-name="Ellipse 16" cx="4.805" cy="4.805" r="4.805" transform="translate(556.34 64.08)" fill="#364f6b"/>
          <path id="Path_173-4" data-name="Path 173" d="M1126.079,216.37c-3.248-3.655-6.565-7.309-10.016-10.964a83.776,83.776,0,0,0,10.558-12.317,2.534,2.534,0,0,0-4.2-2.843,74.934,74.934,0,0,1-9.813,11.438c-3.249-3.384-6.565-6.768-9.949-10.084a2.536,2.536,0,0,0-3.587,3.587c3.316,3.249,6.565,6.633,9.813,10.016-.744.744-1.557,1.489-2.369,2.166-2.775,2.572-5.685,5.279-8.392,8.121a2.618,2.618,0,0,0,0,3.587h0a2.553,2.553,0,0,0,3.587-.068c2.64-2.707,5.482-5.347,8.189-7.918.812-.744,1.557-1.489,2.369-2.233,3.316,3.587,6.633,7.174,9.881,10.761l.135.135a2.6,2.6,0,0,0,3.519.135A2.361,2.361,0,0,0,1126.079,216.37ZM326.727,183.478l-.271-1.76a197.769,197.769,0,0,1-1.557-25.041c0-3.722,0-7.783.135-12.52V142.6c0-3.384,0-7.58,2.639-9.137,1.489-.88,3.452-.677,5.753.609,3.858,2.1,8.934,5.888,11.844,10.084a20.7,20.7,0,0,1,3.384,17.393c-2.166,8.324-10.152,20.98-20.3,21.725Zm3.046-46.969c-.135,0-.2,0-.271.068s-.474.338-.744,1.827a29.048,29.048,0,0,0-.2,4.264v1.624c-.135,4.67-.135,8.663-.135,12.385a192.416,192.416,0,0,0,1.354,22.808c7.445-1.827,13.806-12.25,15.566-18.815a17.148,17.148,0,0,0-2.842-14.416h0c-2.639-3.722-7.377-7.174-10.761-9A4.749,4.749,0,0,0,329.773,136.509ZM454.437,56.378a.512.512,0,0,1-.271-.068,11.164,11.164,0,0,0-4.534-.474.882.882,0,0,1-.135-1.76,12.834,12.834,0,0,1,5.144.541.869.869,0,0,1,.609,1.083A.922.922,0,0,1,454.437,56.378Zm-6.9,6.565a.879.879,0,0,1-.812-.541,14.16,14.16,0,0,1-.88-4.467.847.847,0,0,1,1.692-.068,15.486,15.486,0,0,0,.744,3.925.832.832,0,0,1-.541,1.083C447.737,62.943,447.6,62.943,447.534,62.943Zm-8.121-4.128a.833.833,0,0,1-.677-.338.923.923,0,0,1,.135-1.218,21.171,21.171,0,0,1,3.925-2.436.863.863,0,1,1,.744,1.557,17.715,17.715,0,0,0-3.587,2.233A.769.769,0,0,1,439.412,58.814Zm4.332-6.159a1.032,1.032,0,0,1-.812-.474,13.524,13.524,0,0,0-1.624-2.3c-.2-.271-.474-.609-.745-.948a.867.867,0,1,1,1.354-1.083c.271.338.542.677.745.948a12.461,12.461,0,0,1,1.827,2.639.893.893,0,0,1-.406,1.151A.507.507,0,0,1,443.744,52.655Zm4.2-.2a1.592,1.592,0,0,1-.541-.135.866.866,0,0,1-.2-1.218,38.5,38.5,0,0,0,2.233-3.519.848.848,0,1,1,1.489.812,32.034,32.034,0,0,1-2.369,3.79A.858.858,0,0,1,447.94,52.452ZM801.628,274.3a.512.512,0,0,1-.271-.068,11.166,11.166,0,0,0-4.535-.474.882.882,0,0,1-.135-1.76,12.833,12.833,0,0,1,5.143.541.869.869,0,0,1,.609,1.083A.922.922,0,0,1,801.628,274.3Zm-6.9,6.565a.879.879,0,0,1-.812-.541,14.161,14.161,0,0,1-.88-4.467.847.847,0,1,1,1.692-.068,15.477,15.477,0,0,0,.745,3.925.832.832,0,0,1-.542,1.083C794.928,280.868,794.792,280.868,794.725,280.868Zm-8.121-4.128a.833.833,0,0,1-.677-.338.922.922,0,0,1,.135-1.218,21.176,21.176,0,0,1,3.925-2.436.863.863,0,0,1,.745,1.557,17.711,17.711,0,0,0-3.587,2.233A.769.769,0,0,1,786.6,276.739Zm4.331-6.159a1.032,1.032,0,0,1-.812-.474,13.527,13.527,0,0,0-1.624-2.3c-.2-.271-.474-.609-.745-.947a.867.867,0,1,1,1.353-1.083c.271.338.541.677.745.948a12.465,12.465,0,0,1,1.827,2.639.893.893,0,0,1-.406,1.151A.508.508,0,0,1,790.935,270.58Zm4.2-.2a1.591,1.591,0,0,1-.541-.135.866.866,0,0,1-.2-1.218,38.466,38.466,0,0,0,2.233-3.519.848.848,0,0,1,1.489.812,32.048,32.048,0,0,1-2.369,3.79A.858.858,0,0,1,795.131,270.377Zm209.8,132.921a10.138,10.138,0,0,1-3.046-.474c-5.685-1.827-11.234-8.6-12.656-13.536a21.056,21.056,0,0,1-.609-2.978c-5.482,2.233-10.49,7.174-10.422,14.212a1.924,1.924,0,0,1-1.827,1.895h0a1.82,1.82,0,0,1-1.827-1.827,17.591,17.591,0,0,1,4.738-12.182,21.317,21.317,0,0,1,9.272-5.956,19.387,19.387,0,0,1,5.008-11.776c4.738-5.008,12.318-6.023,18.476-6.836l.474-.068a1.847,1.847,0,0,1,.541,3.655l-.474.068c-5.82.812-12.453,1.692-16.243,5.685a15.805,15.805,0,0,0-3.858,8.392,26.009,26.009,0,0,1,16.446,3.858,10.948,10.948,0,0,1,4.873,8.6,9.006,9.006,0,0,1-3.519,7.512A9.523,9.523,0,0,1,1004.934,403.3Zm-12.656-18.07a14.427,14.427,0,0,0,.542,2.978c1.15,3.925,5.888,9.61,10.219,11.032a4.967,4.967,0,0,0,4.873-.745,5.19,5.19,0,0,0,2.1-4.467,7.318,7.318,0,0,0-3.249-5.617A21.889,21.889,0,0,0,992.279,385.228Z" transform="translate(-245.897 -47.118)" fill="#364f6b"/>
        </g>
      </g>
      <g transform="translate(-935.512 758.802)">
        <g id="Group_289-3" data-name="Group 289" transform="translate(935.512 153.198)" opacity="0.6">
          <path id="Path_172-5" data-name="Path 172" d="M540.762,453.554A2.551,2.551,0,0,1,538.393,452a2.584,2.584,0,0,1,1.286-3.384,10.983,10.983,0,0,0,5.685-5.753,10.7,10.7,0,0,0,.135-8.054c-.2-.609-.541-1.218-.812-1.9a19.645,19.645,0,0,1-1.557-3.993,12.8,12.8,0,0,1,1.354-8.663,22.018,22.018,0,0,1,5.143-6.159,2.544,2.544,0,1,1,3.316,3.858,17.253,17.253,0,0,0-3.993,4.738,7.2,7.2,0,0,0-.88,5.144,14.4,14.4,0,0,0,1.151,2.91l1.015,2.233a16.447,16.447,0,0,1-.2,11.911,16.138,16.138,0,0,1-8.324,8.46A2.163,2.163,0,0,1,540.762,453.554Zm27.613-34.719a2.555,2.555,0,0,1,2.572,1.286,2.651,2.651,0,0,1-.948,3.587,11.243,11.243,0,0,0-5.143,6.429,11.089,11.089,0,0,0,.744,8.189,18.374,18.374,0,0,0,1.083,1.827,22.846,22.846,0,0,1,2.03,3.858,12.8,12.8,0,0,1-.406,8.934,22.087,22.087,0,0,1-4.6,6.836,2.6,2.6,0,0,1-3.722.135,2.517,2.517,0,0,1-.135-3.655,18.032,18.032,0,0,0,3.587-5.211,7.794,7.794,0,0,0,.338-5.347,16,16,0,0,0-1.489-2.775c-.406-.677-.88-1.421-1.286-2.166a16.507,16.507,0,0,1-1.151-12.047,16.274,16.274,0,0,1,7.58-9.475A1.337,1.337,0,0,1,568.375,418.835ZM244.127,533.55a27.958,27.958,0,0,1,6.362,15.16c.338,4.941-1.624,11.1-6.9,13.806a16.815,16.815,0,0,1-7.58,1.489c-5.347-.068-8.731-1.963-10.423-5.685-1.421-3.181-1.557-7.715,1.218-10.761,2.166-2.369,5.279-2.775,7.58-1.083a1.888,1.888,0,1,1-2.233,3.045c-1.218-.88-2.436.406-2.572.541-1.624,1.76-1.421,4.738-.541,6.7,1.015,2.3,3.181,3.384,7.039,3.452a12.948,12.948,0,0,0,5.82-1.083c3.181-1.624,5.211-5.82,4.873-10.152-.338-4.94-3.587-12.317-8.8-16.175a10.341,10.341,0,0,0-8.731-2.1,17.911,17.911,0,0,0-6.565,3.384,28.509,28.509,0,0,0-9.61,12.859,20.337,20.337,0,0,0,1.286,16.175,1.877,1.877,0,1,1-3.384,1.624c-3.113-6.362-3.655-12.994-1.489-19.085a32.239,32.239,0,0,1,10.9-14.619,21.786,21.786,0,0,1,7.986-4.061,14.2,14.2,0,0,1,11.844,2.707A26.437,26.437,0,0,1,244.127,533.55Z" transform="translate(-208.167 -165.526)" fill="#364f6b"/>
          <circle id="Ellipse_14-5" data-name="Ellipse 14" cx="4.805" cy="4.805" r="4.805" transform="translate(540.368 67.463)" fill="#364f6b"/>
          <circle id="Ellipse_15-5" data-name="Ellipse 15" cx="4.805" cy="4.805" r="4.805" transform="translate(547.542 52.71)" fill="#364f6b"/>
          <circle id="Ellipse_16-5" data-name="Ellipse 16" cx="4.805" cy="4.805" r="4.805" transform="translate(556.34 64.08)" fill="#364f6b"/>
          <path id="Path_173-5" data-name="Path 173" d="M1126.079,216.37c-3.248-3.655-6.565-7.309-10.016-10.964a83.776,83.776,0,0,0,10.558-12.317,2.534,2.534,0,0,0-4.2-2.843,74.934,74.934,0,0,1-9.813,11.438c-3.249-3.384-6.565-6.768-9.949-10.084a2.536,2.536,0,0,0-3.587,3.587c3.316,3.249,6.565,6.633,9.813,10.016-.744.744-1.557,1.489-2.369,2.166-2.775,2.572-5.685,5.279-8.392,8.121a2.618,2.618,0,0,0,0,3.587h0a2.553,2.553,0,0,0,3.587-.068c2.64-2.707,5.482-5.347,8.189-7.918.812-.744,1.557-1.489,2.369-2.233,3.316,3.587,6.633,7.174,9.881,10.761l.135.135a2.6,2.6,0,0,0,3.519.135A2.361,2.361,0,0,0,1126.079,216.37ZM326.727,183.478l-.271-1.76a197.769,197.769,0,0,1-1.557-25.041c0-3.722,0-7.783.135-12.52V142.6c0-3.384,0-7.58,2.639-9.137,1.489-.88,3.452-.677,5.753.609,3.858,2.1,8.934,5.888,11.844,10.084a20.7,20.7,0,0,1,3.384,17.393c-2.166,8.324-10.152,20.98-20.3,21.725Zm3.046-46.969c-.135,0-.2,0-.271.068s-.474.338-.744,1.827a29.048,29.048,0,0,0-.2,4.264v1.624c-.135,4.67-.135,8.663-.135,12.385a192.416,192.416,0,0,0,1.354,22.808c7.445-1.827,13.806-12.25,15.566-18.815a17.148,17.148,0,0,0-2.842-14.416h0c-2.639-3.722-7.377-7.174-10.761-9A4.749,4.749,0,0,0,329.773,136.509ZM454.437,56.378a.512.512,0,0,1-.271-.068,11.164,11.164,0,0,0-4.534-.474.882.882,0,0,1-.135-1.76,12.834,12.834,0,0,1,5.144.541.869.869,0,0,1,.609,1.083A.922.922,0,0,1,454.437,56.378Zm-6.9,6.565a.879.879,0,0,1-.812-.541,14.16,14.16,0,0,1-.88-4.467.847.847,0,0,1,1.692-.068,15.486,15.486,0,0,0,.744,3.925.832.832,0,0,1-.541,1.083C447.737,62.943,447.6,62.943,447.534,62.943Zm-8.121-4.128a.833.833,0,0,1-.677-.338.923.923,0,0,1,.135-1.218,21.171,21.171,0,0,1,3.925-2.436.863.863,0,1,1,.744,1.557,17.715,17.715,0,0,0-3.587,2.233A.769.769,0,0,1,439.412,58.814Zm4.332-6.159a1.032,1.032,0,0,1-.812-.474,13.524,13.524,0,0,0-1.624-2.3c-.2-.271-.474-.609-.745-.948a.867.867,0,1,1,1.354-1.083c.271.338.542.677.745.948a12.461,12.461,0,0,1,1.827,2.639.893.893,0,0,1-.406,1.151A.507.507,0,0,1,443.744,52.655Zm4.2-.2a1.592,1.592,0,0,1-.541-.135.866.866,0,0,1-.2-1.218,38.5,38.5,0,0,0,2.233-3.519.848.848,0,1,1,1.489.812,32.034,32.034,0,0,1-2.369,3.79A.858.858,0,0,1,447.94,52.452ZM801.628,274.3a.512.512,0,0,1-.271-.068,11.166,11.166,0,0,0-4.535-.474.882.882,0,0,1-.135-1.76,12.833,12.833,0,0,1,5.143.541.869.869,0,0,1,.609,1.083A.922.922,0,0,1,801.628,274.3Zm-6.9,6.565a.879.879,0,0,1-.812-.541,14.161,14.161,0,0,1-.88-4.467.847.847,0,1,1,1.692-.068,15.477,15.477,0,0,0,.745,3.925.832.832,0,0,1-.542,1.083C794.928,280.868,794.792,280.868,794.725,280.868Zm-8.121-4.128a.833.833,0,0,1-.677-.338.922.922,0,0,1,.135-1.218,21.176,21.176,0,0,1,3.925-2.436.863.863,0,0,1,.745,1.557,17.711,17.711,0,0,0-3.587,2.233A.769.769,0,0,1,786.6,276.739Zm4.331-6.159a1.032,1.032,0,0,1-.812-.474,13.527,13.527,0,0,0-1.624-2.3c-.2-.271-.474-.609-.745-.947a.867.867,0,1,1,1.353-1.083c.271.338.541.677.745.948a12.465,12.465,0,0,1,1.827,2.639.893.893,0,0,1-.406,1.151A.508.508,0,0,1,790.935,270.58Zm4.2-.2a1.591,1.591,0,0,1-.541-.135.866.866,0,0,1-.2-1.218,38.466,38.466,0,0,0,2.233-3.519.848.848,0,0,1,1.489.812,32.048,32.048,0,0,1-2.369,3.79A.858.858,0,0,1,795.131,270.377Zm209.8,132.921a10.138,10.138,0,0,1-3.046-.474c-5.685-1.827-11.234-8.6-12.656-13.536a21.056,21.056,0,0,1-.609-2.978c-5.482,2.233-10.49,7.174-10.422,14.212a1.924,1.924,0,0,1-1.827,1.895h0a1.82,1.82,0,0,1-1.827-1.827,17.591,17.591,0,0,1,4.738-12.182,21.317,21.317,0,0,1,9.272-5.956,19.387,19.387,0,0,1,5.008-11.776c4.738-5.008,12.318-6.023,18.476-6.836l.474-.068a1.847,1.847,0,0,1,.541,3.655l-.474.068c-5.82.812-12.453,1.692-16.243,5.685a15.805,15.805,0,0,0-3.858,8.392,26.009,26.009,0,0,1,16.446,3.858,10.948,10.948,0,0,1,4.873,8.6,9.006,9.006,0,0,1-3.519,7.512A9.523,9.523,0,0,1,1004.934,403.3Zm-12.656-18.07a14.427,14.427,0,0,0,.542,2.978c1.15,3.925,5.888,9.61,10.219,11.032a4.967,4.967,0,0,0,4.873-.745,5.19,5.19,0,0,0,2.1-4.467,7.318,7.318,0,0,0-3.249-5.617A21.889,21.889,0,0,0,992.279,385.228Z" transform="translate(-245.897 -47.118)" fill="#364f6b"/>
        </g>
        <g id="Group_290-3" data-name="Group 290" transform="translate(1063.511 644.198)" opacity="0.6">
          <path id="Path_172-6" data-name="Path 172" d="M540.762,453.554A2.551,2.551,0,0,1,538.393,452a2.584,2.584,0,0,1,1.286-3.384,10.983,10.983,0,0,0,5.685-5.753,10.7,10.7,0,0,0,.135-8.054c-.2-.609-.541-1.218-.812-1.9a19.645,19.645,0,0,1-1.557-3.993,12.8,12.8,0,0,1,1.354-8.663,22.018,22.018,0,0,1,5.143-6.159,2.544,2.544,0,1,1,3.316,3.858,17.253,17.253,0,0,0-3.993,4.738,7.2,7.2,0,0,0-.88,5.144,14.4,14.4,0,0,0,1.151,2.91l1.015,2.233a16.447,16.447,0,0,1-.2,11.911,16.138,16.138,0,0,1-8.324,8.46A2.163,2.163,0,0,1,540.762,453.554Zm27.613-34.719a2.555,2.555,0,0,1,2.572,1.286,2.651,2.651,0,0,1-.948,3.587,11.243,11.243,0,0,0-5.143,6.429,11.089,11.089,0,0,0,.744,8.189,18.374,18.374,0,0,0,1.083,1.827,22.846,22.846,0,0,1,2.03,3.858,12.8,12.8,0,0,1-.406,8.934,22.087,22.087,0,0,1-4.6,6.836,2.6,2.6,0,0,1-3.722.135,2.517,2.517,0,0,1-.135-3.655,18.032,18.032,0,0,0,3.587-5.211,7.794,7.794,0,0,0,.338-5.347,16,16,0,0,0-1.489-2.775c-.406-.677-.88-1.421-1.286-2.166a16.507,16.507,0,0,1-1.151-12.047,16.274,16.274,0,0,1,7.58-9.475A1.337,1.337,0,0,1,568.375,418.835ZM244.127,533.55a27.958,27.958,0,0,1,6.362,15.16c.338,4.941-1.624,11.1-6.9,13.806a16.815,16.815,0,0,1-7.58,1.489c-5.347-.068-8.731-1.963-10.423-5.685-1.421-3.181-1.557-7.715,1.218-10.761,2.166-2.369,5.279-2.775,7.58-1.083a1.888,1.888,0,1,1-2.233,3.045c-1.218-.88-2.436.406-2.572.541-1.624,1.76-1.421,4.738-.541,6.7,1.015,2.3,3.181,3.384,7.039,3.452a12.948,12.948,0,0,0,5.82-1.083c3.181-1.624,5.211-5.82,4.873-10.152-.338-4.94-3.587-12.317-8.8-16.175a10.341,10.341,0,0,0-8.731-2.1,17.911,17.911,0,0,0-6.565,3.384,28.509,28.509,0,0,0-9.61,12.859,20.337,20.337,0,0,0,1.286,16.175,1.877,1.877,0,1,1-3.384,1.624c-3.113-6.362-3.655-12.994-1.489-19.085a32.239,32.239,0,0,1,10.9-14.619,21.786,21.786,0,0,1,7.986-4.061,14.2,14.2,0,0,1,11.844,2.707A26.437,26.437,0,0,1,244.127,533.55Z" transform="translate(-208.167 -165.526)" fill="#364f6b"/>
          <circle id="Ellipse_14-6" data-name="Ellipse 14" cx="4.805" cy="4.805" r="4.805" transform="translate(540.368 67.463)" fill="#364f6b"/>
          <circle id="Ellipse_15-6" data-name="Ellipse 15" cx="4.805" cy="4.805" r="4.805" transform="translate(547.542 52.71)" fill="#364f6b"/>
          <circle id="Ellipse_16-6" data-name="Ellipse 16" cx="4.805" cy="4.805" r="4.805" transform="translate(556.34 64.08)" fill="#364f6b"/>
          <path id="Path_173-6" data-name="Path 173" d="M1126.079,216.37c-3.248-3.655-6.565-7.309-10.016-10.964a83.776,83.776,0,0,0,10.558-12.317,2.534,2.534,0,0,0-4.2-2.843,74.934,74.934,0,0,1-9.813,11.438c-3.249-3.384-6.565-6.768-9.949-10.084a2.536,2.536,0,0,0-3.587,3.587c3.316,3.249,6.565,6.633,9.813,10.016-.744.744-1.557,1.489-2.369,2.166-2.775,2.572-5.685,5.279-8.392,8.121a2.618,2.618,0,0,0,0,3.587h0a2.553,2.553,0,0,0,3.587-.068c2.64-2.707,5.482-5.347,8.189-7.918.812-.744,1.557-1.489,2.369-2.233,3.316,3.587,6.633,7.174,9.881,10.761l.135.135a2.6,2.6,0,0,0,3.519.135A2.361,2.361,0,0,0,1126.079,216.37ZM326.727,183.478l-.271-1.76a197.769,197.769,0,0,1-1.557-25.041c0-3.722,0-7.783.135-12.52V142.6c0-3.384,0-7.58,2.639-9.137,1.489-.88,3.452-.677,5.753.609,3.858,2.1,8.934,5.888,11.844,10.084a20.7,20.7,0,0,1,3.384,17.393c-2.166,8.324-10.152,20.98-20.3,21.725Zm3.046-46.969c-.135,0-.2,0-.271.068s-.474.338-.744,1.827a29.048,29.048,0,0,0-.2,4.264v1.624c-.135,4.67-.135,8.663-.135,12.385a192.416,192.416,0,0,0,1.354,22.808c7.445-1.827,13.806-12.25,15.566-18.815a17.148,17.148,0,0,0-2.842-14.416h0c-2.639-3.722-7.377-7.174-10.761-9A4.749,4.749,0,0,0,329.773,136.509ZM454.437,56.378a.512.512,0,0,1-.271-.068,11.164,11.164,0,0,0-4.534-.474.882.882,0,0,1-.135-1.76,12.834,12.834,0,0,1,5.144.541.869.869,0,0,1,.609,1.083A.922.922,0,0,1,454.437,56.378Zm-6.9,6.565a.879.879,0,0,1-.812-.541,14.16,14.16,0,0,1-.88-4.467.847.847,0,0,1,1.692-.068,15.486,15.486,0,0,0,.744,3.925.832.832,0,0,1-.541,1.083C447.737,62.943,447.6,62.943,447.534,62.943Zm-8.121-4.128a.833.833,0,0,1-.677-.338.923.923,0,0,1,.135-1.218,21.171,21.171,0,0,1,3.925-2.436.863.863,0,1,1,.744,1.557,17.715,17.715,0,0,0-3.587,2.233A.769.769,0,0,1,439.412,58.814Zm4.332-6.159a1.032,1.032,0,0,1-.812-.474,13.524,13.524,0,0,0-1.624-2.3c-.2-.271-.474-.609-.745-.948a.867.867,0,1,1,1.354-1.083c.271.338.542.677.745.948a12.461,12.461,0,0,1,1.827,2.639.893.893,0,0,1-.406,1.151A.507.507,0,0,1,443.744,52.655Zm4.2-.2a1.592,1.592,0,0,1-.541-.135.866.866,0,0,1-.2-1.218,38.5,38.5,0,0,0,2.233-3.519.848.848,0,1,1,1.489.812,32.034,32.034,0,0,1-2.369,3.79A.858.858,0,0,1,447.94,52.452ZM801.628,274.3a.512.512,0,0,1-.271-.068,11.166,11.166,0,0,0-4.535-.474.882.882,0,0,1-.135-1.76,12.833,12.833,0,0,1,5.143.541.869.869,0,0,1,.609,1.083A.922.922,0,0,1,801.628,274.3Zm-6.9,6.565a.879.879,0,0,1-.812-.541,14.161,14.161,0,0,1-.88-4.467.847.847,0,1,1,1.692-.068,15.477,15.477,0,0,0,.745,3.925.832.832,0,0,1-.542,1.083C794.928,280.868,794.792,280.868,794.725,280.868Zm-8.121-4.128a.833.833,0,0,1-.677-.338.922.922,0,0,1,.135-1.218,21.176,21.176,0,0,1,3.925-2.436.863.863,0,0,1,.745,1.557,17.711,17.711,0,0,0-3.587,2.233A.769.769,0,0,1,786.6,276.739Zm4.331-6.159a1.032,1.032,0,0,1-.812-.474,13.527,13.527,0,0,0-1.624-2.3c-.2-.271-.474-.609-.745-.947a.867.867,0,1,1,1.353-1.083c.271.338.541.677.745.948a12.465,12.465,0,0,1,1.827,2.639.893.893,0,0,1-.406,1.151A.508.508,0,0,1,790.935,270.58Zm4.2-.2a1.591,1.591,0,0,1-.541-.135.866.866,0,0,1-.2-1.218,38.466,38.466,0,0,0,2.233-3.519.848.848,0,0,1,1.489.812,32.048,32.048,0,0,1-2.369,3.79A.858.858,0,0,1,795.131,270.377Zm209.8,132.921a10.138,10.138,0,0,1-3.046-.474c-5.685-1.827-11.234-8.6-12.656-13.536a21.056,21.056,0,0,1-.609-2.978c-5.482,2.233-10.49,7.174-10.422,14.212a1.924,1.924,0,0,1-1.827,1.895h0a1.82,1.82,0,0,1-1.827-1.827,17.591,17.591,0,0,1,4.738-12.182,21.317,21.317,0,0,1,9.272-5.956,19.387,19.387,0,0,1,5.008-11.776c4.738-5.008,12.318-6.023,18.476-6.836l.474-.068a1.847,1.847,0,0,1,.541,3.655l-.474.068c-5.82.812-12.453,1.692-16.243,5.685a15.805,15.805,0,0,0-3.858,8.392,26.009,26.009,0,0,1,16.446,3.858,10.948,10.948,0,0,1,4.873,8.6,9.006,9.006,0,0,1-3.519,7.512A9.523,9.523,0,0,1,1004.934,403.3Zm-12.656-18.07a14.427,14.427,0,0,0,.542,2.978c1.15,3.925,5.888,9.61,10.219,11.032a4.967,4.967,0,0,0,4.873-.745,5.19,5.19,0,0,0,2.1-4.467,7.318,7.318,0,0,0-3.249-5.617A21.889,21.889,0,0,0,992.279,385.228Z" transform="translate(-245.897 -47.118)" fill="#364f6b"/>
        </g>
      </g>
      <g transform="translate(138.488 758.802)">
        <g id="Group_289-4" data-name="Group 289" transform="translate(935.512 153.198)" opacity="0.6">
          <path id="Path_172-7" data-name="Path 172" d="M540.762,453.554A2.551,2.551,0,0,1,538.393,452a2.584,2.584,0,0,1,1.286-3.384,10.983,10.983,0,0,0,5.685-5.753,10.7,10.7,0,0,0,.135-8.054c-.2-.609-.541-1.218-.812-1.9a19.645,19.645,0,0,1-1.557-3.993,12.8,12.8,0,0,1,1.354-8.663,22.018,22.018,0,0,1,5.143-6.159,2.544,2.544,0,1,1,3.316,3.858,17.253,17.253,0,0,0-3.993,4.738,7.2,7.2,0,0,0-.88,5.144,14.4,14.4,0,0,0,1.151,2.91l1.015,2.233a16.447,16.447,0,0,1-.2,11.911,16.138,16.138,0,0,1-8.324,8.46A2.163,2.163,0,0,1,540.762,453.554Zm27.613-34.719a2.555,2.555,0,0,1,2.572,1.286,2.651,2.651,0,0,1-.948,3.587,11.243,11.243,0,0,0-5.143,6.429,11.089,11.089,0,0,0,.744,8.189,18.374,18.374,0,0,0,1.083,1.827,22.846,22.846,0,0,1,2.03,3.858,12.8,12.8,0,0,1-.406,8.934,22.087,22.087,0,0,1-4.6,6.836,2.6,2.6,0,0,1-3.722.135,2.517,2.517,0,0,1-.135-3.655,18.032,18.032,0,0,0,3.587-5.211,7.794,7.794,0,0,0,.338-5.347,16,16,0,0,0-1.489-2.775c-.406-.677-.88-1.421-1.286-2.166a16.507,16.507,0,0,1-1.151-12.047,16.274,16.274,0,0,1,7.58-9.475A1.337,1.337,0,0,1,568.375,418.835ZM244.127,533.55a27.958,27.958,0,0,1,6.362,15.16c.338,4.941-1.624,11.1-6.9,13.806a16.815,16.815,0,0,1-7.58,1.489c-5.347-.068-8.731-1.963-10.423-5.685-1.421-3.181-1.557-7.715,1.218-10.761,2.166-2.369,5.279-2.775,7.58-1.083a1.888,1.888,0,1,1-2.233,3.045c-1.218-.88-2.436.406-2.572.541-1.624,1.76-1.421,4.738-.541,6.7,1.015,2.3,3.181,3.384,7.039,3.452a12.948,12.948,0,0,0,5.82-1.083c3.181-1.624,5.211-5.82,4.873-10.152-.338-4.94-3.587-12.317-8.8-16.175a10.341,10.341,0,0,0-8.731-2.1,17.911,17.911,0,0,0-6.565,3.384,28.509,28.509,0,0,0-9.61,12.859,20.337,20.337,0,0,0,1.286,16.175,1.877,1.877,0,1,1-3.384,1.624c-3.113-6.362-3.655-12.994-1.489-19.085a32.239,32.239,0,0,1,10.9-14.619,21.786,21.786,0,0,1,7.986-4.061,14.2,14.2,0,0,1,11.844,2.707A26.437,26.437,0,0,1,244.127,533.55Z" transform="translate(-208.167 -165.526)" fill="#364f6b"/>
          <circle id="Ellipse_14-7" data-name="Ellipse 14" cx="4.805" cy="4.805" r="4.805" transform="translate(540.368 67.463)" fill="#364f6b"/>
          <circle id="Ellipse_15-7" data-name="Ellipse 15" cx="4.805" cy="4.805" r="4.805" transform="translate(547.542 52.71)" fill="#364f6b"/>
          <circle id="Ellipse_16-7" data-name="Ellipse 16" cx="4.805" cy="4.805" r="4.805" transform="translate(556.34 64.08)" fill="#364f6b"/>
          <path id="Path_173-7" data-name="Path 173" d="M1126.079,216.37c-3.248-3.655-6.565-7.309-10.016-10.964a83.776,83.776,0,0,0,10.558-12.317,2.534,2.534,0,0,0-4.2-2.843,74.934,74.934,0,0,1-9.813,11.438c-3.249-3.384-6.565-6.768-9.949-10.084a2.536,2.536,0,0,0-3.587,3.587c3.316,3.249,6.565,6.633,9.813,10.016-.744.744-1.557,1.489-2.369,2.166-2.775,2.572-5.685,5.279-8.392,8.121a2.618,2.618,0,0,0,0,3.587h0a2.553,2.553,0,0,0,3.587-.068c2.64-2.707,5.482-5.347,8.189-7.918.812-.744,1.557-1.489,2.369-2.233,3.316,3.587,6.633,7.174,9.881,10.761l.135.135a2.6,2.6,0,0,0,3.519.135A2.361,2.361,0,0,0,1126.079,216.37ZM326.727,183.478l-.271-1.76a197.769,197.769,0,0,1-1.557-25.041c0-3.722,0-7.783.135-12.52V142.6c0-3.384,0-7.58,2.639-9.137,1.489-.88,3.452-.677,5.753.609,3.858,2.1,8.934,5.888,11.844,10.084a20.7,20.7,0,0,1,3.384,17.393c-2.166,8.324-10.152,20.98-20.3,21.725Zm3.046-46.969c-.135,0-.2,0-.271.068s-.474.338-.744,1.827a29.048,29.048,0,0,0-.2,4.264v1.624c-.135,4.67-.135,8.663-.135,12.385a192.416,192.416,0,0,0,1.354,22.808c7.445-1.827,13.806-12.25,15.566-18.815a17.148,17.148,0,0,0-2.842-14.416h0c-2.639-3.722-7.377-7.174-10.761-9A4.749,4.749,0,0,0,329.773,136.509ZM454.437,56.378a.512.512,0,0,1-.271-.068,11.164,11.164,0,0,0-4.534-.474.882.882,0,0,1-.135-1.76,12.834,12.834,0,0,1,5.144.541.869.869,0,0,1,.609,1.083A.922.922,0,0,1,454.437,56.378Zm-6.9,6.565a.879.879,0,0,1-.812-.541,14.16,14.16,0,0,1-.88-4.467.847.847,0,0,1,1.692-.068,15.486,15.486,0,0,0,.744,3.925.832.832,0,0,1-.541,1.083C447.737,62.943,447.6,62.943,447.534,62.943Zm-8.121-4.128a.833.833,0,0,1-.677-.338.923.923,0,0,1,.135-1.218,21.171,21.171,0,0,1,3.925-2.436.863.863,0,1,1,.744,1.557,17.715,17.715,0,0,0-3.587,2.233A.769.769,0,0,1,439.412,58.814Zm4.332-6.159a1.032,1.032,0,0,1-.812-.474,13.524,13.524,0,0,0-1.624-2.3c-.2-.271-.474-.609-.745-.948a.867.867,0,1,1,1.354-1.083c.271.338.542.677.745.948a12.461,12.461,0,0,1,1.827,2.639.893.893,0,0,1-.406,1.151A.507.507,0,0,1,443.744,52.655Zm4.2-.2a1.592,1.592,0,0,1-.541-.135.866.866,0,0,1-.2-1.218,38.5,38.5,0,0,0,2.233-3.519.848.848,0,1,1,1.489.812,32.034,32.034,0,0,1-2.369,3.79A.858.858,0,0,1,447.94,52.452ZM801.628,274.3a.512.512,0,0,1-.271-.068,11.166,11.166,0,0,0-4.535-.474.882.882,0,0,1-.135-1.76,12.833,12.833,0,0,1,5.143.541.869.869,0,0,1,.609,1.083A.922.922,0,0,1,801.628,274.3Zm-6.9,6.565a.879.879,0,0,1-.812-.541,14.161,14.161,0,0,1-.88-4.467.847.847,0,1,1,1.692-.068,15.477,15.477,0,0,0,.745,3.925.832.832,0,0,1-.542,1.083C794.928,280.868,794.792,280.868,794.725,280.868Zm-8.121-4.128a.833.833,0,0,1-.677-.338.922.922,0,0,1,.135-1.218,21.176,21.176,0,0,1,3.925-2.436.863.863,0,0,1,.745,1.557,17.711,17.711,0,0,0-3.587,2.233A.769.769,0,0,1,786.6,276.739Zm4.331-6.159a1.032,1.032,0,0,1-.812-.474,13.527,13.527,0,0,0-1.624-2.3c-.2-.271-.474-.609-.745-.947a.867.867,0,1,1,1.353-1.083c.271.338.541.677.745.948a12.465,12.465,0,0,1,1.827,2.639.893.893,0,0,1-.406,1.151A.508.508,0,0,1,790.935,270.58Zm4.2-.2a1.591,1.591,0,0,1-.541-.135.866.866,0,0,1-.2-1.218,38.466,38.466,0,0,0,2.233-3.519.848.848,0,0,1,1.489.812,32.048,32.048,0,0,1-2.369,3.79A.858.858,0,0,1,795.131,270.377Zm209.8,132.921a10.138,10.138,0,0,1-3.046-.474c-5.685-1.827-11.234-8.6-12.656-13.536a21.056,21.056,0,0,1-.609-2.978c-5.482,2.233-10.49,7.174-10.422,14.212a1.924,1.924,0,0,1-1.827,1.895h0a1.82,1.82,0,0,1-1.827-1.827,17.591,17.591,0,0,1,4.738-12.182,21.317,21.317,0,0,1,9.272-5.956,19.387,19.387,0,0,1,5.008-11.776c4.738-5.008,12.318-6.023,18.476-6.836l.474-.068a1.847,1.847,0,0,1,.541,3.655l-.474.068c-5.82.812-12.453,1.692-16.243,5.685a15.805,15.805,0,0,0-3.858,8.392,26.009,26.009,0,0,1,16.446,3.858,10.948,10.948,0,0,1,4.873,8.6,9.006,9.006,0,0,1-3.519,7.512A9.523,9.523,0,0,1,1004.934,403.3Zm-12.656-18.07a14.427,14.427,0,0,0,.542,2.978c1.15,3.925,5.888,9.61,10.219,11.032a4.967,4.967,0,0,0,4.873-.745,5.19,5.19,0,0,0,2.1-4.467,7.318,7.318,0,0,0-3.249-5.617A21.889,21.889,0,0,0,992.279,385.228Z" transform="translate(-245.897 -47.118)" fill="#364f6b"/>
        </g>
        <g id="Group_290-4" data-name="Group 290" transform="translate(1063.511 644.198)" opacity="0.6">
          <path id="Path_172-8" data-name="Path 172" d="M540.762,453.554A2.551,2.551,0,0,1,538.393,452a2.584,2.584,0,0,1,1.286-3.384,10.983,10.983,0,0,0,5.685-5.753,10.7,10.7,0,0,0,.135-8.054c-.2-.609-.541-1.218-.812-1.9a19.645,19.645,0,0,1-1.557-3.993,12.8,12.8,0,0,1,1.354-8.663,22.018,22.018,0,0,1,5.143-6.159,2.544,2.544,0,1,1,3.316,3.858,17.253,17.253,0,0,0-3.993,4.738,7.2,7.2,0,0,0-.88,5.144,14.4,14.4,0,0,0,1.151,2.91l1.015,2.233a16.447,16.447,0,0,1-.2,11.911,16.138,16.138,0,0,1-8.324,8.46A2.163,2.163,0,0,1,540.762,453.554Zm27.613-34.719a2.555,2.555,0,0,1,2.572,1.286,2.651,2.651,0,0,1-.948,3.587,11.243,11.243,0,0,0-5.143,6.429,11.089,11.089,0,0,0,.744,8.189,18.374,18.374,0,0,0,1.083,1.827,22.846,22.846,0,0,1,2.03,3.858,12.8,12.8,0,0,1-.406,8.934,22.087,22.087,0,0,1-4.6,6.836,2.6,2.6,0,0,1-3.722.135,2.517,2.517,0,0,1-.135-3.655,18.032,18.032,0,0,0,3.587-5.211,7.794,7.794,0,0,0,.338-5.347,16,16,0,0,0-1.489-2.775c-.406-.677-.88-1.421-1.286-2.166a16.507,16.507,0,0,1-1.151-12.047,16.274,16.274,0,0,1,7.58-9.475A1.337,1.337,0,0,1,568.375,418.835ZM244.127,533.55a27.958,27.958,0,0,1,6.362,15.16c.338,4.941-1.624,11.1-6.9,13.806a16.815,16.815,0,0,1-7.58,1.489c-5.347-.068-8.731-1.963-10.423-5.685-1.421-3.181-1.557-7.715,1.218-10.761,2.166-2.369,5.279-2.775,7.58-1.083a1.888,1.888,0,1,1-2.233,3.045c-1.218-.88-2.436.406-2.572.541-1.624,1.76-1.421,4.738-.541,6.7,1.015,2.3,3.181,3.384,7.039,3.452a12.948,12.948,0,0,0,5.82-1.083c3.181-1.624,5.211-5.82,4.873-10.152-.338-4.94-3.587-12.317-8.8-16.175a10.341,10.341,0,0,0-8.731-2.1,17.911,17.911,0,0,0-6.565,3.384,28.509,28.509,0,0,0-9.61,12.859,20.337,20.337,0,0,0,1.286,16.175,1.877,1.877,0,1,1-3.384,1.624c-3.113-6.362-3.655-12.994-1.489-19.085a32.239,32.239,0,0,1,10.9-14.619,21.786,21.786,0,0,1,7.986-4.061,14.2,14.2,0,0,1,11.844,2.707A26.437,26.437,0,0,1,244.127,533.55Z" transform="translate(-208.167 -165.526)" fill="#364f6b"/>
          <circle id="Ellipse_14-8" data-name="Ellipse 14" cx="4.805" cy="4.805" r="4.805" transform="translate(540.368 67.463)" fill="#364f6b"/>
          <circle id="Ellipse_15-8" data-name="Ellipse 15" cx="4.805" cy="4.805" r="4.805" transform="translate(547.542 52.71)" fill="#364f6b"/>
          <circle id="Ellipse_16-8" data-name="Ellipse 16" cx="4.805" cy="4.805" r="4.805" transform="translate(556.34 64.08)" fill="#364f6b"/>
          <path id="Path_173-8" data-name="Path 173" d="M1126.079,216.37c-3.248-3.655-6.565-7.309-10.016-10.964a83.776,83.776,0,0,0,10.558-12.317,2.534,2.534,0,0,0-4.2-2.843,74.934,74.934,0,0,1-9.813,11.438c-3.249-3.384-6.565-6.768-9.949-10.084a2.536,2.536,0,0,0-3.587,3.587c3.316,3.249,6.565,6.633,9.813,10.016-.744.744-1.557,1.489-2.369,2.166-2.775,2.572-5.685,5.279-8.392,8.121a2.618,2.618,0,0,0,0,3.587h0a2.553,2.553,0,0,0,3.587-.068c2.64-2.707,5.482-5.347,8.189-7.918.812-.744,1.557-1.489,2.369-2.233,3.316,3.587,6.633,7.174,9.881,10.761l.135.135a2.6,2.6,0,0,0,3.519.135A2.361,2.361,0,0,0,1126.079,216.37ZM326.727,183.478l-.271-1.76a197.769,197.769,0,0,1-1.557-25.041c0-3.722,0-7.783.135-12.52V142.6c0-3.384,0-7.58,2.639-9.137,1.489-.88,3.452-.677,5.753.609,3.858,2.1,8.934,5.888,11.844,10.084a20.7,20.7,0,0,1,3.384,17.393c-2.166,8.324-10.152,20.98-20.3,21.725Zm3.046-46.969c-.135,0-.2,0-.271.068s-.474.338-.744,1.827a29.048,29.048,0,0,0-.2,4.264v1.624c-.135,4.67-.135,8.663-.135,12.385a192.416,192.416,0,0,0,1.354,22.808c7.445-1.827,13.806-12.25,15.566-18.815a17.148,17.148,0,0,0-2.842-14.416h0c-2.639-3.722-7.377-7.174-10.761-9A4.749,4.749,0,0,0,329.773,136.509ZM454.437,56.378a.512.512,0,0,1-.271-.068,11.164,11.164,0,0,0-4.534-.474.882.882,0,0,1-.135-1.76,12.834,12.834,0,0,1,5.144.541.869.869,0,0,1,.609,1.083A.922.922,0,0,1,454.437,56.378Zm-6.9,6.565a.879.879,0,0,1-.812-.541,14.16,14.16,0,0,1-.88-4.467.847.847,0,0,1,1.692-.068,15.486,15.486,0,0,0,.744,3.925.832.832,0,0,1-.541,1.083C447.737,62.943,447.6,62.943,447.534,62.943Zm-8.121-4.128a.833.833,0,0,1-.677-.338.923.923,0,0,1,.135-1.218,21.171,21.171,0,0,1,3.925-2.436.863.863,0,1,1,.744,1.557,17.715,17.715,0,0,0-3.587,2.233A.769.769,0,0,1,439.412,58.814Zm4.332-6.159a1.032,1.032,0,0,1-.812-.474,13.524,13.524,0,0,0-1.624-2.3c-.2-.271-.474-.609-.745-.948a.867.867,0,1,1,1.354-1.083c.271.338.542.677.745.948a12.461,12.461,0,0,1,1.827,2.639.893.893,0,0,1-.406,1.151A.507.507,0,0,1,443.744,52.655Zm4.2-.2a1.592,1.592,0,0,1-.541-.135.866.866,0,0,1-.2-1.218,38.5,38.5,0,0,0,2.233-3.519.848.848,0,1,1,1.489.812,32.034,32.034,0,0,1-2.369,3.79A.858.858,0,0,1,447.94,52.452ZM801.628,274.3a.512.512,0,0,1-.271-.068,11.166,11.166,0,0,0-4.535-.474.882.882,0,0,1-.135-1.76,12.833,12.833,0,0,1,5.143.541.869.869,0,0,1,.609,1.083A.922.922,0,0,1,801.628,274.3Zm-6.9,6.565a.879.879,0,0,1-.812-.541,14.161,14.161,0,0,1-.88-4.467.847.847,0,1,1,1.692-.068,15.477,15.477,0,0,0,.745,3.925.832.832,0,0,1-.542,1.083C794.928,280.868,794.792,280.868,794.725,280.868Zm-8.121-4.128a.833.833,0,0,1-.677-.338.922.922,0,0,1,.135-1.218,21.176,21.176,0,0,1,3.925-2.436.863.863,0,0,1,.745,1.557,17.711,17.711,0,0,0-3.587,2.233A.769.769,0,0,1,786.6,276.739Zm4.331-6.159a1.032,1.032,0,0,1-.812-.474,13.527,13.527,0,0,0-1.624-2.3c-.2-.271-.474-.609-.745-.947a.867.867,0,1,1,1.353-1.083c.271.338.541.677.745.948a12.465,12.465,0,0,1,1.827,2.639.893.893,0,0,1-.406,1.151A.508.508,0,0,1,790.935,270.58Zm4.2-.2a1.591,1.591,0,0,1-.541-.135.866.866,0,0,1-.2-1.218,38.466,38.466,0,0,0,2.233-3.519.848.848,0,0,1,1.489.812,32.048,32.048,0,0,1-2.369,3.79A.858.858,0,0,1,795.131,270.377Zm209.8,132.921a10.138,10.138,0,0,1-3.046-.474c-5.685-1.827-11.234-8.6-12.656-13.536a21.056,21.056,0,0,1-.609-2.978c-5.482,2.233-10.49,7.174-10.422,14.212a1.924,1.924,0,0,1-1.827,1.895h0a1.82,1.82,0,0,1-1.827-1.827,17.591,17.591,0,0,1,4.738-12.182,21.317,21.317,0,0,1,9.272-5.956,19.387,19.387,0,0,1,5.008-11.776c4.738-5.008,12.318-6.023,18.476-6.836l.474-.068a1.847,1.847,0,0,1,.541,3.655l-.474.068c-5.82.812-12.453,1.692-16.243,5.685a15.805,15.805,0,0,0-3.858,8.392,26.009,26.009,0,0,1,16.446,3.858,10.948,10.948,0,0,1,4.873,8.6,9.006,9.006,0,0,1-3.519,7.512A9.523,9.523,0,0,1,1004.934,403.3Zm-12.656-18.07a14.427,14.427,0,0,0,.542,2.978c1.15,3.925,5.888,9.61,10.219,11.032a4.967,4.967,0,0,0,4.873-.745,5.19,5.19,0,0,0,2.1-4.467,7.318,7.318,0,0,0-3.249-5.617A21.889,21.889,0,0,0,992.279,385.228Z" transform="translate(-245.897 -47.118)" fill="#364f6b"/>
        </g>
      </g>
    </g>
  </g>
</svg>
