<svg xmlns="http://www.w3.org/2000/svg" xmlns:xlink="http://www.w3.org/1999/xlink" width="1925" height="320" viewBox="0 0 1925 320">
  <defs>
    <style>
      .cls-1 {
        fill: #fff;
        stroke: #707070;
      }

      .cls-2 {
        clip-path: url(#clip-path);
      }

      .cls-3, .cls-5 {
        fill: #ff6464;
      }

      .cls-4, .cls-5 {
        stroke: none;
      }
    </style>
    <clipPath id="clip-path">
      <rect id="Rectangle_29" data-name="Rectangle 29" class="cls-1" width="1925" height="320" transform="translate(0 857)"/>
    </clipPath>
  </defs>
  <g id="Mask_Group_3" data-name="Mask Group 3" class="cls-2" transform="translate(0 -857)">
    <g id="Path_180" data-name="Path 180" class="cls-3" transform="translate(8 742)">
      <path class="cls-4" d="M 433.3587036132813 413.2465209960938 C 412.5625 413.2465209960938 392.1696472167969 412.5007934570313 372.7470397949219 411.0305480957031 C 354.1567993164063 409.6231689453125 335.8103637695313 407.5022277832031 318.2177429199219 404.7272338867188 C 301.5158386230469 402.0924682617188 284.8784790039063 398.7703247070313 268.7677612304688 394.8529357910156 C 253.6479949951172 391.176513671875 238.3820343017578 386.8262634277344 223.3937072753906 381.9231872558594 C 165.1579895019531 362.8727111816406 115.3425140380859 337.1603393554688 62.60227584838867 309.9381713867188 C 40.23432922363281 298.3929748535156 17.10617637634277 286.455322265625 -7.165774345397949 274.7955322265625 C -7.806063652038574 225.1820526123047 -7.465134620666504 176.94091796875 -7.1353440284729 130.2843780517578 C -6.824685573577881 86.35052490234375 -6.531336784362793 44.84291458129883 -7.155705451965332 8.559253692626953 C -5.357288360595703 7.915480136871338 2.434967041015625 5.480656147003174 6.767036914825439 4.1272292137146 C 8.703227043151855 3.522229194641113 10.10227489471436 3.085086345672607 10.39489364624023 2.987467288970947 C 18.67156028747559 0.2286576777696609 27.48013114929199 -1.69038999080658 37.32394027709961 -2.879437446594238 C 46.25846481323242 -3.958485126495361 56.05608367919922 -4.461104393005371 68.15727233886719 -4.461104393005371 C 82.66298675537109 -4.461104393005371 98.83560943603516 -3.731342315673828 117.5617980957031 -2.886342287063599 C 143.6351318359375 -1.709913730621338 173.1875152587891 -0.3763423264026642 209.9665679931641 -0.3768185079097748 C 259.8675231933594 -0.3777709007263184 310.7584533691406 -2.901104211807251 365.5477600097656 -8.091104507446289 C 459.0389404296875 -16.94729423522949 504.3965454101563 -27.18562889099121 552.4172973632813 -38.0249137878418 C 584.4248657226563 -45.24991226196289 617.5220336914063 -52.72062683105469 666.689208984375 -60.11301040649414 C 693.246826171875 -64.10610198974609 721.9498901367188 -67.70586395263672 754.439208984375 -71.11801147460938 C 791.081298828125 -74.96633911132813 831.4201049804688 -78.46420288085938 877.7611083984375 -81.81110382080078 C 943.7096557617188 -86.57444000244141 1011.544189453125 -95.19776916503906 1085.14111328125 -108.1737213134766 C 1149.375366210938 -119.4991989135742 1209.800903320313 -132.6968231201172 1263.11328125 -144.3408660888672 C 1309.70703125 -154.5172882080078 1353.716796875 -164.1296691894531 1393.436279296875 -171.0439605712891 C 1414.604614257813 -174.7287292480469 1433.173217773438 -177.4168243408203 1450.203491210938 -179.2615814208984 C 1469.039428710938 -181.3018188476563 1485.768188476563 -182.2937164306641 1501.345825195313 -182.2937164306641 C 1533.473022460938 -182.2937164306641 1560.12890625 -177.9784851074219 1582.836547851563 -169.1018218994141 C 1619.989135742188 -154.5787200927734 1651.271606445313 -141.7746734619141 1678.471801757813 -129.958251953125 C 1703.653442382813 -119.0187225341797 1725.539184570313 -108.8308639526367 1745.379638671875 -98.81229400634766 C 1762.706787109375 -90.06277465820313 1778.7841796875 -81.30086517333984 1795.975341796875 -71.23825073242188 C 1811.50439453125 -62.14896011352539 1826.6494140625 -52.7518196105957 1842.683715820313 -42.80300903320313 C 1862.580322265625 -30.45790100097656 1885.126220703125 -16.46850204467773 1913.495849609375 0.1043035611510277 C 1913.634399414063 0.5438613295555115 1913.9287109375 2.617398738861084 1914.175659179688 11.9867525100708 C 1914.355346679688 18.80913352966309 1914.489624023438 28.58318138122559 1914.574951171875 41.03746795654297 C 1914.723754882813 62.7867546081543 1914.726806640625 92.55532073974609 1914.584228515625 129.5160369873047 C 1914.340209960938 192.7065277099609 1913.701049804688 263.56005859375 1913.364013671875 285.099365234375 C 1905.296508789063 288.6405944824219 1894.074340820313 290.29150390625 1878.100463867188 290.29150390625 C 1878.098510742188 290.29150390625 1878.098999023438 290.29150390625 1878.097045898438 290.29150390625 C 1862.162231445313 290.2910461425781 1843.093017578125 288.6836547851563 1821.0126953125 286.8222351074219 C 1791.229125976563 284.3115234375 1757.471557617188 281.4657897949219 1719.530883789063 281.4657897949219 C 1703.84228515625 281.4657897949219 1688.380859375 281.9736633300781 1673.576049804688 282.9753112792969 C 1656.997802734375 284.0969848632813 1640.541748046875 285.8829345703125 1624.665161132813 288.2839050292969 C 1607.281616210938 290.9124755859375 1589.976318359375 294.3705749511719 1573.229858398438 298.5615234375 C 1555.155395507813 303.0846252441406 1537.145874023438 308.6079406738281 1519.702270507813 314.9774780273438 C 1506.603515625 319.7605590820313 1491.895385742188 324.2322387695313 1475.98681640625 328.2681884765625 C 1460.76611328125 332.1296081542969 1443.921997070313 335.724853515625 1425.922729492188 338.9541320800781 C 1392.5517578125 344.9407958984375 1354.4873046875 349.8703308105469 1309.55419921875 354.0241394042969 C 1225.684448242188 361.7772216796875 1131.334838867188 365.5836486816406 1031.445556640625 369.6136474609375 C 959.07177734375 372.5334167480469 884.2339477539063 375.5527038574219 810.4393920898438 380.2481689453125 C 770.5889282226563 382.7836608886719 734.707763671875 385.5660400390625 700.74560546875 388.7543640136719 C 662.4544067382813 392.3489074707031 627.706298828125 396.3503112792969 594.51611328125 400.9872436523438 C 564.7922973632813 405.1398620605469 535.985107421875 408.273193359375 508.8951416015625 410.3000793457031 C 482.76513671875 412.2550964355469 457.3508605957031 413.2465209960938 433.3587036132813 413.2465209960938 Z"/>
      <path class="cls-5" d="M 1501.341796875 -181.7937164306641 C 1485.7822265625 -181.7937164306641 1469.07080078125 -180.8027801513672 1450.252319335938 -178.7644500732422 C 1433.232055664063 -176.9206390380859 1414.673217773438 -174.2339630126953 1393.514892578125 -170.5508575439453 C 1353.803955078125 -163.6382598876953 1309.797485351563 -154.0268096923828 1263.20751953125 -143.8508758544922 C 1209.890380859375 -132.2058563232422 1149.459716796875 -119.0073089599609 1085.21728515625 -107.6804046630859 C 1011.605590820313 -94.70182800292969 943.7579956054688 -86.07682800292969 877.7972412109375 -81.31254577636719 C 831.4617919921875 -77.96586608886719 791.1279296875 -74.46849060058594 754.4913330078125 -70.62062072753906 C 722.0096435546875 -67.20921325683594 693.313720703125 -63.61039733886719 666.763427734375 -59.61872863769531 C 617.6143798828125 -52.22895812988281 584.5263671875 -44.76014709472656 552.5272216796875 -37.53730773925781 C 504.4906005859375 -26.69419860839844 459.1180419921875 -16.45252990722656 365.5946044921875 -7.593490600585938 C 310.7796630859375 -2.400863647460938 259.8731689453125 0.1231842041015625 209.96630859375 0.1231842041015625 C 173.17919921875 0.1231842041015625 143.62255859375 -1.21038818359375 117.54541015625 -2.386825561523438 C 98.82275390625 -3.231582641601563 82.6531982421875 -3.961105346679688 68.1572265625 -3.961105346679688 C 56.0765380859375 -3.961105346679688 46.2979736328125 -3.459671020507813 37.3836669921875 -2.383010864257813 C 27.57373046875 -1.198013305664063 18.7972412109375 0.713653564453125 10.552978515625 3.461990356445313 C 10.255859375 3.56103515625 8.8543701171875 3.9986572265625 6.9149169921875 4.604843139648438 C 2.8089599609375 5.887603759765625 -4.411376953125 8.143722534179688 -6.6500244140625 8.911300659179688 C -6.0333251953125 45.11761474609375 -6.32568359375 86.50155639648438 -6.6353759765625 130.2965087890625 C -6.9644775390625 176.850830078125 -7.3046875 224.9828186035156 -6.6700439453125 274.4791564941406 C 17.5074462890625 286.0997924804688 40.5452880859375 297.9909057617188 62.83154296875 309.494140625 C 115.553466796875 336.7065124511719 165.3515625 362.4098510742188 223.5489501953125 381.4479370117188 C 238.525146484375 386.3469848632813 253.7784423828125 390.6936645507813 268.8856201171875 394.3670043945313 C 284.9835205078125 398.2812805175781 301.6072998046875 401.6007995605469 318.29541015625 404.2333984375 C 335.8748779296875 407.0065307617188 354.207763671875 409.1255493164063 372.78466796875 410.531982421875 C 392.1949462890625 412.0015258789063 412.574951171875 412.7465209960938 433.3585205078125 412.7465209960938 C 457.3382568359375 412.7465209960938 482.7398681640625 411.7555541992188 508.8575439453125 409.801513671875 C 535.93701171875 407.7753295898438 564.7335205078125 404.6431884765625 594.44677734375 400.4920043945313 C 627.6446533203125 395.8541259765625 662.39990234375 391.8517456054688 700.69873046875 388.2565307617188 C 734.6661376953125 385.0676879882813 770.552001953125 382.2848510742188 810.407470703125 379.7491455078125 C 884.2080078125 375.0534057617188 959.0487060546875 372.0341186523438 1031.425537109375 369.1141357421875 C 1131.307983398438 365.0843505859375 1225.6513671875 361.2781982421875 1309.50830078125 353.5260314941406 C 1354.427001953125 349.3736572265625 1392.477783203125 344.446044921875 1425.83447265625 338.4619750976563 C 1443.822265625 335.23486328125 1460.654663085938 331.6422119140625 1475.864013671875 327.7836608886719 C 1491.756103515625 323.7517700195313 1506.44775390625 319.2850952148438 1519.530639648438 314.5079345703125 C 1536.990600585938 308.1322326660156 1555.016845703125 302.6041259765625 1573.1083984375 298.0765075683594 C 1589.869873046875 293.8819885253906 1607.19091796875 290.4212646484375 1624.59033203125 287.7901000976563 C 1640.480102539063 285.387451171875 1656.949951171875 283.599853515625 1673.54248046875 282.4772338867188 C 1688.357543945313 281.474609375 1703.830078125 280.9660339355469 1719.531127929688 280.965576171875 C 1757.493896484375 280.96435546875 1791.26318359375 283.8115234375 1821.057250976563 286.3236694335938 C 1843.125366210938 288.1843872070313 1862.183959960938 289.791259765625 1878.097290039063 289.791259765625 C 1893.810546875 289.791259765625 1904.888671875 288.19384765625 1912.869262695313 284.7690124511719 C 1913.205200195313 262.9994201660156 1913.8369140625 192.88037109375 1914.081298828125 130.2134094238281 C 1914.22509765625 93.37603759765625 1914.224609375 63.63151550292969 1914.080078125 41.80580139160156 C 1913.997314453125 29.31246948242188 1913.866088867188 19.465087890625 1913.689697265625 12.5369873046875 C 1913.4638671875 3.664154052734375 1913.200805664063 1.139205932617188 1913.058959960938 0.428314208984375 C 1884.771728515625 -16.10025024414063 1862.275634765625 -30.05839538574219 1842.420166015625 -42.37800598144531 C 1826.388671875 -52.32514953613281 1811.246337890625 -61.72062683105469 1795.723022460938 -70.80680847167969 C 1778.540649414063 -80.86396789550781 1762.472045898438 -89.62110900878906 1745.154174804688 -98.36585998535156 C 1725.322509765625 -108.3801422119141 1703.445068359375 -118.5639495849609 1678.2724609375 -129.4996795654297 C 1651.078002929688 -141.3134918212891 1619.801025390625 -154.1151580810547 1582.654418945313 -168.6360931396484 C 1560.0068359375 -177.4894256591797 1533.41064453125 -181.7932586669922 1501.345581054688 -181.7937164306641 L 1501.341796875 -181.7937164306641 M 1501.345703125 -182.7936248779297 C 1531.945068359375 -182.7932891845703 1559.177978515625 -178.8870086669922 1583.018432617188 -169.5675201416016 C 1782.280883789063 -91.67420959472656 1793.558959960938 -70.53062438964844 1913.85888671875 -0.2625274658203125 C 1916.49755859375 1.278656005859375 1914.503662109375 244.8124694824219 1913.85888671875 285.4267578125 C 1905.050415039063 289.3800964355469 1892.996704101563 290.7913818359375 1878.097412109375 290.7913818359375 C 1840.846435546875 290.7913818359375 1785.863403320313 281.9634094238281 1719.53125 281.9656677246094 C 1660.4599609375 281.9676818847656 1592.378540039063 288.9718322753906 1519.873779296875 315.4472351074219 C 1333.387451171875 383.5434265136719 921.7236938476563 355.7793579101563 594.5850830078125 401.4824829101563 C 533.8057861328125 409.9736938476563 480.6988525390625 413.7464599609375 433.3585205078125 413.7464599609375 C 225.89453125 413.7464599609375 129.950927734375 341.1829223632813 -7.6619873046875 275.1119995117188 C -8.92919921875 177.5200805664063 -6.3724365234375 82.35484313964844 -7.6619873046875 8.21722412109375 C -6.4334716796875 7.687225341796875 9.19873046875 2.859130859375 10.23681640625 2.51318359375 C 27.451171875 -3.224929809570313 45.7877197265625 -4.961181640625 68.1573486328125 -4.961181640625 C 102.46484375 -4.961181640625 146.2286376953125 -0.876922607421875 209.9664306640625 -0.876922607421875 C 252.0833740234375 -0.876922607421875 302.937255859375 -2.6624755859375 365.5003662109375 -8.588958740234375 C 584.478271484375 -29.33206176757813 540.647705078125 -57.96348571777344 877.72509765625 -82.30992126464844 C 1153.966552734375 -102.2622833251953 1362.401123046875 -182.7951202392578 1501.345703125 -182.7936248779297 Z"/>
    </g>
  </g>
</svg>
