<svg xmlns="http://www.w3.org/2000/svg" xmlns:xlink="http://www.w3.org/1999/xlink" width="1925" height="320" viewBox="0 0 1925 320">
  <defs>
    <clipPath id="clip-path">
      <rect id="Rectangle_28" data-name="Rectangle 28" width="1925" height="320" transform="translate(-3 -1)" fill="#fff" stroke="#707070" stroke-width="1"/>
    </clipPath>
  </defs>
  <g id="Mask_Group_2" data-name="Mask Group 2" transform="translate(3 1)" clip-path="url(#clip-path)">
    <g id="Path_179" data-name="Path 179" transform="translate(8 200)" fill="#ff6464">
      <path d="M 433.3586120605469 413.2465209960938 C 412.5624084472656 413.2465209960938 392.1695556640625 412.5007934570313 372.7469482421875 411.0305480957031 C 354.1567077636719 409.6231689453125 335.8102722167969 407.5022277832031 318.2176513671875 404.7272338867188 C 301.5157470703125 402.0924682617188 284.8783569335938 398.7703247070313 268.7676696777344 394.8529357910156 C 253.6478881835938 391.176513671875 238.3819427490234 386.8262634277344 223.3936157226563 381.9231872558594 C 165.1578979492188 362.8727111816406 115.342414855957 337.1603393554688 62.60218048095703 309.9381713867188 C 40.23423385620117 298.3929748535156 17.10607147216797 286.4552917480469 -7.165878772735596 274.7955322265625 C -7.747758865356445 229.7019195556641 -7.513354301452637 184.8844299316406 -7.223296642303467 142.8341369628906 C -7.19448709487915 138.6691284179688 -7.165201187133789 134.5281829833984 -7.136153697967529 130.4124603271484 C -6.825020790100098 86.41572570800781 -6.531198024749756 44.84848785400391 -7.155799865722656 8.559255599975586 C -5.357412338256836 7.915510654449463 2.434633493423462 5.480876922607422 6.766703605651855 4.1272292137146 C 8.703131675720215 3.522229194641113 10.10241794586182 3.085086345672607 10.3950366973877 2.987467288970947 C 18.67170333862305 0.2286576777696609 27.48027420043945 -1.69038999080658 37.32384490966797 -2.879437446594238 C 46.25860977172852 -3.958485126495361 56.05598831176758 -4.461104393005371 68.15741729736328 -4.461104393005371 C 82.66289520263672 -4.461104393005371 98.83551025390625 -3.731342315673828 117.5617065429688 -2.886342287063599 C 143.6352691650391 -1.709913730621338 173.1874237060547 -0.3763423264026642 209.9664611816406 -0.3768185079097748 C 259.867431640625 -0.3777709007263184 310.7583618164063 -2.901104211807251 365.5476684570313 -8.091104507446289 C 459.0388488769531 -16.94729423522949 504.3964538574219 -27.18562889099121 552.4171752929688 -38.0249137878418 C 584.4248046875 -45.24991226196289 617.5221557617188 -52.72062683105469 666.6893310546875 -60.11301040649414 C 693.2467041015625 -64.10610198974609 721.9500122070313 -67.70586395263672 754.4393310546875 -71.11801147460938 C 791.0814819335938 -74.96633911132813 831.4202880859375 -78.46420288085938 877.76123046875 -81.81110382080078 C 943.7097778320313 -86.57444000244141 1011.544311523438 -95.19776916503906 1085.141235351563 -108.173957824707 C 1149.37548828125 -119.4991989135742 1209.801025390625 -132.6968231201172 1263.113403320313 -144.3408660888672 C 1309.707153320313 -154.5175323486328 1353.716674804688 -164.1296691894531 1393.4365234375 -171.0439605712891 C 1414.604614257813 -174.7287292480469 1433.173095703125 -177.4168243408203 1450.20361328125 -179.2615814208984 C 1469.039306640625 -181.3018188476563 1485.768188476563 -182.2937164306641 1501.345703125 -182.2937164306641 C 1533.472900390625 -182.2937164306641 1560.12890625 -177.9784851074219 1582.83642578125 -169.1018218994141 C 1619.989135742188 -154.5784912109375 1651.271728515625 -141.7746734619141 1678.4716796875 -129.958251953125 C 1703.653564453125 -119.0187225341797 1725.539306640625 -108.8306274414063 1745.379760742188 -98.81205749511719 C 1762.707153320313 -90.06277465820313 1778.784301757813 -81.30086517333984 1795.975708007813 -71.23825073242188 C 1811.504516601563 -62.14872360229492 1826.649780273438 -52.75157928466797 1842.68408203125 -42.80277252197266 C 1862.580688476563 -30.45766258239746 1885.126586914063 -16.46850395202637 1913.495971679688 0.104301705956459 C 1913.637939453125 0.5545367002487183 1913.940307617188 2.709647655487061 1914.190307617188 12.55508613586426 C 1914.371704101563 19.69270515441895 1914.505249023438 29.91389656066895 1914.58740234375 42.93508529663086 C 1914.73046875 65.58699035644531 1914.722412109375 96.46770477294922 1914.563354492188 134.7196044921875 C 1914.30322265625 197.2440643310547 1913.692016601563 264.1591796875 1913.364135742188 285.099365234375 C 1905.296630859375 288.6405944824219 1894.074462890625 290.29150390625 1878.1005859375 290.29150390625 C 1878.0986328125 290.29150390625 1878.09912109375 290.29150390625 1878.09716796875 290.29150390625 C 1862.162231445313 290.2910461425781 1843.092895507813 288.6836547851563 1821.0126953125 286.8222351074219 C 1791.229125976563 284.3115234375 1757.471435546875 281.4657897949219 1719.531005859375 281.4657897949219 C 1703.842163085938 281.4657897949219 1688.380737304688 281.9736633300781 1673.576049804688 282.9753112792969 C 1656.997680664063 284.0969848632813 1640.541748046875 285.8829345703125 1624.665283203125 288.2839050292969 C 1607.28173828125 290.9124755859375 1589.976440429688 294.3705749511719 1573.22998046875 298.5615234375 C 1555.1552734375 303.0846252441406 1537.14599609375 308.6079406738281 1519.702392578125 314.9774780273438 C 1506.603637695313 319.7605590820313 1491.8955078125 324.2322387695313 1475.986938476563 328.2681884765625 C 1460.766235351563 332.1296081542969 1443.922119140625 335.724853515625 1425.9228515625 338.9541320800781 C 1392.552001953125 344.9407958984375 1354.487426757813 349.8703308105469 1309.554321289063 354.0241394042969 C 1225.6845703125 361.7772216796875 1131.335083007813 365.5836486816406 1031.44580078125 369.6136474609375 C 959.0719604492188 372.5334167480469 884.2340698242188 375.5527038574219 810.4393310546875 380.2481689453125 C 770.589111328125 382.7836608886719 734.7078857421875 385.5660400390625 700.7454833984375 388.7543640136719 C 662.454345703125 392.3489074707031 627.7062377929688 396.3503112792969 594.5159912109375 400.9872436523438 C 564.7921752929688 405.1398620605469 535.9850463867188 408.273193359375 508.8950500488281 410.3000793457031 C 482.7650451660156 412.2550964355469 457.3507385253906 413.2465209960938 433.3586120605469 413.2465209960938 Z" stroke="none"/>
      <path d="M 1501.341918945313 -181.7937164306641 C 1485.782470703125 -181.7937164306641 1469.07080078125 -180.8027801513672 1450.252197265625 -178.7644500732422 C 1433.232177734375 -176.9206390380859 1414.673095703125 -174.2339630126953 1393.514770507813 -170.5508575439453 C 1353.803833007813 -163.6382598876953 1309.797607421875 -154.0268096923828 1263.207397460938 -143.8508758544922 C 1209.890502929688 -132.2058563232422 1149.459716796875 -119.0073089599609 1085.217163085938 -107.6804046630859 C 1011.605773925781 -94.70182800292969 943.7581176757813 -86.07682800292969 877.79736328125 -81.31254577636719 C 831.4619140625 -77.96586608886719 791.128173828125 -74.46849060058594 754.491455078125 -70.62062072753906 C 722.009765625 -67.20921325683594 693.3135986328125 -63.61039733886719 666.7635498046875 -59.61872863769531 C 617.614501953125 -52.22895812988281 584.5262451171875 -44.76014709472656 552.5274658203125 -37.53730773925781 C 504.490478515625 -26.69419860839844 459.117919921875 -16.45252990722656 365.5948486328125 -7.593490600585938 C 310.77978515625 -2.400863647460938 259.8734130859375 0.1231842041015625 209.9664306640625 0.1231842041015625 C 173.1790771484375 0.1231842041015625 143.6224365234375 -1.21038818359375 117.5452880859375 -2.386825561523438 C 98.8226318359375 -3.231582641601563 82.653076171875 -3.961105346679688 68.1572265625 -3.961105346679688 C 56.076416015625 -3.961105346679688 46.2978515625 -3.459671020507813 37.3836669921875 -2.383010864257813 C 27.5736083984375 -1.198013305664063 18.797119140625 0.713653564453125 10.5528564453125 3.461990356445313 C 10.2557373046875 3.560806274414063 8.8548583984375 3.9986572265625 6.916015625 4.6043701171875 C 2.809814453125 5.887344360351563 -4.4110107421875 8.14349365234375 -6.64990234375 8.911224365234375 C -6.0333251953125 45.10731506347656 -6.3260498046875 86.52967834472656 -6.6358642578125 130.3655700683594 C -6.6651611328125 134.4977111816406 -6.6944580078125 138.6555633544922 -6.7232666015625 142.8377075195313 C -7.0126953125 184.7876434326172 -7.24658203125 229.4963836669922 -6.669921875 274.4791870117188 C 17.507568359375 286.1000061035156 40.54541015625 297.9909057617188 62.8316650390625 309.494140625 C 115.5535888671875 336.7067565917969 165.3516845703125 362.4100952148438 223.549072265625 381.4479370117188 C 238.5252685546875 386.3469848632813 253.778564453125 390.6936645507813 268.8857421875 394.3670043945313 C 284.9833984375 398.2812805175781 301.607421875 401.6007995605469 318.2955322265625 404.2333984375 C 335.875 407.0065307617188 354.2078857421875 409.1255493164063 372.7847900390625 410.531982421875 C 392.195068359375 412.0015258789063 412.5750732421875 412.7465209960938 433.358642578125 412.7465209960938 C 457.33837890625 412.7465209960938 482.73974609375 411.7555541992188 508.857666015625 409.801513671875 C 535.9368896484375 407.7753295898438 564.7333984375 404.6431884765625 594.4468994140625 400.4920043945313 C 627.644775390625 395.8541259765625 662.4000244140625 391.8517456054688 700.6988525390625 388.2565307617188 C 734.666259765625 385.0676879882813 770.5521240234375 382.2848510742188 810.40771484375 379.7491455078125 C 884.2081298828125 375.0534057617188 959.048828125 372.0341186523438 1031.425537109375 369.1141357421875 C 1131.30810546875 365.0843505859375 1225.651489257813 361.2781982421875 1309.508056640625 353.5260314941406 C 1354.427001953125 349.3736572265625 1392.477661132813 344.446044921875 1425.834594726563 338.4619750976563 C 1443.822387695313 335.23486328125 1460.65478515625 331.6422119140625 1475.864013671875 327.7836608886719 C 1491.756225585938 323.7517700195313 1506.447875976563 319.2850952148438 1519.53076171875 314.5079345703125 C 1536.99072265625 308.1322326660156 1555.016967773438 302.6041259765625 1573.108642578125 298.0765075683594 C 1589.869995117188 293.8819885253906 1607.19091796875 290.4212646484375 1624.590576171875 287.7901000976563 C 1640.480224609375 285.387451171875 1656.950073242188 283.599853515625 1673.542602539063 282.4772338867188 C 1688.357666015625 281.474609375 1703.830322265625 280.9660339355469 1719.53125 280.965576171875 C 1757.493896484375 280.96435546875 1791.262939453125 283.8115234375 1821.056884765625 286.3236694335938 C 1843.125244140625 288.1843872070313 1862.18408203125 289.791259765625 1878.097412109375 289.791259765625 C 1893.810668945313 289.791259765625 1904.888793945313 288.19384765625 1912.869384765625 284.7690124511719 C 1913.198486328125 263.4507446289063 1913.804565429688 196.8870849609375 1914.063110351563 134.7177124023438 C 1914.220947265625 96.76866149902344 1914.230224609375 66.06388854980469 1914.090698242188 43.45628356933594 C 1914.010498046875 30.47366333007813 1913.879760742188 20.2391357421875 1913.7021484375 13.0369873046875 C 1913.4736328125 3.76409912109375 1913.203979492188 1.154190063476563 1913.059204101563 0.428314208984375 C 1884.771606445313 -16.10023498535156 1862.275268554688 -30.05863952636719 1842.419799804688 -42.37825012207031 C 1826.388427734375 -52.32539367675781 1811.245971679688 -61.72062683105469 1795.72265625 -70.80705261230469 C 1778.54052734375 -80.86421203613281 1762.471923828125 -89.62135314941406 1745.154052734375 -98.36610412597656 C 1725.322143554688 -108.3801422119141 1703.445068359375 -118.5641937255859 1678.2724609375 -129.4996795654297 C 1651.077880859375 -141.3134918212891 1619.80126953125 -154.1151580810547 1582.654541015625 -168.6360931396484 C 1560.006958007813 -177.4894256591797 1533.410766601563 -181.7932586669922 1501.345703125 -181.7937164306641 L 1501.341918945313 -181.7937164306641 M 1501.345703125 -182.7936248779297 C 1531.945190429688 -182.7932891845703 1559.178100585938 -178.8870086669922 1583.0185546875 -169.5675201416016 C 1782.28076171875 -91.67420959472656 1793.558837890625 -70.53062438964844 1913.859130859375 -0.2625274658203125 C 1915.22314453125 0.5341339111328125 1915.34912109375 66.01365661621094 1915.063110351563 134.7217559814453 C 1914.796508789063 198.8553161621094 1914.170288085938 265.8100891113281 1913.859130859375 285.4267578125 C 1905.050537109375 289.3800964355469 1892.996826171875 290.7913818359375 1878.097412109375 290.7913818359375 C 1840.846557617188 290.7913818359375 1785.863525390625 281.9634094238281 1719.53125 281.9656677246094 C 1660.460083007813 281.9676818847656 1592.378662109375 288.9718322753906 1519.873779296875 315.4472351074219 C 1333.387451171875 383.5434265136719 921.7238159179688 355.7793579101563 594.5853271484375 401.4824829101563 C 533.805908203125 409.9736938476563 480.6988525390625 413.7464599609375 433.3585205078125 413.7464599609375 C 225.8944091796875 413.7464599609375 129.950927734375 341.1829223632813 -7.661865234375 275.1119995117188 C -8.25 229.8291320800781 -8.0147705078125 185.0684204101563 -7.7232666015625 142.830810546875 C -7.384765625 93.73318481445313 -6.970703125 47.95460510253906 -7.661865234375 8.21722412109375 C -6.43359375 7.687225341796875 9.1986083984375 2.859130859375 10.2366943359375 2.51318359375 C 27.4510498046875 -3.224929809570313 45.7877197265625 -4.961181640625 68.1573486328125 -4.961181640625 C 102.46484375 -4.961181640625 146.2286376953125 -0.876922607421875 209.9664306640625 -0.876922607421875 C 252.08349609375 -0.876922607421875 302.9373779296875 -2.6624755859375 365.50048828125 -8.588958740234375 C 584.4781494140625 -29.33206176757813 540.64794921875 -57.96348571777344 877.7252197265625 -82.30992126464844 C 1153.966552734375 -102.2622833251953 1362.401123046875 -182.7951202392578 1501.345703125 -182.7936248779297 Z" stroke="none" fill="#ff6464"/>
    </g>
  </g>
</svg>
