<svg xmlns="http://www.w3.org/2000/svg" width="785.174" height="644.221" viewBox="0 0 785.174 644.221">
  <g id="welcome" transform="translate(-145.508 -59.4)">
    <g id="background" transform="translate(145.508 59.4)">
      <g id="details">
        <circle id="Ellipse_1" data-name="Ellipse 1" cx="9.98" cy="9.98" r="9.98" transform="translate(533.397 125.881)" fill="#ec615b"/>
        <circle id="Ellipse_2" data-name="Ellipse 2" cx="4.653" cy="4.653" r="4.653" transform="translate(549.315 108.86)" fill="#ec615b"/>
        <circle id="Ellipse_3" data-name="Ellipse 3" cx="4.776" cy="4.776" r="4.776" transform="translate(244.103 48.062)" fill="#ec615b"/>
        <circle id="Ellipse_4" data-name="Ellipse 4" cx="8.082" cy="8.082" r="8.082" transform="translate(553.295 600.383)" fill="#ec615b"/>
        <circle id="Ellipse_5" data-name="Ellipse 5" cx="3.735" cy="3.735" r="3.735" transform="translate(189.857 636.751)" fill="#ec615b"/>
        <circle id="Ellipse_6" data-name="Ellipse 6" cx="3.857" cy="3.857" r="3.857" transform="translate(236.389 360.622)" fill="#ec615b"/>
        <circle id="Ellipse_7" data-name="Ellipse 7" cx="3.735" cy="3.735" r="3.735" transform="translate(244.103 380.52)" fill="#5222d0"/>
        <circle id="Ellipse_8" data-name="Ellipse 8" cx="6.98" cy="6.98" r="6.98" transform="translate(236.389 478.114)" fill="#5222d0"/>
        <circle id="Ellipse_9" data-name="Ellipse 9" cx="4.408" cy="4.408" r="4.408" transform="translate(533.397 86.574)" fill="#5222d0"/>
        <circle id="Ellipse_10" data-name="Ellipse 10" cx="3.857" cy="3.857" r="3.857" transform="translate(366.25 95.39)" fill="#5222d0"/>
        <circle id="Ellipse_11" data-name="Ellipse 11" cx="2.939" cy="2.939" r="2.939" transform="translate(23.261 398.949)" fill="#5222d0"/>
        <circle id="Ellipse_12" data-name="Ellipse 12" cx="7.347" cy="7.347" r="7.347" transform="translate(543.805 622.057)" fill="#5222d0"/>
        <circle id="Ellipse_13" data-name="Ellipse 13" cx="3.857" cy="3.857" r="3.857" transform="translate(625.97)" fill="#5222d0"/>
        <g id="Group_4" data-name="Group 4" transform="translate(252.807 145.6)">
          <g id="Group_3" data-name="Group 3">
            <path id="Path_1" data-name="Path 1" d="M560.671,328.857c-.612-3.8-1.163-11.388,4.9-10.776,2.2.245,3.429,2.2,5.878,1.347,4.592-1.592,3.551-7.531,5.449-10.959,3.122-5.51,9.184,2.51,13.837-.122,1.531-.857,1.9-2.449,1.837-4.1-.122-6.184,5.327-5.755,9.8-4.531a.921.921,0,0,0,.49-1.776c-4.531-1.225-12.062-1.653-12.245,4.9-.061,1.592.8,3.184-1.531,4.163a4.815,4.815,0,0,1-2.633-.245c-1.592-.49-3-1.592-4.653-2.021a5.239,5.239,0,0,0-5.694,1.531c-1.837,2.2-1.775,5.2-2.633,7.776-.918,2.755-2.694,4.347-5.694,3a6.605,6.605,0,0,0-3.735-.857c-6.306.857-6,8.51-5.2,13.164.245,1.163,2.021.673,1.837-.49Z" transform="translate(-558.415 -297.207)" fill="#5222d0"/>
          </g>
        </g>
        <g id="Group_6" data-name="Group 6" transform="translate(260.438 153.669)">
          <g id="Group_5" data-name="Group 5">
            <path id="Path_2" data-name="Path 2" d="M572.729,337.517c.49-3.8,3.551-5.449,7.1-5.449,1.9,0,3.8.306,5.633-.367,4.163-1.592,3.367-6.123,4.347-9.674,1.837-6.735,10.347-2.572,15.062-3.674,3.184-.8,5.878-3.98,4.531-7.347-.428-1.1-2.2-.612-1.776.49,2.082,5.082-5.021,5.388-8.021,5.021-2.2-.245-4.347-.612-6.551-.061-3.49.918-4.837,3.49-5.327,6.8-.429,3.061-.367,6.429-4.347,6.919-2.143.245-4.286-.367-6.429.122a8.03,8.03,0,0,0-6.061,7.1c-.184,1.286,1.653,1.286,1.837.122Z" transform="translate(-570.879 -310.385)" fill="#5222d0"/>
          </g>
        </g>
        <g id="Group_8" data-name="Group 8" transform="translate(385.152 30.121)">
          <g id="Group_7" data-name="Group 7">
            <path id="Path_3" data-name="Path 3" d="M778.2,108.9c-2.143,2.694-4.408,6-3.367,9.613.857,2.939,3.184,4.041,6,3.857,1.653-.122,3.367-.551,4.714.918,1.041,1.1.367,3.429.061,4.653-.49,1.9-1.408,3.735-1.224,5.755.306,2.755,2.51,4.9,5.327,4.286,1.163-.245.673-2.02-.49-1.776-5.327,1.225-1.653-7.653-1.408-9.8a5.978,5.978,0,0,0-1.469-5.021c-1.347-1.286-3-1.163-4.714-.98-2.694.306-5.2-.551-5.327-3.8-.061-2.449,1.653-4.653,3.123-6.49.857-.8-.49-2.143-1.225-1.225Z" transform="translate(-774.574 -108.596)" fill="#5222d0"/>
          </g>
        </g>
        <g id="Group_10" data-name="Group 10" transform="translate(399.088 29.436)">
          <g id="Group_9" data-name="Group 9">
            <path id="Path_4" data-name="Path 4" d="M801.477,107.553a6.233,6.233,0,0,0-1.531,10.959c1.469,1.1,3.184.857,4.653,1.776,2.755,1.653.551,4.9.673,7.47A3.893,3.893,0,0,0,806.742,131a2.968,2.968,0,0,0,4.776-1.225c.367-1.1-1.408-1.592-1.776-.49-2.327-.306-3.123-1.347-2.449-3.123l.367-1.837a9.341,9.341,0,0,0,.184-1.837,4.792,4.792,0,0,0-1.347-3.551c-1.469-1.347-3.735-.8-5.327-1.9-3.245-2.265-2.082-6.551,1.224-7.959,1.1-.429.123-1.959-.918-1.531Z" transform="translate(-797.335 -107.478)" fill="#5222d0"/>
          </g>
        </g>
        <g id="Group_12" data-name="Group 12" transform="translate(0 356.161)">
          <g id="Group_11" data-name="Group 11">
            <path id="Path_5" data-name="Path 5" d="M148.381,676.372a6.6,6.6,0,0,1,0-7.164c1.408-2.2,3.367-2.265,5.633-3.122,3.122-1.286,3.184-4.531,3-7.47a9.31,9.31,0,0,1,.184-3.184c.8-2.449,2.878-1.776,4.776-1.47a4.132,4.132,0,0,0,3.061-.612A6.3,6.3,0,0,0,167.3,649.8c.306-1.1.367-2.266.612-3.368a6.688,6.688,0,0,1,.735-2.2c.98-1.531,2.143-1.653,3.551-.306a.921.921,0,0,0,1.776-.49c-1.1-3.98-6-2.2-7.225.612a22.729,22.729,0,0,0-.918,4.041,8.3,8.3,0,0,1-.735,2.388c-.918,1.653-2.633,1.347-4.225,1.163-1.9-.184-3.367-.367-4.592,1.408-1.408,2.02-1.041,4.408-1.041,6.735.061,2.816-.551,3.918-3.306,4.837a9.272,9.272,0,0,0-3,1.286,8.528,8.528,0,0,0-2.143,11.327c.612,1.041,2.2.123,1.592-.857Z" transform="translate(-145.508 -641.114)" fill="#ec615b"/>
          </g>
        </g>
        <g id="Group_14" data-name="Group 14" transform="translate(7.091 365.463)">
          <g id="Group_13" data-name="Group 13">
            <path id="Path_6" data-name="Path 6" d="M160.525,686.488c-2.572-.367-1.592-3.184-.429-4.286a13.111,13.111,0,0,1,3.123-1.837,11.239,11.239,0,0,0,3.674-2.633c2.633-3.306-1.163-7.714,2.51-10.347,3.674-2.572,13.531-3.735,10.653-10.592-.429-1.1-2.02-.123-1.592.918,2.082,4.959-8.021,6.429-10.592,8.51a6.159,6.159,0,0,0-2.082,2.878c-.735,2.572,1.408,5.2-.49,7.653-2.2,2.694-6.919,2.694-8.021,6.49a3.882,3.882,0,0,0,2.816,5.082c1.1.122,1.592-1.653.429-1.837Z" transform="translate(-157.09 -656.308)" fill="#ec615b"/>
          </g>
        </g>
        <g id="Group_16" data-name="Group 16" transform="translate(679.305 226.324)">
          <g id="Group_15" data-name="Group 15">
            <path id="Path_7" data-name="Path 7" d="M1257.392,456.083a4.018,4.018,0,0,1,.184-4.286c1.347-1.959,2.939-1.531,5.02-1.347,1.408.122,2.694.429,4.041-.367,2.388-1.469,2.021-4.531,2.449-6.857.979-5.449,5.694-.49,8.878-2.2a3.946,3.946,0,0,0,1.837-3c.429-2.388.551-9.49,5.143-6.612.98.612,1.959-.98.918-1.592-4.1-2.51-7.408,1.653-7.776,5.51-.245,2.2,0,4.347-2.939,4.041-1.041-.122-2.082-.673-3.122-.8a3.929,3.929,0,0,0-4.041,1.776c-1.041,1.714-.673,3.857-1.1,5.694-.918,4.163-4.469,1.837-7.347,2.327-3.857.673-5.633,5.327-3.8,8.572a.931.931,0,0,0,1.653-.857Z" transform="translate(-1255.011 -429.053)" fill="#ec615b"/>
          </g>
        </g>
        <g id="Group_18" data-name="Group 18" transform="translate(688.801 234.487)">
          <g id="Group_17" data-name="Group 17" transform="translate(0)">
            <path id="Path_8" data-name="Path 8" d="M1272.528,465.109c-1.041-2.816,2.2-5.939,5.021-4.47a.911.911,0,0,0,1.1-.122c1.408-1.531,1.776-3.306,2.388-5.265,1.1-3.551,3.735-4.041,6.919-5.021,3.123-.98,6.613-3.551,5.327-7.225-.428-1.1-2.2-.612-1.775.49,1.775,4.837-6.919,5.2-9.49,6.98-3.123,2.2-2.2,6.184-4.592,8.755a6.741,6.741,0,0,1,1.1-.122c-4.1-2.143-9.306,2.082-7.715,6.551.367,1.041,2.143.612,1.714-.551Z" transform="translate(-1270.52 -442.385)" fill="#ec615b"/>
          </g>
        </g>
        <g id="Group_20" data-name="Group 20" transform="translate(442.375 271.358)">
          <g id="Group_19" data-name="Group 19">
            <path id="Path_9" data-name="Path 9" d="M869.177,504.5c.122,0,1.469,3.306,2.02,3.735a3.566,3.566,0,0,0,2.939.551c1.837-.306,3-1.653,4.592-2.51,3.429-1.959,3.429,1.408,4.776,3.306,1.531,2.265,3.184,1.163,4.959.061,1.163-.735,2.265-1.225,3.306-.184a12.672,12.672,0,0,1,1.347,2.143,5.978,5.978,0,0,0,2.51,2.266c1.041.49,2.02-1.1.918-1.592-2.51-1.1-2.816-5.266-5.817-5.694-1.408-.184-2.021.612-3.122,1.225-1.347.8-2.143,1.347-3-.184-.367-.612-.429-1.469-.857-2.082-1.959-3.245-5.02-1.469-7.47.123a10.078,10.078,0,0,1-1.347.857c-1.041-.306-2.143-.612-3.184-.918-.429-.429-.429-1.469-.8-2.02a1.931,1.931,0,0,0-2.2-.918c-1.224.245-.735,2.02.429,1.837Z" transform="translate(-868.035 -502.606)" fill="#ec615b"/>
          </g>
        </g>
        <g id="Group_22" data-name="Group 22" transform="translate(456.185 264.878)">
          <g id="Group_21" data-name="Group 21">
            <path id="Path_10" data-name="Path 10" d="M892.311,494.519c1.837-2.878,6.061,3.123,7.776,3.857a4.557,4.557,0,0,0,3.122.122,8.863,8.863,0,0,0,1.347-.551,3.981,3.981,0,0,1,4.408.918c1.959,1.653,2.51,3.857,5.327,4.47a3.224,3.224,0,0,0,3.919-1.714c.49-1.041-1.1-2.02-1.592-.918-1.714,3.674-6.429-3.551-7.653-4.347-2.265-1.469-3.674-.245-5.939.245-3.612.735-4.776-3.306-7.776-4.286-1.776-.612-3.49-.306-4.469,1.347-.735.98.857,1.9,1.531.857Z" transform="translate(-890.591 -492.023)" fill="#ec615b"/>
          </g>
        </g>
      </g>
      <g id="background_grey" transform="translate(5.857 33.078)">
        <g id="Group_24" data-name="Group 24" transform="translate(679.977 339.482)">
          <g id="Group_23" data-name="Group 23">
            <path id="Path_11" data-name="Path 11" d="M1266.547,669.737h97.595a.92.92,0,0,0,0-1.837h-97.595a.92.92,0,0,0,0,1.837Z" transform="translate(-1265.675 -667.9)" fill="#6d6d6d"/>
          </g>
        </g>
        <g id="Group_26" data-name="Group 26" transform="translate(707.483 340.018)">
          <g id="Group_25" data-name="Group 25">
            <path id="Path_12" data-name="Path 12" d="M1310.6,669.647v28.409a.919.919,0,0,0,1.837,0V669.647a.919.919,0,0,0-1.837,0Z" transform="translate(-1310.6 -668.775)" fill="#6d6d6d"/>
          </g>
        </g>
        <g id="Group_28" data-name="Group 28" transform="translate(751.076 299.425)">
          <g id="Group_27" data-name="Group 27">
            <path id="Path_13" data-name="Path 13" d="M1383.637,643.022V603.347a.92.92,0,0,0-1.837,0v39.675a.918.918,0,0,0,1.837,0Z" transform="translate(-1381.8 -602.475)" fill="#6d6d6d"/>
          </g>
        </g>
        <g id="Group_30" data-name="Group 30" transform="translate(730.427 299.195)">
          <g id="Group_29" data-name="Group 29">
            <path id="Path_14" data-name="Path 14" d="M1348.948,603.937h36.919a.92.92,0,0,0,0-1.837h-36.919a.92.92,0,0,0,0,1.837Z" transform="translate(-1348.075 -602.1)" fill="#6d6d6d"/>
          </g>
        </g>
        <g id="Group_32" data-name="Group 32" transform="translate(707.115 79.685)">
          <g id="Group_31" data-name="Group 31">
            <path id="Path_15" data-name="Path 15" d="M1310,244.447v34.287a.92.92,0,0,0,1.837,0V244.447a.92.92,0,0,0-1.837,0Z" transform="translate(-1310 -243.575)" fill="#6d6d6d"/>
          </g>
        </g>
        <g id="Group_34" data-name="Group 34" transform="translate(677.604 115.64)">
          <g id="Group_33" data-name="Group 33">
            <path id="Path_16" data-name="Path 16" d="M1262.718,304.137h66.246a.92.92,0,0,0,0-1.837h-66.246a.918.918,0,0,0,0,1.837Z" transform="translate(-1261.8 -302.3)" fill="#6d6d6d"/>
          </g>
        </g>
        <g id="Group_36" data-name="Group 36" transform="translate(744.157 116.359)">
          <g id="Group_35" data-name="Group 35">
            <path id="Path_17" data-name="Path 17" d="M1370.5,304.347v22.776a.92.92,0,0,0,1.837,0V304.347a.92.92,0,0,0-1.837,0Z" transform="translate(-1370.5 -303.475)" fill="#6d6d6d"/>
          </g>
        </g>
        <g id="Group_38" data-name="Group 38" transform="translate(128.368 43.026)">
          <g id="Group_37" data-name="Group 37">
            <path id="Path_18" data-name="Path 18" d="M365.633,185.537h64.9a.92.92,0,0,0,0-1.837h-64.9a.919.919,0,0,0,0,1.837Z" transform="translate(-364.737 -183.7)" fill="#6d6d6d"/>
          </g>
        </g>
        <g id="Group_40" data-name="Group 40" transform="translate(191.469 43.76)">
          <g id="Group_39" data-name="Group 39">
            <path id="Path_19" data-name="Path 19" d="M467.8,185.818v17.633a.92.92,0,0,0,1.837,0V185.818a.918.918,0,0,0-1.837,0Z" transform="translate(-467.8 -184.9)" fill="#6d6d6d"/>
          </g>
        </g>
        <g id="Group_42" data-name="Group 42" transform="translate(169.979 14.112)">
          <g id="Group_41" data-name="Group 41">
            <path id="Path_20" data-name="Path 20" d="M434.537,165.573V137.347a.92.92,0,0,0-1.837,0v28.225a.918.918,0,1,0,1.837,0Z" transform="translate(-432.7 -136.475)" fill="#6d6d6d"/>
          </g>
        </g>
        <g id="Group_44" data-name="Group 44" transform="translate(0 231.724)">
          <g id="Group_43" data-name="Group 43">
            <path id="Path_21" data-name="Path 21" d="M155.947,493.737h44.817a.92.92,0,0,0,0-1.837H155.947a.92.92,0,0,0,0,1.837Z" transform="translate(-155.075 -491.9)" fill="#6d6d6d"/>
          </g>
        </g>
        <g id="Group_46" data-name="Group 46" transform="translate(28.241 214.26)">
          <g id="Group_45" data-name="Group 45">
            <path id="Path_22" data-name="Path 22" d="M201.2,464.247v16.531a.92.92,0,0,0,1.837,0V464.247a.92.92,0,0,0-1.837,0Z" transform="translate(-201.2 -463.375)" fill="#6d6d6d"/>
          </g>
        </g>
        <g id="Group_48" data-name="Group 48" transform="translate(16.546 214.214)">
          <g id="Group_47" data-name="Group 47">
            <path id="Path_23" data-name="Path 23" d="M183.018,465.137H206.9a.92.92,0,0,0,0-1.837H183.018a.918.918,0,0,0,0,1.837Z" transform="translate(-182.1 -463.3)" fill="#6d6d6d"/>
          </g>
        </g>
        <g id="Group_50" data-name="Group 50" transform="translate(286.186 600.244)">
          <g id="Group_49" data-name="Group 49">
            <path id="Path_24" data-name="Path 24" d="M623.419,1095.637H683.3a.92.92,0,0,0,0-1.837H623.419a.919.919,0,0,0,0,1.837Z" transform="translate(-622.5 -1093.8)" fill="#6d6d6d"/>
          </g>
        </g>
        <g id="Group_52" data-name="Group 52" transform="translate(322.126 586.453)">
          <g id="Group_51" data-name="Group 51">
            <path id="Path_25" data-name="Path 25" d="M683.037,1085.066v-12.919a.92.92,0,0,0-1.837,0v12.919a.918.918,0,0,0,1.837,0Z" transform="translate(-681.2 -1071.275)" fill="#6d6d6d"/>
          </g>
        </g>
        <g id="Group_54" data-name="Group 54" transform="translate(317.518 585.55)">
          <g id="Group_53" data-name="Group 53">
            <path id="Path_26" data-name="Path 26" d="M674.548,1071.637h24.858a.92.92,0,0,0,0-1.837H674.548a.92.92,0,0,0,0,1.837Z" transform="translate(-673.675 -1069.8)" fill="#6d6d6d"/>
          </g>
        </g>
        <g id="Group_56" data-name="Group 56" transform="translate(1.408 568.039)">
          <g id="Group_55" data-name="Group 55">
            <path id="Path_27" data-name="Path 27" d="M158.247,1043.037h59.879a.92.92,0,0,0,0-1.837H158.247a.92.92,0,0,0,0,1.837Z" transform="translate(-157.375 -1041.2)" fill="#6d6d6d"/>
          </g>
        </g>
        <g id="Group_58" data-name="Group 58" transform="translate(29.955 545.003)">
          <g id="Group_57" data-name="Group 57">
            <path id="Path_28" data-name="Path 28" d="M204,1004.447v21.184a.92.92,0,0,0,1.837,0v-21.184a.92.92,0,0,0-1.837,0Z" transform="translate(-204 -1003.575)" fill="#6d6d6d"/>
          </g>
        </g>
        <g id="Group_60" data-name="Group 60" transform="translate(5.143 543.12)">
          <g id="Group_59" data-name="Group 59">
            <path id="Path_29" data-name="Path 29" d="M188.287,1000.5H164.347a.92.92,0,0,0,0,1.837h23.939a.92.92,0,0,0,0-1.837Z" transform="translate(-163.475 -1000.5)" fill="#6d6d6d"/>
          </g>
        </g>
        <g id="Group_62" data-name="Group 62" transform="translate(664.736 488.101)">
          <g id="Group_61" data-name="Group 61">
            <path id="Path_30" data-name="Path 30" d="M1243.916,938.534c-2.02-2.02-1.531-5.939,1.592-6.612,1.653-.367,3.245.674,4.837.857a3.21,3.21,0,0,0,3.306-1.041c1.224-1.592.245-3.429.184-5.2-.122-5.572,6.49-5.2,9.8-3.245a.93.93,0,0,0,1.347-1.041,8.057,8.057,0,0,1,13.164-7.837c.918.735,2.2-.551,1.286-1.286A9.915,9.915,0,0,0,1263.2,922.8c.429-.367.918-.673,1.347-1.041-2.817-1.714-6.429-2.572-9.429-.674a6.326,6.326,0,0,0-2.571,2.939,5.363,5.363,0,0,0-.49,2.572c.061,1.653.612,1.531-.612,3.122-1.347,1.776-1.469.979-3.368.551a5.7,5.7,0,0,0-5.939,1.653c-2.143,2.388-1.592,5.755.551,7.9.8.857,2.082-.429,1.225-1.286Z" transform="translate(-1240.782 -910.638)" fill="#6d6d6d"/>
          </g>
        </g>
        <g id="Group_64" data-name="Group 64" transform="translate(677.999 499.655)">
          <g id="Group_63" data-name="Group 63">
            <path id="Path_31" data-name="Path 31" d="M1264.254,947.688c-.673-5.571,8.449-5.633,11.021-9.49a15.5,15.5,0,0,0,1.347-3.123,6.06,6.06,0,0,1,4.286-3.674c3.368-.857,6.857.674,9.919,1.959,1.1.429,1.592-1.347.49-1.776-5.633-2.327-13.225-4.1-16.348,2.755-1.1,2.449-1.469,3.8-4.041,5.082-1.531.735-3.122,1.163-4.592,2.02-2.327,1.347-4.163,3.429-3.857,6.245.122,1.163,1.959,1.163,1.776,0Z" transform="translate(-1262.445 -929.509)" fill="#6d6d6d"/>
          </g>
        </g>
        <g id="Group_66" data-name="Group 66" transform="translate(414.389 338.704)">
          <g id="Group_65" data-name="Group 65">
            <path id="Path_32" data-name="Path 32" d="M833.979,667.713c1.225,3.061,2.449,6.184,3.674,9.245.122-.367.306-.673.429-1.041-.674.429-1.347.857-2.021,1.347-1.041-2.449-.612-3.061,1.347-1.959a5.462,5.462,0,0,1,1.959,3.612,17.407,17.407,0,0,1-1.041,8.817.9.9,0,0,0,1.1,1.1c3.673-.735,5.143,3.674,4.408,6.429a21.485,21.485,0,0,1-2.755,5.572c-.612.98.98,1.9,1.592.918,1.959-3.061,4.224-6.857,2.878-10.653a5.869,5.869,0,0,0-6.612-4.041l1.1,1.1c1.224-3.551,2.02-8.02.49-11.633-1.041-2.388-3.429-4.225-6.123-3.429a3.285,3.285,0,0,0-2.143,4.714c1.653,3.367,4.531,1.1,6.674-.306a.993.993,0,0,0,.429-1.041c-1.224-3.061-2.449-6.184-3.674-9.245-.367-1.041-2.143-.612-1.714.49Z" transform="translate(-831.893 -666.629)" fill="#6d6d6d"/>
          </g>
        </g>
        <g id="Group_68" data-name="Group 68" transform="translate(52.392 44.916)">
          <g id="Group_67" data-name="Group 67">
            <path id="Path_33" data-name="Path 33" d="M242.638,192c-1.163-2.939,2.755-3.735,4.592-2.694a10.228,10.228,0,0,1,3.184,3.49,15.3,15.3,0,0,1,2.082,3.8,3.642,3.642,0,0,1-.184,3.367c-2.143.98-3.245.735-3.306-.673-.551-2.02,1.592-3.367,3.429-3.306a7.5,7.5,0,0,1,4.959,2.51,10.58,10.58,0,0,1,2.694,8.51c.551-.184,1.163-.306,1.714-.49-1.225-1.776-.061-3.674,1.592-4.592a4.566,4.566,0,0,1,4.347.184c2.2,1.163,3.735,3.306,5.143,5.265.673.98,2.265.061,1.592-.918-2.327-3.245-5.816-7.776-10.408-6.735-3.367.735-6.061,4.653-3.857,7.714a.931.931,0,0,0,1.714-.49c.551-5.816-3.735-13.776-10.592-12.8a4.6,4.6,0,0,0-4.225,4.592c0,1.959,1.225,3.98,3.306,4.1,2.449.184,4.1-2.2,4.225-4.408.184-3.061-2.2-6.368-4.041-8.633-1.714-2.02-4.225-3.735-6.919-2.694-2.2.8-3.674,3-2.755,5.265.367,1.224,2.143.735,1.714-.367Z" transform="translate(-240.646 -186.787)" fill="#6d6d6d"/>
          </g>
        </g>
        <g id="Group_70" data-name="Group 70" transform="translate(373.874 133.546)">
          <g id="Group_69" data-name="Group 69">
            <path id="Path_34" data-name="Path 34" d="M768.769,337.947c-2.572-1.531-.735-6.061,2.143-4.163,2.755,1.837-.918,4.959-2.694,2.816-.735-.918-2.021.367-1.286,1.286a4.046,4.046,0,0,0,5.694.184,3.614,3.614,0,0,0-.551-5.694,3.9,3.9,0,0,0-5.816,1.1,4.592,4.592,0,0,0,1.653,6.061c.918.551,1.837-.98.857-1.592Z" transform="translate(-765.72 -331.546)" fill="#6d6d6d"/>
          </g>
        </g>
        <g id="Group_72" data-name="Group 72" transform="translate(569.596)">
          <g id="Group_71" data-name="Group 71">
            <path id="Path_35" data-name="Path 35" d="M1087.785,119.472c-1.347-1.9.979-4.776,3.123-3.918-.184-.122-.367-.306-.551-.429a3.2,3.2,0,0,1-2.816,4.653,10.451,10.451,0,0,1,.857.673c-.367-1.041-.8-2.143-1.163-3.184-.429-1.1-2.2-.612-1.776.49.367,1.041.8,2.143,1.163,3.184a.851.851,0,0,0,.857.674,4.831,4.831,0,0,0,4.531-2.816c.673-1.347,1.041-4.163-.612-5.021-3.612-1.776-7.347,3.612-5.2,6.612.674.98,2.265.061,1.592-.918Z" transform="translate(-1085.392 -113.427)" fill="#6d6d6d"/>
          </g>
        </g>
        <g id="Group_74" data-name="Group 74" transform="translate(619.89 91.948)">
          <g id="Group_73" data-name="Group 73" transform="translate(0 0)">
            <path id="Path_36" data-name="Path 36" d="M1169.473,268.745a2.856,2.856,0,0,1,2.143-3.245,2.543,2.543,0,0,1,2.755,1.959c.8,2.755-2.816,4.041-4.531,2.143-.8-.857-2.082.429-1.286,1.286,3.184,3.551,9.307.061,7.347-4.469a4.288,4.288,0,0,0-5.143-2.633,4.729,4.729,0,0,0-3.123,5.449.952.952,0,0,0,1.837-.49Z" transform="translate(-1167.536 -263.605)" fill="#6d6d6d"/>
          </g>
        </g>
        <g id="Group_76" data-name="Group 76" transform="translate(419.472 587.695)">
          <g id="Group_75" data-name="Group 75">
            <path id="Path_37" data-name="Path 37" d="M843.811,1089.465a3.1,3.1,0,0,1,0-5.51c2.082-1.163,4.041-.122,5.939.735,1.592.735,3.429,1.408,4.837,0,1.286-1.224,1.041-3.123,1.1-4.714.245-6.184,6.245-4.959,10.347-3.429,1.1.429,1.592-1.347.49-1.776-3.612-1.408-8.633-2.755-11.51.8a5.746,5.746,0,0,0-1.163,3.551c-.061.857.306,2.755-.184,3.551-1.347,2.021-3.184.184-4.592-.429-2.694-1.163-6.551-.857-8.2,1.959a4.832,4.832,0,0,0,1.959,6.8c1.1.551,2.02-1.041.98-1.531Z" transform="translate(-840.196 -1073.303)" fill="#6d6d6d"/>
          </g>
        </g>
      </g>
      <g id="flower" transform="translate(457.68 366.836)">
        <g id="Group_78" data-name="Group 78" transform="translate(0 124.916)">
          <g id="Group_77" data-name="Group 77">
            <path id="Path_38" data-name="Path 38" d="M893.931,863.447a268.765,268.765,0,0,0,2.939,67.226c.184,1.163,1.959.673,1.776-.49a267.74,267.74,0,0,1-2.878-66.736c.122-1.163-1.714-1.163-1.837,0Z" transform="translate(-893.033 -862.575)" fill="#4d4848"/>
          </g>
        </g>
        <g id="Group_80" data-name="Group 80" transform="translate(1.484 125.355)">
          <g id="Group_79" data-name="Group 79">
            <path id="Path_39" data-name="Path 39" d="M896.1,865.134a134.907,134.907,0,0,0,29.45,6.612c9.429.98,20.266,2.021,29.327-1.531,1.1-.428.612-2.2-.49-1.775-8.816,3.49-19.531,2.449-28.837,1.469a130.572,130.572,0,0,1-28.96-6.551c-1.163-.429-1.592,1.347-.49,1.775Z" transform="translate(-895.457 -863.292)" fill="#4d4848"/>
          </g>
        </g>
        <g id="Group_82" data-name="Group 82" transform="translate(0.37 2.591)">
          <g id="Group_81" data-name="Group 81">
            <path id="Path_40" data-name="Path 40" d="M909.961,789.9a68.91,68.91,0,0,1-7.653-15.858,75.936,75.936,0,0,1-2.143-8.143c-.306-1.653-.612-3.306-.8-4.959,0-.184-.673-4.531.612-3.919.612.306,1.653-.245,1.347-1.041a76.247,76.247,0,0,1-5.388-26.633l-.918.918c.49.184.918.367,1.408.551.612.735,1.775-.061,1.531-.919a50.474,50.474,0,0,1-2.265-12.123c-.061-.98.122-12,.8-11.817a.912.912,0,0,0,1.1-1.1,100.139,100.139,0,0,1-1.408-20.939,83.391,83.391,0,0,1,.98-10.347c.49-3.123.735-6.919,3.184-9.184l-1.469-.184c5.143,9.674,8.021,20.266,10.653,30.8q3.857,15.521,6.8,31.348a504.961,504.961,0,0,1,7.592,65.818c.061,1.163,1.9,1.163,1.837,0a503.21,503.21,0,0,0-7.653-66.308q-3.031-16.347-7.041-32.511c-2.633-10.347-5.51-20.633-10.592-30.123a.963.963,0,0,0-1.469-.184c-2.082,1.9-2.694,4.408-3.184,7.041a101.493,101.493,0,0,0-1.408,11.388,103.583,103.583,0,0,0,1.347,23.817l1.1-1.1c-3.551-.98-3.123,6.674-3.184,8.388a53.006,53.006,0,0,0,2.449,17.755c.49-.306,1.041-.612,1.531-.918a2.72,2.72,0,0,0-2.694-1.1.942.942,0,0,0-.918.919,77.876,77.876,0,0,0,5.449,27.123c.428-.367.918-.673,1.347-1.041-6.123-2.939-2.572,10.9-2.082,12.98a71.222,71.222,0,0,0,9.551,22.409c.735,1.1,2.327.184,1.653-.8Z" transform="translate(-893.636 -662.782)" fill="#4d4848"/>
          </g>
        </g>
        <g id="Group_84" data-name="Group 84" transform="translate(24.294)">
          <g id="Group_83" data-name="Group 83">
            <path id="Path_41" data-name="Path 41" d="M934.848,727.093a44.934,44.934,0,0,1-.184-11.817c.122-.98,2.449-12.49,3.612-12a.962.962,0,0,0,1.408-.8c.367-7.837,2.816-14.817,5.694-22.041,2.878-7.164,5.694-14.082,10.47-20.266h-1.286c3.49,3.98,3.061,10.041,3.245,15,.245,5.572.429,11.143.49,16.715q.184,16.439-.551,32.878a544.53,544.53,0,0,1-7.347,66.859c-.184,1.163,1.592,1.653,1.776.49a554.365,554.365,0,0,0,7.531-69.737q.735-17.633.367-35.266c-.122-5.878-.245-11.755-.673-17.633-.245-3.857-.857-7.653-3.551-10.653a.888.888,0,0,0-1.286,0c-4.714,6.123-7.653,12.857-10.47,20.021-3.122,7.714-5.755,15.184-6.184,23.633.49-.245.918-.551,1.408-.8-3.735-1.653-4.959,6.306-5.449,8.449a46.178,46.178,0,0,0-.612,17.388c-.061,1.224,1.714.735,1.592-.429Z" transform="translate(-932.712 -658.55)" fill="#4d4848"/>
          </g>
        </g>
        <g id="Group_86" data-name="Group 86" transform="translate(4.029 191.863)">
          <g id="Group_85" data-name="Group 85">
            <path id="Path_42" data-name="Path 42" d="M900.279,974.6a91.945,91.945,0,0,0,58.9-.857c1.1-.367.612-2.143-.49-1.776a90.618,90.618,0,0,1-57.92.857.921.921,0,0,0-.49,1.776Z" transform="translate(-899.614 -971.919)" fill="#4d4848"/>
          </g>
        </g>
        <g id="Group_88" data-name="Group 88" transform="translate(60.654 130.794)">
          <g id="Group_87" data-name="Group 87">
            <path id="Path_43" data-name="Path 43" d="M992.1,873.048c.735,9.919,1.531,19.837,2.2,29.756.673,10.1.918,20.327-.735,30.368-.184,1.163,1.592,1.653,1.776.49,1.653-9.857,1.531-19.776.857-29.695-.673-10.286-1.469-20.633-2.265-30.919-.061-1.163-1.9-1.163-1.837,0Z" transform="translate(-992.098 -872.175)" fill="#4d4848"/>
          </g>
        </g>
      </g>
    </g>
    <g id="window" transform="translate(217.113 225.851)">
      <path id="Path_44" data-name="Path 44" d="M458.4,983c12.49-6.674,25.041-13.347,37.532-20.021,5.878.98,13.96,2.266,23.633,3.612,19.347,2.694,50.512,7.041,89.941,8.2a641.608,641.608,0,0,0,80.267-2.449c27.123-2.571,43.532-6.061,56.94-9.674A300.819,300.819,0,0,0,776.1,953a135.059,135.059,0,0,1,19.409,8.2,125.32,125.32,0,0,1,10.9,6.367c-11.511,3.306-27,7.531-45.43,11.817-38.817,9.061-68.573,13.347-74.818,14.265-35.695,5.082-86.574,12.245-150.555,4.837A498.494,498.494,0,0,1,458.4,983Z" transform="translate(-338.433 -572.335)" fill="#fff"/>
      <path id="Path_45" data-name="Path 45" d="M457.3,991.554c.306,2.572.673,5.082.98,7.653,4.592,1.286,11.327,3.123,19.654,4.959a366.459,366.459,0,0,0,53.205,7.653c78,6.123,140.33.673,140.33.673,31.164-2.755,61.41-5.572,100.472-16.96,14.694-4.286,26.695-8.633,35.266-12l-2.021-8.633c-2.388.98-5.939,2.388-10.286,3.98-29.511,10.776-53.818,14.327-75.492,16.96-47.634,5.878-71.451,8.755-106.411,9.306A765.362,765.362,0,0,1,457.3,991.554Z" transform="translate(-338.007 -580.826)" fill="#4d4848"/>
      <g id="Group_90" data-name="Group 90" transform="translate(118.865 410.973)">
        <g id="Group_89" data-name="Group 89">
          <path id="Path_46" data-name="Path 46" d="M456.6,1003.419v5.878a.92.92,0,0,0,1.837,0v-5.878a.918.918,0,1,0-1.837,0Z" transform="translate(-456.6 -1002.5)" fill="#161616"/>
        </g>
      </g>
      <g id="Group_92" data-name="Group 92" transform="translate(118.873 401.967)">
        <g id="Group_91" data-name="Group 91">
          <path id="Path_47" data-name="Path 47" d="M457.279,1005.308c45.736,12.367,93.492,13.959,140.575,14.633,45.246.612,90.8-1.347,135.371-9.612a412.12,412.12,0,0,0,73.716-20.694c1.1-.429.612-2.2-.49-1.776-42.124,16.347-86.88,24.674-131.881,28.164-45.368,3.49-91.166,2.694-136.534-.061-27.123-1.714-54-5.266-80.267-12.368a.892.892,0,1,0-.49,1.714Z" transform="translate(-456.614 -987.792)" fill="#161616"/>
        </g>
      </g>
      <g id="Group_94" data-name="Group 94" transform="translate(467.412 393.875)">
        <g id="Group_93" data-name="Group 93">
          <path id="Path_48" data-name="Path 48" d="M1027.667,983.223a33.085,33.085,0,0,0,.245-7.776c-.122-1.163-1.959-1.163-1.837,0a32.17,32.17,0,0,1-.184,7.286c-.184,1.1,1.592,1.653,1.775.49Z" transform="translate(-1025.878 -974.575)" fill="#161616"/>
        </g>
      </g>
      <g id="Group_96" data-name="Group 96" transform="translate(118.918 390.222)">
        <g id="Group_95" data-name="Group 95">
          <path id="Path_49" data-name="Path 49" d="M458.1,990.094c12.858-6.123,25.47-12.674,37.838-19.776a.919.919,0,0,0-.918-1.592q-18.551,10.561-37.838,19.776c-1.1.49-.184,2.082.918,1.592Z" transform="translate(-456.688 -968.608)" fill="#161616"/>
        </g>
      </g>
      <g id="Group_98" data-name="Group 98" transform="translate(157.017 380.083)">
        <g id="Group_97" data-name="Group 97">
          <path id="Path_50" data-name="Path 50" d="M519.579,963.04c73.043,13.9,148.963,16.47,222.618,5.939,19.592-2.816,39.062-7.163,57.185-15.245,1.1-.49.122-2.082-.918-1.592-16.286,7.225-33.674,11.449-51.246,14.2-17.878,2.816-35.94,4.531-54,5.694a695.624,695.624,0,0,1-110.084-1.776c-21.184-2.021-42.185-5.082-63.063-9-1.163-.184-1.653,1.592-.49,1.776Z" transform="translate(-518.914 -952.049)" fill="#161616"/>
        </g>
      </g>
      <g id="Group_100" data-name="Group 100" transform="translate(436.453 379.636)">
        <g id="Group_99" data-name="Group 99">
          <path id="Path_51" data-name="Path 51" d="M975.979,953.144a126.713,126.713,0,0,1,30.674,14.817c.98.673,1.9-.919.918-1.592a130.177,130.177,0,0,0-31.1-15,.921.921,0,0,0-.49,1.776Z" transform="translate(-975.314 -951.319)" fill="#161616"/>
        </g>
      </g>
      <g id="Group_102" data-name="Group 102" transform="translate(119.828 393.29)">
        <g id="Group_101" data-name="Group 101">
          <path id="Path_52" data-name="Path 52" d="M458.8,991.057c21.613,7.286,44.144,10.715,66.8,12.551,22.96,1.837,46.1,2.388,69.124,2.388,45.736,0,91.594-3.123,136.657-11.327a545.077,545.077,0,0,0,75.614-19.225c1.1-.367.612-2.143-.49-1.776-43.409,14.449-88.533,22.9-134.085,27.062a907.471,907.471,0,0,1-136.534,1.714c-25.96-1.592-51.981-4.837-76.716-13.164-.98-.367-1.469,1.408-.367,1.776Z" transform="translate(-458.173 -973.619)" fill="#161616"/>
        </g>
      </g>
      <g id="Group_104" data-name="Group 104" transform="translate(154.568 37.163)">
        <g id="Group_103" data-name="Group 103">
          <path id="Path_53" data-name="Path 53" d="M516.068,415.863c74.818-17.327,151.841-21.123,228.373-21.858,21.674-.245,43.348-.184,65.022-.184a.92.92,0,0,0,0-1.837c-76.778-.122-153.922-.184-230.149,10.408-21.429,3-42.675,6.8-63.736,11.694a.921.921,0,0,0,.49,1.776Z" transform="translate(-514.914 -391.96)" fill="#161616"/>
        </g>
      </g>
      <path id="Path_54" data-name="Path 54" d="M993.747,369.695c.8,28.47,1.286,61.471,1.1,98.145-.122,21.307-.306,11.143-2.2,99.8-1.1,51.063-1.408,70.288-5.02,99.8-2.327,19.225-5.143,35.021-7.225,45.736,15.8,4.408,30.858,8.572,44.083,12.245,20.45,5.694,25.9,7.225,34.042,8.388a135.833,135.833,0,0,0,45.736-1.653c6.551-53.634,10.164-99.37,12.245-134.391,7.47-123.064.49-179.76-2.2-199.658-3.674-26.817-8.2-48.858-11.694-64.1-13.1,2.51-23.756,5.2-31.225,7.225-25.654,7.041-45.981,15.307-63,22.286C1002.074,366.144,996.992,368.287,993.747,369.695Z" transform="translate(-540.833 -332.324)" fill="#fff"/>
      <path id="Path_55" data-name="Path 55" d="M300.542,335.8c-.49,5.265-1.041,11.755-1.531,17.388-10.164,115.9-15.245,173.882-16.9,211.169a1060.085,1060.085,0,0,0,6.674,170.27,13.332,13.332,0,0,0,4.1,5.143c2.878,2.143,5.51,2.082,10.715,3.551a71.143,71.143,0,0,1,8.2,3.061c5.633,2.2,18.245,4.715,34.287,4.1,23.021-.919,40.715-7.959,53.7-13.286a208.828,208.828,0,0,0,28.654-14.327c-3.8-34.1-6.612-70.1-8.2-107.88a1555.616,1555.616,0,0,1,6.674-219.863c-2.816-1.1-6.919-2.633-11.755-4.592-8.327-3.367-28.286-11.51-63.43-28.654C337.829,355.147,320.441,346.392,300.542,335.8Z" transform="translate(-269.721 -333.022)" fill="#fff"/>
      <path id="Path_56" data-name="Path 56" d="M1179.4,333.6c.734,4.041,1.714,9.612,2.816,16.286,1.531,9.49,4.959,31.96,7.47,61.471,2.571,30.736,3.184,57.185,3.245,78.247.184,42.736-1.408,74.084-5.571,147.188-1.286,22.776-3.184,56.144-5.572,96.86,2.51-.184,4.959-.306,7.47-.49,1.225-10.164,2.878-25.286,4.163-43.777.979-13.347,1.408-23.082,1.837-33.552,2.143-48,2.51-47.45,3.245-67.042,1.469-38.634,1.163-68.328.918-95.023-.184-18.429-.734-35.879-1.837-70.777-.8-23.756-1.592-44.818-6.98-72.186-1.408-6.98-2.755-12.8-3.735-16.776C1184.359,333.906,1181.91,333.784,1179.4,333.6Z" transform="translate(-617.993 -332.169)" fill="#4d4848"/>
      <path id="Path_57" data-name="Path 57" d="M284.688,337.6c-.429,2.143-1.1,5.449-1.776,9.49a218.123,218.123,0,0,0-2.633,23.388c-1.347,20.817-4.041,30.98-7.959,77.206-.735,8.449-1.286,15.858-2.388,30.736-2.265,30.368-3.367,45.552-4.163,62.7-.857,19.164-.98,32.695-1.163,59.757-.184,23.388-.306,40.287.306,62.389.49,17.633,1.469,41.572,3.857,70.1,4.959,1.469,9.857,2.939,14.817,4.408-.061-2.755-.245-7.714-.612-13.9-1.469-27.491-3.857-38.634-4.408-61.532-.184-7.041-.061-11.694,0-18.368.673-47.879-.122-69.737.306-100.839.735-50.756,4.163-90.431,7.1-124.228,2.755-31.96,5.878-59.328,8.572-80.757C291.177,337.967,287.932,337.784,284.688,337.6Z" transform="translate(-263.233 -333.72)" fill="#4d4848"/>
      <g id="Group_106" data-name="Group 106" transform="translate(438.87 37.539)">
        <g id="Group_105" data-name="Group 105">
          <path id="Path_58" data-name="Path 58" d="M991.837,393.447c2.265,44.94,1.959,90,1.347,134.942-.674,43.96-.979,88.043-4.347,131.942a680.228,680.228,0,0,1-9.551,74.573c-.245,1.163,1.531,1.653,1.776.49,8.143-43.164,11.143-87.064,12.49-130.9q2.112-67.134,1.959-134.452c-.061-25.531-.49-51.063-1.776-76.594-.122-1.163-1.959-1.163-1.9,0Z" transform="translate(-979.262 -392.575)" fill="#161616"/>
        </g>
      </g>
      <g id="Group_108" data-name="Group 108" transform="translate(452.334 0.49)">
        <g id="Group_107" data-name="Group 107">
          <path id="Path_59" data-name="Path 59" d="M1002.628,369.984A420.442,420.442,0,0,1,1109.9,333.861c1.163-.245.674-2.02-.49-1.776a426.287,426.287,0,0,0-107.7,36.307c-1.041.551-.122,2.143.918,1.592Z" transform="translate(-1001.252 -332.062)" fill="#161616"/>
        </g>
      </g>
      <g id="Group_110" data-name="Group 110" transform="translate(560.343 0.595)">
        <g id="Group_109" data-name="Group 109">
          <path id="Path_60" data-name="Path 60" d="M1177.685,333.377c10.1,50.879,13.164,102.86,13.1,154.657-.123,51.8-3.184,103.472-5.694,155.208q-2.2,44.725-4.408,89.39c-.061,1.163,1.775,1.163,1.837,0,2.633-52.777,5.388-105.554,7.776-158.392,2.326-51.8,3.8-103.717.306-155.453a673.067,673.067,0,0,0-11.082-85.839.943.943,0,0,0-1.837.429Z" transform="translate(-1177.662 -332.235)" fill="#161616"/>
        </g>
      </g>
      <g id="Group_112" data-name="Group 112" transform="translate(438.95 378.669)">
        <g id="Group_111" data-name="Group 111">
          <path id="Path_61" data-name="Path 61" d="M979.642,951.307c2.755,3.184,7.653,3.8,11.511,4.959,5.265,1.592,10.592,3.184,15.858,4.776,10.653,3.184,21.245,6.551,32.021,9.245a156.864,156.864,0,0,0,64.043,2.51c1.163-.184.673-1.959-.49-1.776a154.212,154.212,0,0,1-63.063-2.51c-9.857-2.388-19.531-5.449-29.2-8.388l-14.694-4.408-7.347-2.2c-2.572-.8-5.449-1.347-7.286-3.49a.932.932,0,0,0-1.347,1.286Z" transform="translate(-979.392 -949.738)" fill="#161616"/>
        </g>
      </g>
      <g id="Group_114" data-name="Group 114" transform="translate(560.925)">
        <g id="Group_113" data-name="Group 113">
          <path id="Path_62" data-name="Path 62" d="M1179.279,333.061c2.265.551,4.531,1.1,6.857,1.653a.921.921,0,0,0,.49-1.776c-2.265-.551-4.531-1.1-6.857-1.653-1.163-.245-1.653,1.531-.49,1.776Z" transform="translate(-1178.614 -331.262)" fill="#161616"/>
        </g>
      </g>
      <g id="Group_116" data-name="Group 116" transform="translate(568.29 1.698)">
        <g id="Group_115" data-name="Group 115">
          <path id="Path_63" data-name="Path 63" d="M1190.678,335.177c6.123,24.735,7.776,50.573,9.551,75.982,1.837,25.96,2.816,51.981,3.245,78.063.735,51.736-1.041,103.472-3.98,155.147-1.653,29.266-3.735,58.532-5.878,87.8-.061,1.163,1.776,1.163,1.837,0,3.857-52.042,7.347-104.084,9-156.249,1.653-52.042,1.531-104.207-1.776-156.249-1.776-28.286-3.367-57.308-10.163-84.921a.943.943,0,0,0-1.837.429Z" transform="translate(-1190.642 -334.035)" fill="#161616"/>
        </g>
      </g>
      <g id="Group_118" data-name="Group 118" transform="translate(563.473 399.456)">
        <g id="Group_117" data-name="Group 117">
          <path id="Path_64" data-name="Path 64" d="M1183.648,986.268c2.694-.245,5.327-.49,8.021-.735,1.163-.122,1.163-1.959,0-1.837-2.694.245-5.327.49-8.021.735-1.163.122-1.163,1.959,0,1.837Z" transform="translate(-1182.775 -983.691)" fill="#161616"/>
        </g>
      </g>
      <g id="Group_120" data-name="Group 120" transform="translate(148.028 60.744)">
        <g id="Group_119" data-name="Group 119">
          <path id="Path_65" data-name="Path 65" d="M511.866,431.347q-6.153,63.645-7.347,127.6-1.194,64.2,2.633,128.391c1.408,24,3.429,47.94,5.878,71.818.122,1.163,1.959,1.163,1.837,0Q508.253,695.6,506.6,631.618q-1.653-64.2,1.714-128.391,1.929-36,5.327-71.879c.184-1.163-1.653-1.163-1.776,0Z" transform="translate(-504.232 -430.475)" fill="#161616"/>
        </g>
      </g>
      <g id="Group_122" data-name="Group 122" transform="translate(31.527 2.518)">
        <g id="Group_121" data-name="Group 121">
          <path id="Path_66" data-name="Path 66" d="M314.41,337.1a996.97,996.97,0,0,0,123.371,57.92c1.1.429,1.592-1.347.49-1.776a990.194,990.194,0,0,1-122.942-57.736.919.919,0,0,0-.918,1.592Z" transform="translate(-313.952 -335.375)" fill="#161616"/>
        </g>
      </g>
      <g id="Group_124" data-name="Group 124" transform="translate(13.73 2.947)">
        <g id="Group_123" data-name="Group 123">
          <path id="Path_67" data-name="Path 67" d="M301.241,336.947q-10.194,77.7-14.082,156.126-3.857,78.339-1.225,156.739,1.47,43.991,4.959,87.921c.122,1.163,1.959,1.163,1.837,0q-6.245-78.155-6-156.616.184-78.431,6.857-156.616,3.765-43.9,9.49-87.553c.122-1.163-1.714-1.163-1.837,0Z" transform="translate(-284.884 -336.075)" fill="#161616"/>
        </g>
      </g>
      <g id="Group_126" data-name="Group 126" transform="translate(19.233 388.365)">
        <g id="Group_125" data-name="Group 125">
          <path id="Path_68" data-name="Path 68" d="M294.318,982.979c34.1,18.551,74.941,14.572,109.595-.122A241.462,241.462,0,0,0,434.036,967.3c.98-.612.061-2.2-.918-1.592-32.266,19.531-70.1,33.185-108.248,26.082a99.929,99.929,0,0,1-29.633-10.408c-.98-.551-1.959,1.041-.918,1.592Z" transform="translate(-293.872 -965.575)" fill="#161616"/>
        </g>
      </g>
      <g id="Group_128" data-name="Group 128" transform="translate(5.65 399.002)">
        <g id="Group_127" data-name="Group 127">
          <path id="Path_69" data-name="Path 69" d="M272.185,984.633a128.213,128.213,0,0,0,13.164,5.266c1.1.367,1.592-1.408.49-1.776a119.9,119.9,0,0,1-12.735-5.082c-1.1-.49-2.02,1.1-.918,1.592Z" transform="translate(-271.688 -982.949)" fill="#161616"/>
        </g>
      </g>
      <g id="Group_130" data-name="Group 130" transform="translate(0 3.367)">
        <g id="Group_129" data-name="Group 129">
          <path id="Path_70" data-name="Path 70" d="M282.689,337.643c-6.612,51.307-12.123,102.737-15.735,154.351-3.551,51.369-5.266,102.86-4.163,154.351.612,29.144,2.082,58.287,4.592,87.308.122,1.163,1.959,1.163,1.837,0a1420.3,1420.3,0,0,1-4.47-154.841c1.163-51.491,4.714-102.921,9.8-154.228q4.316-43.532,9.98-87c.184-1.1-1.653-1.1-1.837.061Z" transform="translate(-262.459 -336.762)" fill="#161616"/>
        </g>
      </g>
      <g id="Group_132" data-name="Group 132" transform="translate(20.116 2.849)">
        <g id="Group_131" data-name="Group 131">
          <path id="Path_71" data-name="Path 71" d="M296.469,338.6a42.244,42.244,0,0,1,10.776-.8c1.163.061,1.163-1.776,0-1.837a46.4,46.4,0,0,0-11.266.857c-1.163.245-.673,2.02.49,1.776Z" transform="translate(-295.314 -335.915)" fill="#161616"/>
        </g>
      </g>
      <g id="Group_134" data-name="Group 134" transform="translate(471.281 41.703)">
        <g id="Group_133" data-name="Group 133">
          <path id="Path_72" data-name="Path 72" d="M1035.812,400.247q3.857,106.533-.49,213.128c-.8,19.9-1.837,39.736-3.122,59.634-.061,1.163,1.775,1.163,1.837,0q6.7-106.35,5.143-213.067-.46-29.848-1.531-59.7c-.061-1.163-1.9-1.163-1.837,0Z" transform="translate(-1032.198 -399.375)" fill="#161616"/>
        </g>
      </g>
      <g id="Group_136" data-name="Group 136" transform="translate(499.261 16.233)">
        <g id="Group_135" data-name="Group 135">
          <path id="Path_73" data-name="Path 73" d="M1083.226,358.647q3.673,74.114,3.612,148.412,0,74.206-3.674,148.412-2.02,41.971-5.266,83.818c-.061,1.163,1.776,1.163,1.837,0q5.693-74.022,7.775-148.228,2.021-74.206.49-148.473-.918-41.971-2.939-83.941c-.061-1.163-1.9-1.163-1.837,0Z" transform="translate(-1077.898 -357.775)" fill="#161616"/>
        </g>
      </g>
      <g id="Group_138" data-name="Group 138" transform="translate(538.323 5.281)">
        <g id="Group_137" data-name="Group 137">
          <path id="Path_74" data-name="Path 74" d="M1143.6,340.813q5.143,77.053,6.061,154.412.827,77.6-2.633,155.086-1.929,43.44-5.327,86.819c-.061,1.163,1.776,1.163,1.837,0q5.878-77.053,7.531-154.351,1.561-77.512-1.163-155.147-1.561-43.44-4.47-86.88a.919.919,0,0,0-1.837.061Z" transform="translate(-1141.698 -339.887)" fill="#161616"/>
        </g>
      </g>
      <g id="Group_140" data-name="Group 140" transform="translate(460.85 337.425)">
        <g id="Group_139" data-name="Group 139">
          <path id="Path_75" data-name="Path 75" d="M1022.9,883.247a329.983,329.983,0,0,1-7.714,47.634.921.921,0,0,0,1.776.49,328.338,328.338,0,0,0,7.776-48.124c.122-1.163-1.714-1.163-1.837,0Z" transform="translate(-1015.161 -882.375)" fill="#161616"/>
        </g>
      </g>
      <g id="Group_142" data-name="Group 142" transform="translate(41.053 15.539)">
        <g id="Group_141" data-name="Group 141">
          <path id="Path_76" data-name="Path 76" d="M340.525,357.29c-7.347,51.369-10.47,103.288-10.96,155.147-.429,52.165,1.714,104.268,4.9,156.31,1.776,29.45,3.857,58.838,5.939,88.288.061,1.163,1.9,1.163,1.837,0-3.674-51.858-7.347-103.717-9.368-155.637-2.02-51.8-2.327-103.717.674-155.514,1.714-29.45,4.531-58.9,8.694-88.1.245-1.1-1.531-1.653-1.714-.49Z" transform="translate(-329.511 -356.642)" fill="#161616"/>
        </g>
      </g>
      <g id="Group_144" data-name="Group 144" transform="translate(78.129 32.465)">
        <g id="Group_143" data-name="Group 143">
          <path id="Path_77" data-name="Path 77" d="M399.21,385.152c-4.653,49.654-7.776,99.492-8.817,149.392a1465.651,1465.651,0,0,0,4.286,149.392q3.4,41.419,9.612,82.471c.184,1.163,1.959.673,1.776-.49A1266.182,1266.182,0,0,1,392.72,616.832c-1.592-49.226-.673-98.574,2.02-147.738q2.3-41.971,6.306-83.88c.122-1.225-1.714-1.225-1.837-.061Z" transform="translate(-390.066 -384.287)" fill="#161616"/>
        </g>
      </g>
      <g id="Group_146" data-name="Group 146" transform="translate(111.878 47.083)">
        <g id="Group_145" data-name="Group 145">
          <path id="Path_78" data-name="Path 78" d="M455.849,409.042A1285.177,1285.177,0,0,0,445.44,548.76a1303.364,1303.364,0,0,0,4.776,140.024q3.49,38.94,9.245,77.574c.184,1.163,1.959.673,1.776-.49A1290.525,1290.525,0,0,1,449.91,487.106q2.663-39.123,7.714-78.124c.245-1.1-1.592-1.1-1.776.061Z" transform="translate(-445.188 -408.162)" fill="#161616"/>
        </g>
      </g>
      <path id="Path_79" data-name="Path 79" d="M1083.006,342.5a515.375,515.375,0,0,1,14.143,96.676c4.592,92.7-17.2,168.433-36.185,217.046q-20.113,32.236-40.164,64.471a179.171,179.171,0,0,0,56.512,14.143,175.452,175.452,0,0,0,42.369-1.714c.122-2.694,2.143-43.654,2.265-46.348,6.674-137.208,7.1-146.575,7.347-156a1306.8,1306.8,0,0,0-5.633-162.249q-3.4-17.541-6.8-35.021C1105.659,336.439,1094.333,339.439,1083.006,342.5Z" transform="translate(-556.498 -332.13)" fill="#3f3f3f" opacity="0.12"/>
      <path id="Path_80" data-name="Path 80" d="M369.875,373.836c-1.592,6.674-3.98,16.654-6.8,28.837-12.49,54.369-21.674,94.349-26.572,131.146-8.694,64.838-17.082,127.656,18.674,179.209a145.19,145.19,0,0,0,29.389,31.1,110.817,110.817,0,0,1-27.123,6.8c-29.633,3.49-53.389-6.123-65.022-11.878-4.408-40.593-7.47-84.063-8.449-130.044A1510.686,1510.686,0,0,1,302.649,337.1Q336.17,355.468,369.875,373.836Z" transform="translate(-270.664 -333.526)" fill="#3f3f3f" opacity="0.13"/>
    </g>
    <g id="cat" transform="translate(242.707 190.944)">
      <path id="Path_81" data-name="Path 81" d="M314.21,283.587c-.8.612-.184,3,.918,7.1.429,1.592.857,2.816,1.1,3.612-.49,3.306-.918,6.612-1.408,9.919A11.278,11.278,0,0,0,305.7,312a34.664,34.664,0,0,1,6.918,1.408,37.356,37.356,0,0,1,8.817,4.1,4.659,4.659,0,0,0,1.1,3.184,4.386,4.386,0,0,0,2.51,1.1c2.2.367,4.837.857,8.2,1.592,1.469.857,3.918,2.265,6.919,3.918,10.164,5.51,13.837,6.429,24,11.817,6.551,3.49,6,3.612,10.592,5.816a104.771,104.771,0,0,0,17.2,6.612,27.916,27.916,0,0,0,6-10.9,27.039,27.039,0,0,0,.918-10.286,7.8,7.8,0,0,0,4.592.918c4.9-.551,8.021-6.123,9-10.1.857-3.49.061-5.694-.612-9.8-1.531-9.184-2.878-17.388.918-22.592,3.184-4.347,9.735-6.367,15-12.184.49-.551,1.408-1.592,1.1-2.082-.551-.918-4.837.673-6.919,1.592-1.347.612-11.449,5.265-14.511,15.8-.49,1.653-.551,6.429-.612,15.919-.061,6.919.061,10.837-2.694,13.1a6.524,6.524,0,0,1-5.388,1.408c-2.816-.612-4.163-3.367-5.388-5.2-3.184-4.837-7.714-6.857-13.286-9.612-4.347-2.143-8.082-2.939-15.613-4.592-7.1-1.531-9.245-1.347-12.306-3.612a22.1,22.1,0,0,1-6.306-8.2,28.794,28.794,0,0,1-3.184-9.184c-.367-2.51-.306-4.286-.918-4.408-1.1-.245-1.653,4.837-5.388,6.612-2.265,1.1-3.735.061-7.715.184a22.825,22.825,0,0,0-8.817,2.082C318.741,285.607,315.313,282.791,314.21,283.587Z" transform="translate(-304.82 -274.249)"/>
      <g id="Group_148" data-name="Group 148" transform="translate(9.26 9.339)">
        <g id="Group_147" data-name="Group 147">
          <path id="Path_82" data-name="Path 82" d="M321.354,309.644c-1.286-10.1,7.9-19.286,18.062-18.245,9.612.98,15.98,12.674,15.674,21.429-.061,1.163,1.776,1.163,1.837,0,.306-9.674-6.919-22.409-17.511-23.266-11.143-.918-21.307,8.939-19.9,20.082.184,1.1,2.02,1.163,1.837,0Z" transform="translate(-319.386 -289.503)"/>
        </g>
      </g>
      <g id="Group_150" data-name="Group 150" transform="translate(10.93 31.142)">
        <g id="Group_149" data-name="Group 149">
          <path id="Path_83" data-name="Path 83" d="M322.228,329.82c3.735,7.286,11.755,12.429,20.143,11.327a18.13,18.13,0,0,0,15.307-14.878c.184-1.163-1.592-1.653-1.776-.49a16.238,16.238,0,0,1-13.776,13.531c-7.653,1.041-14.878-3.735-18.307-10.408-.551-1.041-2.143-.122-1.592.918Z" transform="translate(-322.113 -325.114)"/>
        </g>
      </g>
      <g id="Group_152" data-name="Group 152" transform="translate(15.748 38.192)">
        <g id="Group_151" data-name="Group 151">
          <path id="Path_84" data-name="Path 84" d="M331.892,343.162c-.184-2.327,6.429-3.306,8.082-3.674a41.693,41.693,0,0,1,9.123-1.041,30,30,0,0,1,15.98,4.47c.98.612,1.959-.98.918-1.592a33.324,33.324,0,0,0-20.756-4.531,49.551,49.551,0,0,0-11.143,2.388c-1.959.673-4.286,1.531-4.1,3.98.122,1.163,2.02,1.163,1.9,0Z" transform="translate(-329.983 -336.629)"/>
        </g>
      </g>
      <g id="Group_154" data-name="Group 154" transform="translate(43.764 21.913)">
        <g id="Group_153" data-name="Group 153">
          <path id="Path_85" data-name="Path 85" d="M375.961,311.668c3.857,4.653,10.1,5.755,15.674,6.98,7.408,1.714,15.062,3.245,21.552,7.347a25.528,25.528,0,0,1,5.327,38.695c-.8.857.49,2.2,1.286,1.286a27.3,27.3,0,0,0-.061-36.919c-5.143-5.51-12.49-8.388-19.654-10.286-7.286-1.9-17.756-2.2-22.9-8.449-.674-.857-1.959.429-1.225,1.347Z" transform="translate(-375.741 -310.04)"/>
        </g>
      </g>
      <g id="Group_156" data-name="Group 156" transform="translate(67.975 51.199)">
        <g id="Group_155" data-name="Group 155">
          <path id="Path_86" data-name="Path 86" d="M434.152,362.236a11.1,11.1,0,0,0-13.164-3.49c-5.816,2.388-6.123,9.551-5.449,15,.122,1.163,1.959,1.163,1.837,0-.551-4.286-.612-10.9,3.8-13.041a9.234,9.234,0,0,1,11.327,2.51c.735.918,2.327,0,1.653-.98Z" transform="translate(-415.285 -357.873)"/>
        </g>
      </g>
      <g id="Group_158" data-name="Group 158" transform="translate(57.973 62.285)">
        <g id="Group_157" data-name="Group 157">
          <path id="Path_87" data-name="Path 87" d="M410.8,379.91c-3.367-2.571-6.857-4.776-11.2-3.612a.9.9,0,0,0-.612,1.1c1.1,4.286,7.837,6.061,11.388,7.592a165.02,165.02,0,0,0,16.653,6.184c1.1.367,1.592-1.408.49-1.776-4.531-1.408-8.939-2.939-13.347-4.776-2.388-.98-4.714-2.02-7.041-3.122-2.082-.98-5.816-2.143-6.429-4.592-.184.367-.429.735-.612,1.1,3.8-1.041,6.919,1.225,9.735,3.429.98.8,1.9-.8.98-1.531Z" transform="translate(-398.949 -375.979)"/>
        </g>
      </g>
      <g id="Group_160" data-name="Group 160" transform="translate(15.865 43.166)">
        <g id="Group_159" data-name="Group 159">
          <path id="Path_88" data-name="Path 88" d="M330.313,346.128c2.388,3.918,7.225,4.592,11.449,5.2a73.82,73.82,0,0,0,18.735.245c1.163-.123,1.163-1.959,0-1.837a72.861,72.861,0,0,1-15.062.184c-4.225-.429-11.021-.673-13.592-4.714-.551-1.041-2.143-.122-1.531.918Z" transform="translate(-330.175 -344.752)"/>
        </g>
      </g>
      <g id="Group_162" data-name="Group 162" transform="translate(0 29.787)">
        <g id="Group_161" data-name="Group 161">
          <path id="Path_89" data-name="Path 89" d="M306,331.41c.8-4.286,4.531-6.49,8.694-6.674a10.466,10.466,0,0,1-.857-.673,19.994,19.994,0,0,0,1.347,4.225c.429,1.1,2.2.612,1.776-.49a33.889,33.889,0,0,1-1.347-4.225.918.918,0,0,0-.857-.673c-4.9.245-9.551,2.939-10.47,8.021-.245,1.163,1.531,1.653,1.714.49Z" transform="translate(-304.262 -322.9)"/>
        </g>
      </g>
      <g id="Group_164" data-name="Group 164" transform="translate(8.49 8.338)">
        <g id="Group_163" data-name="Group 163">
          <path id="Path_90" data-name="Path 90" d="M322.03,298.847a33.92,33.92,0,0,1-1.837-8.2c0-.245-.061-.49-.061-.735-.061-.551,0-.49.245.184.551.367,1.1.8,1.653,1.225a19.876,19.876,0,0,1,2.51,2.572c.8.918,2.082-.429,1.286-1.286-1.041-1.224-5.388-6.245-7.225-4.286-.918.98-.245,3.245-.061,4.347a35.455,35.455,0,0,0,1.653,6.674c.49,1.1,2.265.673,1.837-.49Z" transform="translate(-318.13 -287.867)"/>
        </g>
      </g>
      <g id="Group_166" data-name="Group 166" transform="translate(31.356 3.246)">
        <g id="Group_165" data-name="Group 165">
          <path id="Path_91" data-name="Path 91" d="M357.2,287.05c.551-.98,1.1-1.959,1.714-2.939a12.133,12.133,0,0,0,.673-1.224c.367-.612.367-1.163,1.1-.98.857.184.551,2.2.551,2.939,0,1.163.061,2.327.061,3.49a.92.92,0,0,0,1.837,0c0-1.9.061-3.8-.061-5.694a3.011,3.011,0,0,0-1.837-3c-1.225-.367-2.082.429-2.694,1.347-1.041,1.653-1.959,3.429-2.939,5.082a.935.935,0,0,0,1.592.98Z" transform="translate(-355.475 -279.55)"/>
        </g>
      </g>
      <g id="Group_168" data-name="Group 168" transform="translate(91.738 0.213)">
        <g id="Group_167" data-name="Group 167">
          <path id="Path_92" data-name="Path 92" d="M454.1,325.172c.367,4.653,5.572,6.184,9.184,3.918,5.327-3.306,6.49-10.776,5.816-16.409-.918-7.714-2.755-14.878-.122-22.531,2.51-7.286,8.755-13.225,16.654-13.715,1.163-.061,1.163-1.9,0-1.837-10.776.674-18.123,9.857-19.654,20.021-.918,6.061.429,11.694,1.224,17.633a19.276,19.276,0,0,1-1.531,11.266,10.763,10.763,0,0,1-3.367,4.041c-2.265,1.408-6.184.98-6.429-2.327,0-1.225-1.837-1.286-1.776-.061Z" transform="translate(-454.098 -274.598)"/>
        </g>
      </g>
      <g id="Group_170" data-name="Group 170" transform="translate(92.653 34.302)">
        <g id="Group_169" data-name="Group 169">
          <path id="Path_93" data-name="Path 93" d="M455.658,350.066c1.9,5.082,8.51,2.816,11.388-.122,4.714-4.776,3.674-12.735,3.306-18.8-.061-1.163-1.9-1.163-1.837,0,.245,3.857.612,8.021-.061,11.878a10.322,10.322,0,0,1-2.2,5.021c-1.347,1.653-7.225,5.816-8.817,1.531-.429-1.1-2.2-.612-1.776.49Z" transform="translate(-455.592 -330.275)"/>
        </g>
      </g>
      <g id="Group_172" data-name="Group 172" transform="translate(104.756 0.087)">
        <g id="Group_171" data-name="Group 171">
          <path id="Path_94" data-name="Path 94" d="M493.936,274.458c-6.98,2.694-14.021,6.49-16.837,13.837-3.245,8.449-.918,17.633-1.1,26.388a.92.92,0,0,0,1.837,0c.184-7.653-1.653-15.49.184-23.082,2.021-8.327,8.939-12.49,16.409-15.368,1.1-.429.612-2.2-.49-1.776Z" transform="translate(-475.36 -274.392)"/>
        </g>
      </g>
      <g id="Group_174" data-name="Group 174" transform="translate(105.257 1.102)">
        <g id="Group_173" data-name="Group 173">
          <path id="Path_95" data-name="Path 95" d="M492.845,276.141c-6.429,2.939-12.306,8.082-15.307,14.633-1.592,3.429-1.347,7.225-1.347,10.96,0,4.776.184,9.612.551,14.388.061,1.163,1.9,1.163,1.837,0-.245-3.857-.429-7.653-.49-11.511-.061-4.041-.612-8.816.918-12.612,2.633-6.429,8.572-11.388,14.755-14.266,1.1-.49.184-2.082-.918-1.592Z" transform="translate(-476.178 -276.049)"/>
        </g>
      </g>
      <g id="Group_176" data-name="Group 176" transform="translate(14.771 21.575)">
        <g id="Group_175" data-name="Group 175">
          <path id="Path_96" data-name="Path 96" d="M328.456,311.271a3.482,3.482,0,0,0,6.49-1.347c.061-.612-.857-.551-.918,0a2.559,2.559,0,0,1-4.776.918.452.452,0,1,0-.8.429Z" transform="translate(-328.388 -309.487)" fill="#fff"/>
        </g>
      </g>
      <g id="Group_178" data-name="Group 178" transform="translate(27.751 18.736)">
        <g id="Group_177" data-name="Group 177">
          <path id="Path_97" data-name="Path 97" d="M349.656,307.085a3.632,3.632,0,0,0,6.8-1.776.459.459,0,0,0-.918,0,2.705,2.705,0,0,1-5.082,1.347.452.452,0,1,0-.8.429Z" transform="translate(-349.588 -304.85)" fill="#fff"/>
        </g>
      </g>
      <g id="Group_180" data-name="Group 180" transform="translate(23.011 24.456)">
        <g id="Group_179" data-name="Group 179">
          <path id="Path_98" data-name="Path 98" d="M342.981,314.748a5.906,5.906,0,0,1-1.041,5.021c-.367.49.429.918.8.49A7.1,7.1,0,0,0,343.9,314.5c-.184-.551-1.1-.306-.918.245Z" transform="translate(-341.846 -314.193)" fill="#fff"/>
        </g>
      </g>
      <g id="Group_182" data-name="Group 182" transform="translate(24.496 24.491)">
        <g id="Group_181" data-name="Group 181">
          <path id="Path_99" data-name="Path 99" d="M344.289,314.709a5.575,5.575,0,0,0,3.245,5.51c.551.245.98-.551.49-.8a4.749,4.749,0,0,1-2.816-4.714.459.459,0,1,0-.918,0Z" transform="translate(-344.272 -314.25)" fill="#fff"/>
        </g>
      </g>
      <g id="Group_184" data-name="Group 184" transform="translate(9.161 29.398)">
        <g id="Group_183" data-name="Group 183">
          <path id="Path_100" data-name="Path 100" d="M319.638,323.266c5.388-.429,8.817,3.98,12.429,7.225.429.367,1.1-.245.673-.674-3.8-3.429-7.47-7.9-13.1-7.531-.551.061-.551.98,0,.98Z" transform="translate(-319.225 -322.265)" fill="#fff"/>
        </g>
      </g>
      <g id="Group_186" data-name="Group 186" transform="translate(18.943 35.483)">
        <g id="Group_185" data-name="Group 185">
          <path id="Path_101" data-name="Path 101" d="M335.874,337.9a30.5,30.5,0,0,1,23.143-4.1c.551.123.8-.735.245-.857a31.616,31.616,0,0,0-23.817,4.225c-.551.245-.061,1.041.429.735Z" transform="translate(-335.202 -332.204)" fill="#fff"/>
        </g>
      </g>
      <g id="Group_188" data-name="Group 188" transform="translate(36.59 43.64)">
        <g id="Group_187" data-name="Group 187">
          <path id="Path_102" data-name="Path 102" d="M364.438,351.449a21.23,21.23,0,0,0,15.429-5.143c.429-.367-.184-1.041-.673-.673a20.311,20.311,0,0,1-14.755,4.9.462.462,0,0,0,0,.918Z" transform="translate(-364.025 -345.526)" fill="#fff"/>
        </g>
      </g>
      <g id="Group_190" data-name="Group 190" transform="translate(34.059 5.851)">
        <g id="Group_189" data-name="Group 189">
          <path id="Path_103" data-name="Path 103" d="M361.182,284.047a9,9,0,0,0-.857,7.408c.184.551,1.041.306.857-.245a7.981,7.981,0,0,1,.735-6.674.443.443,0,1,0-.735-.49Z" transform="translate(-359.891 -283.806)" fill="#fff"/>
        </g>
      </g>
      <g id="Group_192" data-name="Group 192" transform="translate(10.889 10.922)">
        <g id="Group_191" data-name="Group 191">
          <path id="Path_104" data-name="Path 104" d="M322.263,292.952a6.146,6.146,0,0,1,2.755,3.98c.122.551.979.306.857-.245a7.118,7.118,0,0,0-3.184-4.531c-.49-.306-.918.49-.429.8Z" transform="translate(-322.047 -292.088)" fill="#fff"/>
        </g>
      </g>
      <g id="Group_194" data-name="Group 194" transform="translate(43.381 20.772)">
        <g id="Group_193" data-name="Group 193">
          <path id="Path_105" data-name="Path 105" d="M375.229,308.987a15.917,15.917,0,0,0,4.041,3.551c.49.306.98-.49.49-.8a14.785,14.785,0,0,1-3.857-3.429c-.429-.429-1.041.245-.673.673Z" transform="translate(-375.116 -308.176)" fill="#fff"/>
        </g>
      </g>
      <g id="Group_196" data-name="Group 196" transform="translate(67.448 49.956)">
        <g id="Group_195" data-name="Group 195">
          <path id="Path_106" data-name="Path 106" d="M428.247,357.531c-1.286-3.245-7.47-1.041-9.49.245a9.559,9.559,0,0,0-3.857,10.959c.184.551,1.041.306.857-.245a8.682,8.682,0,0,1,2.388-9.123,9.234,9.234,0,0,1,4.041-2.143c1.041-.306,4.592-.98,5.143.49.245.612,1.1.367.918-.184Z" transform="translate(-414.425 -355.843)" fill="#fff"/>
        </g>
      </g>
      <g id="Group_198" data-name="Group 198" transform="translate(53.53 61.222)">
        <g id="Group_197" data-name="Group 197">
          <path id="Path_107" data-name="Path 107" d="M406.82,375.931A21.289,21.289,0,0,0,392,375.258c-.551.184-.306,1.041.245.857a20.276,20.276,0,0,1,14.327.674c.551.245.8-.674.245-.857Z" transform="translate(-391.693 -374.243)" fill="#fff"/>
        </g>
      </g>
    </g>
    <g id="girl_waving" transform="translate(399.029 143.59)">
      <g id="legs" transform="translate(75.074 338.061)">
        <path id="Path_108" data-name="Path 108" d="M687.649,775.9c-2.51,6-2.51,10.47-2.878,21.98-.429,14.2-1.653,28.348-1.776,42.491-.122,11.939-.306,30-.8,53.512a613.6,613.6,0,0,0,64.777.184,617.631,617.631,0,0,0,61.777-6.184c-8.817-29.817-14.633-51.552-18.8-68.389-2.2-9-5.449-22.47-14.388-38.205a122.757,122.757,0,0,0-13.714-19.47c-.98-.857-22.593-19.041-47.573-10.47C713.058,751.839,694.874,758.452,687.649,775.9Z" transform="translate(-682.2 -749.059)" fill="#364f6b"/>
        <g id="Group_200" data-name="Group 200" transform="translate(41.397 61.161)">
          <g id="Group_199" data-name="Group 199">
            <path id="Path_109" data-name="Path 109" d="M749.928,850.329c4.1,7.286,8.2,14.572,12.245,21.858.551,1.041,2.143.123,1.592-.918-4.1-7.286-8.2-14.572-12.245-21.858-.551-1.041-2.143-.122-1.592.918Z" transform="translate(-749.813 -848.952)" fill="#364f6b"/>
          </g>
        </g>
        <g id="Group_202" data-name="Group 202" transform="translate(40.809 60.542)">
          <g id="Group_201" data-name="Group 201">
            <path id="Path_110" data-name="Path 110" d="M749.065,849.569c9.429,11.755,14.878,25.164,17.817,39.858a347.848,347.848,0,0,1,5.572,42.124c.061,1.163,1.9,1.163,1.837,0a367.367,367.367,0,0,0-5.755-43.287c-2.939-14.755-8.694-28.225-18.123-39.981-.735-.98-2.082.367-1.347,1.286Z" transform="translate(-748.853 -847.942)" fill="#384c63"/>
          </g>
        </g>
        <path id="Path_111" data-name="Path 111" d="M773.3,750.5c2.143,4.286,5.2,10.592,8.633,18.184,9.98,22.164,20.327,45.552,25.837,74.328a210.448,210.448,0,0,1,3.49,49.471c5.143-.245,10.592-.674,16.286-1.286s11.143-1.347,16.286-2.2c-1.592-5.388-4.163-13.96-7.041-24.552-8.021-29.633-9.123-38.879-15.98-58.41-5.082-14.51-9.8-24.368-16.592-33.8-6.123-8.51-11.878-13.837-19.164-17.572A48.99,48.99,0,0,0,773.3,750.5Z" transform="translate(-717.523 -749.618)" fill="#3f3f3f" opacity="0.19"/>
        <path id="Path_112" data-name="Path 112" d="M749.4,851.7a179.156,179.156,0,0,1,5.449,31.593,182.636,182.636,0,0,1-3.184,51.675c7.041-.429,14.021-.857,21.062-1.286a294.124,294.124,0,0,0-3.857-34.47c-3.857-22.593-7.9-30.98-11.143-36.368A77.737,77.737,0,0,0,749.4,851.7Z" transform="translate(-708.256 -788.857)" fill="#3f3f3f" opacity="0.41"/>
      </g>
      <g id="hand_right" transform="translate(13.568 259.236)">
        <path id="Path_113" data-name="Path 113" d="M606.481,621.653c-2.021,1.347-3.245,3.918-5.633,9A81.989,81.989,0,0,0,596.5,642.9c-4.041,13.715-3.612,11.388-5.021,16.592a231.991,231.991,0,0,0-6.98,35.021,217.236,217.236,0,0,0-1.347,30.307,190.4,190.4,0,0,0,6,40.409c3.8,15.613,8.878,28.593,18.98,54.491,2.2,5.572,4.041,10.164,5.327,13.347-.918.123-2.388.306-4.163.551-9.245,1.1-10.531.857-14.266,1.653-4.776,1.041-9.061,2.082-10.715,5.694-.735,1.653-1.041,3.98-.123,4.776,1.163.98,3.429-1.225,7.347-2.51a18.463,18.463,0,0,1,8.266-.673,41.565,41.565,0,0,0-3.061,7.959c-1.347,4.653-2.388,8.449-.674,11.143.857,1.347,2.51,2.572,3.857,2.2.735-.184,1.408-.857,3.245-5.694,1.776-4.837,1.9-6.368,3.367-8.266a11.024,11.024,0,0,1,3.735-2.939,30.771,30.771,0,0,0-1.286,6.551,20.611,20.611,0,0,0,0,5.143c.245,1.776.8,5.572,3.612,7.653.49.367,2.51,1.9,3.735,1.1,1.041-.612.735-2.327,1.163-7.837.367-4.653.735-5.939,1.041-6.674a12.9,12.9,0,0,1,2.939-4.592,93.344,93.344,0,0,0-.123,10.776c.245,4.347.674,6.306,2.082,7.531.8.673,2.143,1.347,3.245.857s1.47-2.02,1.776-3.918c1.347-7.163.551-9.245,2.082-12.857a9.656,9.656,0,0,1,2.939-4.347c3.49-2.571,8.449-1.041,9.123-.857,2.939.918,4.041,2.51,5.51,1.837,1.225-.551,1.9-2.327,1.959-3.8.061-3.612-3.919-6.367-7.347-8.633a34.085,34.085,0,0,0-7.715-3.919,144.637,144.637,0,0,1-9.919-25.531,164.2,164.2,0,0,1-3.98-18.307c-3.245-18.674-2.082-25.837-5.694-44.389-.857-4.469-1.714-8.021-2.2-10.041.245-3.061.674-7.837,1.286-13.653,2.02-18.98,3.367-30.858,7.47-44.818,3.245-10.959,6.551-19.96,6.551-19.96,4.163-11.2,5.51-12.735,5.021-16.347C631.829,626.551,614.012,616.632,606.481,621.653Z" transform="translate(-582.262 -620.315)" fill="#fff"/>
        <g id="Group_204" data-name="Group 204" transform="translate(0 6.671)">
          <g id="Group_203" data-name="Group 203">
            <path id="Path_114" data-name="Path 114" d="M601.248,631.694c-10.9,25.164-17.755,52.042-19.225,79.471-1.531,27.98,3.306,55.348,12.368,81.8,5.143,15.123,11.388,29.817,17.756,44.511.49,1.1,2.02.123,1.592-.918-11.021-25.47-21.8-51.308-26.939-78.614-5.082-26.939-4.041-54.8,1.837-81.553a238.293,238.293,0,0,1,14.2-43.715c.429-1.1-1.1-2.082-1.592-.98Z" transform="translate(-581.743 -631.211)" fill="#161616"/>
          </g>
        </g>
        <g id="Group_206" data-name="Group 206" transform="translate(30.158 41.493)">
          <g id="Group_205" data-name="Group 205">
            <path id="Path_115" data-name="Path 115" d="M643.184,688.707A243.975,243.975,0,0,0,631,761.015a.92.92,0,0,0,1.837,0A242.685,242.685,0,0,1,644.96,689.2c.367-1.1-1.408-1.592-1.776-.49Z" transform="translate(-631 -688.085)" fill="#161616"/>
          </g>
        </g>
        <g id="Group_208" data-name="Group 208" transform="translate(23.567 101.981)">
          <g id="Group_207" data-name="Group 207">
            <path id="Path_116" data-name="Path 116" d="M620.4,788.177c5.449,7.592,7.653,16.654,8.939,25.715,1.347,9.245,1.959,18.613,3.306,27.858,2.694,18.8,7.1,37.532,15.98,54.369.551,1.041,2.143.122,1.592-.918-9.245-17.511-13.592-37.042-16.164-56.512-2.265-17.082-1.592-36.858-12.062-51.43-.673-.918-2.265,0-1.592.918Z" transform="translate(-620.234 -786.879)" fill="#161616"/>
          </g>
        </g>
        <g id="Group_210" data-name="Group 210" transform="translate(0.193 212.077)">
          <g id="Group_209" data-name="Group 209">
            <path id="Path_117" data-name="Path 117" d="M612.023,966.7a130.654,130.654,0,0,0-16.96,1.9c-3.98.8-8.2,2.082-10.959,5.265-1.592,1.9-3.612,6.429-.123,7.715,1.531.551,2.878-.49,4.163-1.225,3.184-1.837,6.49-3.735,10.286-2.694a.921.921,0,0,0,.49-1.775c-3.122-.857-5.939-.122-8.755,1.286-.857.429-1.653.857-2.449,1.347-.49.245-.918.551-1.408.857-.551-.979-1.163-1.959-1.714-2.939.122-1.531,3.184-3.306,4.286-3.918,3-1.592,6.49-2.143,9.8-2.633,4.47-.674,8.939-1.1,13.409-1.347a.919.919,0,0,0-.061-1.837Z" transform="translate(-582.059 -966.698)" fill="#161616"/>
          </g>
        </g>
        <g id="Group_212" data-name="Group 212" transform="translate(12.043 217.514)">
          <g id="Group_211" data-name="Group 211">
            <path id="Path_118" data-name="Path 118" d="M614.508,975.592a14.029,14.029,0,0,0-10.653,8.572c-1.959,4.653-3.612,11.572-1.347,16.347,1.714,3.612,5.939,4.9,7.531.49.98-2.755.8-5.755,1.776-8.51a16.406,16.406,0,0,1,6.367-8.388c.98-.674.061-2.266-.918-1.592a17.605,17.605,0,0,0-6.429,7.592,23.591,23.591,0,0,0-1.653,4.959c-.306,1.408-.49,8.51-3.857,6.429-1.9-1.163-2.082-4.9-2.02-6.8a33.214,33.214,0,0,1,1.776-8.755,12.511,12.511,0,0,1,9.857-8.572c1.224-.184.735-1.959-.428-1.776Z" transform="translate(-601.414 -975.578)" fill="#161616"/>
          </g>
        </g>
        <g id="Group_214" data-name="Group 214" transform="translate(25.322 221.895)">
          <g id="Group_213" data-name="Group 213">
            <path id="Path_119" data-name="Path 119" d="M628.672,982.9c-3.8,2.449-5.143,7.776-5.51,12.062-.367,4.592.918,9.551,4.347,12.8,2.021,1.9,5.143,2.878,5.694-.674.918-5.939-1.469-14.327,5.021-17.878,1.041-.551.122-2.143-.918-1.592a10.5,10.5,0,0,0-4.714,5.878c-1.286,3.674-.551,7.408-1.1,11.2-.245,1.714-.735,3.551-2.633,1.776a10.383,10.383,0,0,1-1.775-2.2,13.453,13.453,0,0,1-2.021-6.061c-.429-4.286.674-11.143,4.592-13.715.919-.673,0-2.265-.98-1.592Z" transform="translate(-623.101 -982.734)" fill="#161616"/>
          </g>
        </g>
        <g id="Group_216" data-name="Group 216" transform="translate(37.819 226.338)">
          <g id="Group_215" data-name="Group 215">
            <path id="Path_120" data-name="Path 120" d="M645.28,990.609c-1.163,4.408-2.265,9-1.531,13.592.306,2.2,1.592,7.592,4.408,8.143,3.184.612,4.469-5.021,4.775-7.1.673-4.531-.184-9.98,3.367-13.47a.909.909,0,0,0-1.286-1.286c-4.286,4.225-2.816,10.347-4.1,15.735-.428,1.959-1.653,4.9-3.674,2.633-1.1-1.163-1.408-3.429-1.653-4.959-.612-4.286.429-8.572,1.531-12.735.245-1.163-1.531-1.653-1.837-.551Z" transform="translate(-643.513 -989.992)" fill="#161616"/>
          </g>
        </g>
        <g id="Group_218" data-name="Group 218" transform="translate(48.106 210.375)">
          <g id="Group_217" data-name="Group 217">
            <path id="Path_121" data-name="Path 121" d="M665.02,965.805c3.612,1.469,7.347,3.061,10.164,5.878,1.286,1.286,2.878,3.245,3.245,5.082.918,5.082-2.878,1.837-4.286,1.225-3.857-1.714-11.51-.49-13.715,3.429-.551,1.041,1.041,1.959,1.592.918,1.163-2.143,4.347-2.694,6.551-3a10.573,10.573,0,0,1,4.163.061c1.469.428,2.388,1.714,3.8,2.143,2.021.612,3.551-.8,3.857-2.755.551-3.184-2.2-6.735-4.347-8.817-3-2.878-6.857-4.469-10.653-6-.98-.367-1.408,1.408-.367,1.837Z" transform="translate(-660.313 -963.919)" fill="#161616"/>
          </g>
        </g>
        <path id="Path_122" data-name="Path 122" d="M636.282,656.8c-7.041.429-11.266,18.429-13.592,28.409-2.633,11.2-5.021,26.633-4.531,49.1a285.1,285.1,0,0,0,19.715,97.9c1.959,5.51,3.857,11.021,5.817,16.47-1.1,4.531-2.2,9.184-3.245,14.021-1.347,6.367-2.572,12.612-3.551,18.613a4.655,4.655,0,0,0,3.857-1.041c1.408-1.408,1.225-3.674,1.286-5.633.061-1.837.245-10.714,4.225-14.021,2.449-2.021,6.367-2.021,9.061-1.041,2.755,1.041,3.98,3.061,5.817,2.449a4.38,4.38,0,0,0,2.572-3.49c.612-4.469-7.959-9.061-9.368-9.8-2.755-1.469-4.041-1.653-5.816-3.49a13.865,13.865,0,0,1-3.245-6.306c-5.082-19.347-7.592-18.123-11.021-40.348-2.572-16.776-.918-15.8-3.551-29.144-1.837-9.429-3.367-13.286-3.857-21.429a88.283,88.283,0,0,1,1.592-22.1c4.592-25.286,13.409-55.9,15.551-63.185C642.037,659.673,639.344,656.611,636.282,656.8Z" transform="translate(-595.838 -634.457)" fill="#3f3f3f" opacity="0.13"/>
      </g>
      <g id="hand_left" transform="translate(102.144)">
        <path id="Path_123" data-name="Path 123" d="M803.645,227.165c-1.9-.061-3.367,3.367-3.735,4.286a13.905,13.905,0,0,0-.8,7.715s.367,2.571,1.592,18.123a65.455,65.455,0,0,1-.551,14.939c-2.449,6.735-4.776,12-6.368,15.429-5.388,11.51-9,16.1-16.531,30.674-2.816,5.449-3.061,6.306-6.367,13.041-8.265,16.715-14.327,27.184-20.511,38.389-5.449,9.8-13.1,24.184-22.1,42.675-.429,1.592-2.572,10.1,2.388,17.572,5.265,7.9,16.286,11.449,26.939,8.021a64.6,64.6,0,0,0,6.122-10.653,73.191,73.191,0,0,0,3.735-10.408c.673-2.265,3.367-9.919,8.816-25.348,1.714-4.776,3.8-10.47,8.021-21.613,6.429-17.082,9.612-25.592,11.755-30.919,4.837-12.123,8.51-20.511,15.735-36.8,3.8-8.572,8.449-18.919,13.837-30.674a75.087,75.087,0,0,0,12-8.51c6.612-5.694,9.919-10.531,16.286-19.715,4.1-6,7.225-11.266,6.367-16.531-.122-.735-.429-2.878-1.592-3.184-1.47-.429-3.306,2.51-5.327,5.082a54.737,54.737,0,0,1-9.857,9.612,101.81,101.81,0,0,1,4.286-10.1c2.51-5.143,4.592-8.449,5.878-14.143,1.408-6.061.123-7.163-.245-7.47-1.653-1.225-4.469,1.1-6.123-.245-1.469-1.286-.184-4.1-1.347-4.776s-3.735,1.347-5.572,3.49c-3.184,3.674-3.919,7.225-5.082,10.653a45.478,45.478,0,0,1-6.919,13.041c-.918.122-2.143.184-2.694-.551-.612-.857.245-2.265,1.041-4.531.184-.551.061-.245,1.347-5.878.49-2.143,1.408-6.123,2.143-9.306,1.041-4.592,1.531-6.49.551-8.51-.184-.429-.98-2.082-2.143-2.143-1.347-.061-2.388,2.082-3.184,3.735-3.245,6.674-4.9,10.041-5.327,11.2-2.143,5.816-5.021,14.694-5.449,17.756a14.95,14.95,0,0,1-.8,3.306c-.306.8-.49,1.1-.673,1.592-1.531,3.429-.245,5.694-1.837,6.919-.184.122-1.1.8-1.837.551-.8-.245-1.163-1.286-1.592-4.776-.612-4.776-.245-6.184-1.347-8.266C805.849,229,804.931,227.226,803.645,227.165Z" transform="translate(-726.815 -197.291)" fill="#fff"/>
        <g id="Group_220" data-name="Group 220" transform="translate(71.504 28.551)">
          <g id="Group_219" data-name="Group 219">
            <path id="Path_124" data-name="Path 124" d="M845.588,273.209c.429-4.47-.245-8.817-.49-13.286a32.873,32.873,0,0,1,.184-6.49,23.732,23.732,0,0,1,.8-3.612c.612-1.776.673-3.245,2.633-3.306,1.837-.061,1.714,1.041,2.02,2.571a23.323,23.323,0,0,1,.429,4.1,35.2,35.2,0,0,0,.612,5.694c.429,1.9,1.592,3.49,3.735,2.816,1.1-.367.673-2.143-.49-1.776-2.143.612-1.959-6.612-2.082-7.837a20.808,20.808,0,0,0-1.1-5.816c-1.041-2.572-3.429-3.857-5.449-1.469-2.633,3.061-3.184,8.572-3.184,12.368,0,5.388,1.041,10.653.551,16.041-.061,1.163,1.776,1.163,1.837,0Z" transform="translate(-843.2 -243.538)" fill="#161616"/>
          </g>
        </g>
        <g id="Group_222" data-name="Group 222" transform="translate(82.839)">
          <g id="Group_221" data-name="Group 221">
            <path id="Path_125" data-name="Path 125" d="M863.42,242.883c3.061-5.939,3.98-12.674,5.755-19.041a83.334,83.334,0,0,1,7.837-19.715c.8-1.347,1.592-3.245,2.755-4.286,2.265-2.082,2.265,1.9,2.082,3.612a91.174,91.174,0,0,1-2.2,11.388c-.8,3.429-1.9,6.735-2.694,10.164-.429,1.9-.429,3.551.918,5.021.8.857,2.082-.429,1.286-1.286-1.531-1.653.061-4.959.551-6.735.551-2.02,1.1-4.041,1.531-6.061.857-3.735,1.714-7.531,2.265-11.388.306-2.02.735-5.572-1.041-7.1-1.531-1.286-3.061-.061-4.1,1.163-4.47,5.572-7.225,12.919-9.429,19.654-2.51,7.776-3.306,16.47-7.1,23.756a.9.9,0,0,0,1.592.857Z" transform="translate(-861.714 -196.906)" fill="#161616"/>
          </g>
        </g>
        <g id="Group_224" data-name="Group 224" transform="translate(98.558 2.934)">
          <g id="Group_223" data-name="Group 223">
            <path id="Path_126" data-name="Path 126" d="M888.252,232.067c1.837.184,2.51-1.163,3.367-2.633,1.347-2.327,2.571-4.776,3.735-7.163,2.265-4.653,3.857-9.735,6.612-14.082a10.725,10.725,0,0,1,2.327-2.939,2.758,2.758,0,0,1,3.184-.8,12.287,12.287,0,0,1,.306,2.571,24.579,24.579,0,0,1-1.959,8.817c-2.082,5.572-4.408,11.082-6.674,16.654-.429,1.1,1.347,1.592,1.776.49,1.286-3.184,14.51-31.1,5.878-31.287-1.714-.061-3.674,2.082-4.653,3.245a28.934,28.934,0,0,0-4.041,6.735c-1.286,2.878-2.449,5.755-3.8,8.572-.8,1.714-1.714,3.49-2.571,5.143-.551,1.1-1.9,4.9-3.429,4.776-1.224-.061-1.224,1.776-.061,1.9Z" transform="translate(-887.387 -201.698)" fill="#161616"/>
          </g>
        </g>
        <g id="Group_226" data-name="Group 226" transform="translate(114.531 7.148)">
          <g id="Group_225" data-name="Group 225">
            <path id="Path_127" data-name="Path 127" d="M920.042,212.2c.674-3.551,4.531-1.1,5.021,1.163.429,1.9-.306,3.8-.918,5.572-.918,2.694-1.959,5.327-3.061,7.9a120.29,120.29,0,0,1-7.47,14.511.919.919,0,0,0,1.592.918,128.044,128.044,0,0,0,7.041-13.47c1.776-3.98,3.919-8.388,4.592-12.735.429-2.755-.367-6.306-3.429-7.286a3.98,3.98,0,0,0-5.143,3c-.184,1.1,1.592,1.592,1.776.429Z" transform="translate(-913.475 -208.581)" fill="#161616"/>
          </g>
        </g>
        <g id="Group_228" data-name="Group 228" transform="translate(97.508 25.959)">
          <g id="Group_227" data-name="Group 227">
            <path id="Path_128" data-name="Path 128" d="M905.71,254.915c2.327-2.633,4.592-5.265,6.919-7.9a48.175,48.175,0,0,1,3.673-4.163c.429-.367.857-.674,1.225-1.041,1.041.367,2.082.735,3.184,1.1.306.551-.429,2.143-.612,2.633a74.136,74.136,0,0,1-7.9,16.47,78.808,78.808,0,0,1-26.082,25.348c-1.041.612-.061,2.2.918,1.592a80.481,80.481,0,0,0,30.674-33A63.552,63.552,0,0,0,922,245.608c.612-2.082.98-4.9-1.408-6-2.327-1.1-4.776,1.041-6.245,2.572-3.49,3.612-6.674,7.653-9.98,11.449-.735.857.551,2.143,1.347,1.286Z" transform="translate(-885.672 -239.305)" fill="#161616"/>
          </g>
        </g>
        <g id="Group_230" data-name="Group 230" transform="translate(0 55.452)">
          <g id="Group_229" data-name="Group 229">
            <path id="Path_129" data-name="Path 129" d="M798.713,288.347c.429,5.633.857,11.388-.061,17.021-.918,5.572-3.245,10.715-5.816,15.735-5.2,10.164-10.653,20.2-15.98,30.307q-15.98,30.307-31.96,60.553c-6.123,11.572-12.245,23.2-18.368,34.776-.551,1.041,1.041,1.959,1.592.918,21.98-41.695,44.389-83.206,66-125.146,2.571-4.959,4.959-10.041,6-15.49,1.224-6.184.8-12.429.306-18.674a.857.857,0,1,0-1.714,0Z" transform="translate(-726.413 -287.475)" fill="#161616"/>
          </g>
        </g>
        <g id="Group_232" data-name="Group 232" transform="translate(31.859 73.132)">
          <g id="Group_231" data-name="Group 231">
            <path id="Path_130" data-name="Path 130" d="M844.421,316.81a1282.807,1282.807,0,0,0-51.736,126.983c-4.408,12.551-8.817,25.1-14.143,37.287-.49,1.1,1.1,2.02,1.592.918,9.123-20.756,15.8-42.491,23.633-63.675q12.031-32.695,25.96-64.716c5.265-12.062,10.653-24,16.286-35.879.49-1.041-1.1-1.959-1.592-.918Z" transform="translate(-778.449 -316.352)" fill="#161616"/>
          </g>
        </g>
        <path id="Path_131" data-name="Path 131" d="M863,213.294c-2.51-.367-5.878,9.919-7.837,15.062-5.939,15.8-10.959,17.633-23.694,39.062a287.254,287.254,0,0,0-17.756,35.266q-29.389,61.9-58.716,123.86c4.776,5.816,9.49,11.694,14.266,17.511,2.388-6.8,5.878-16.776,10.225-28.837,7.9-21.735,18.123-49.716,32.572-83.757,5.755-13.47,13.715-31.654,23.939-53.022a86.239,86.239,0,0,0,11.021-8.327c5.755-5.021,13.347-11.817,18.552-22.9a56.21,56.21,0,0,0,4.837-15.613,5.358,5.358,0,0,0-3.245-.551c-2.2.429-3.367,2.571-4.286,4.041-3.551,5.449-8.755,9.061-9.429,8.633-.367-.306.674-2.082,3.49-7.837,5.755-11.817,3.367-8.694,5.633-12.674,1.286-2.265,2.571-4.225,2.143-6.735C864.717,215.376,864.044,213.478,863,213.294Z" transform="translate(-737.498 -203.257)" fill="#3f3f3f" opacity="0.1"/>
        <path id="Path_132" data-name="Path 132" d="M863.068,281.5c-3.061,1.959-7.408,4.837-12.368,8.633-5.694,4.286-11.817,8.939-16.96,14.817a66.144,66.144,0,0,0-11.878,20.45C805.026,368.38,785,415.034,779.311,428.014c-3.122,7.1-8.021,17.817-14.511,30.674,2.939,3.857,5.939,7.714,8.878,11.572,8.449-25.776,18.184-52.777,29.327-80.757,12-30.062,24.429-58.165,36.919-84.308A80.6,80.6,0,0,0,863.068,281.5Z" transform="translate(-741.297 -229.707)" fill="#3f3f3f" opacity="0.13"/>
      </g>
      <g id="torso" transform="translate(32.18 207.578)">
        <path id="Path_133" data-name="Path 133" d="M641.564,557.623a68.374,68.374,0,0,0-12.551,10.837,78.236,78.236,0,0,0-11.082,16.225c-2.02,3.612-3.49,6.8-4.531,9.123,1.592,3.061,4.163,7.776,7.714,13.408,6.306,9.98,11.2,15.368,19.654,26.2,3.551,4.531,8.694,11.327,14.817,19.9q1.469,6.888,2.572,14.51a205.935,205.935,0,0,1,2.02,28.776,35.867,35.867,0,0,0,11.939,8.51c9.551,4.224,18.245,3,22.776,2.265,10.041-1.531,16.9-6,21.613-9.123A66.87,66.87,0,0,0,734.75,680.32c-.8-9.551-1.837-19.409-3.123-29.633q-1.653-13.042-3.674-25.348a139.673,139.673,0,0,0-2.816-25.348c-1.714-8.511-3.8-18.429-9.98-30.184A93.272,93.272,0,0,0,694.1,543.051a96.082,96.082,0,0,0-8.51-6.551,136.75,136.75,0,0,1-21.919,11.388C653.87,551.929,649.278,552.541,641.564,557.623Z" transform="translate(-612.63 -536.159)" fill="#fff"/>
        <g id="Group_234" data-name="Group 234" transform="translate(0 20.138)">
          <g id="Group_233" data-name="Group 233">
            <path id="Path_134" data-name="Path 134" d="M613.892,606.59c1.9-7.225,7.164-13.959,11.694-19.837a76.948,76.948,0,0,1,16.592-16.164c.98-.674.061-2.265-.918-1.592a78.433,78.433,0,0,0-17.082,16.592c-4.714,6.061-10.041,12.919-12,20.449-.306,1.225,1.469,1.653,1.714.551Z" transform="translate(-612.142 -568.834)" fill="#161616"/>
          </g>
        </g>
        <g id="Group_236" data-name="Group 236" transform="translate(0.265 57.13)">
          <g id="Group_235" data-name="Group 235">
            <path id="Path_135" data-name="Path 135" d="M612.713,630.628a361.145,361.145,0,0,0,44.511,61.655c.8.857,2.082-.429,1.286-1.286A359.946,359.946,0,0,1,614.3,629.71a.919.919,0,0,0-1.592.918Z" transform="translate(-612.575 -629.252)" fill="#161616"/>
          </g>
        </g>
        <g id="Group_238" data-name="Group 238" transform="translate(50.863)">
          <g id="Group_237" data-name="Group 237">
            <path id="Path_136" data-name="Path 136" d="M696.553,548.529a75.009,75.009,0,0,1,22.409-10.776.921.921,0,0,0-.49-1.776,77.1,77.1,0,0,0-22.837,10.959c-.98.673-.061,2.265.918,1.592Z" transform="translate(-695.216 -535.942)" fill="#161616"/>
          </g>
        </g>
        <g id="Group_240" data-name="Group 240" transform="translate(72.698 0.546)">
          <g id="Group_239" data-name="Group 239">
            <path id="Path_137" data-name="Path 137" d="M731.259,538.589c29.266,20.388,41.817,56.144,40.409,90.737-.061,1.163,1.776,1.163,1.837,0C774.975,594,761.995,557.753,732.178,537c-.918-.674-1.837.918-.918,1.592Z" transform="translate(-730.879 -536.834)" fill="#161616"/>
          </g>
        </g>
        <g id="Group_242" data-name="Group 242" transform="translate(40.839 115.113)">
          <g id="Group_241" data-name="Group 241">
            <path id="Path_138" data-name="Path 138" d="M678.94,725.391c3.184,6.551,3.551,14.694,4.225,21.8a215.536,215.536,0,0,1,.98,21.8.92.92,0,0,0,1.837,0,199.357,199.357,0,0,0-1.224-24.184c-.735-6.8-1.225-14.143-4.225-20.388-.551-1.041-2.082-.122-1.592.98Z" transform="translate(-678.844 -723.955)" fill="#161616"/>
          </g>
        </g>
        <g id="Group_244" data-name="Group 244" transform="translate(47.082 142.602)">
          <g id="Group_243" data-name="Group 243">
            <path id="Path_139" data-name="Path 139" d="M689.261,786.759c9.184,11.266,24.858,14.449,38.511,10.96a61.479,61.479,0,0,0,20.939-10.347c6.306-4.653,12.306-10.041,15.858-17.143.551-1.041-1.041-1.959-1.592-.918-3.429,6.8-9.184,12-15.245,16.47A61.331,61.331,0,0,1,728.2,795.7c-13.347,3.735-28.715.857-37.715-10.225-.673-.918-1.959.367-1.224,1.286Z" transform="translate(-689.041 -768.852)" fill="#161616"/>
          </g>
        </g>
        <g id="Group_246" data-name="Group 246" transform="translate(114.147 89.128)">
          <g id="Group_245" data-name="Group 245">
            <path id="Path_140" data-name="Path 140" d="M798.592,682.669c3,17.939,5.939,35.878,6.98,54,.061,1.163,1.9,1.163,1.837,0-1.1-18.307-4.041-36.43-7.041-54.491-.184-1.163-1.959-.673-1.776.49Z" transform="translate(-798.578 -681.514)" fill="#161616"/>
          </g>
        </g>
        <path id="Path_141" data-name="Path 141" d="M701.2,546.529a163.909,163.909,0,0,1,23.878,37.409c11.388,24.735,13.653,46.1,15.368,64.287a263.377,263.377,0,0,1-.612,56.144,64.547,64.547,0,0,0,28.715-23.878c-2.02-17.082-4.041-34.225-6.061-51.307A115.548,115.548,0,0,0,758.569,596a113.919,113.919,0,0,0-22.96-44.083A109.962,109.962,0,0,0,720.241,537.1C713.874,540.284,707.568,543.406,701.2,546.529Z" transform="translate(-646.673 -536.391)" fill="#3f3f3f" opacity="0.13"/>
        <path id="Path_142" data-name="Path 142" d="M775.534,587.5c-1.1.306,1.469,10.286,3.918,25.042a398.31,398.31,0,0,1,4.531,44.083,218.857,218.857,0,0,1-6.612,61.287,57.813,57.813,0,0,0,10.286-6.612,55.065,55.065,0,0,0,9.98-10.592c-.8-24.674-2.878-37.47-4.837-44.7a94.219,94.219,0,0,1-2.143-9.367c-1.47-8.694-.735-12.429-1.531-19.654-.612-5.755-1.776-9.551-3.918-16.592C781.963,599.8,776.758,587.128,775.534,587.5Z" transform="translate(-675.394 -555.928)" fill="#3f3f3f" opacity="0.14"/>
      </g>
      <g id="head" transform="translate(0 113.938)">
        <path id="Path_143" data-name="Path 143" d="M619.925,397.388a57.2,57.2,0,0,0-28.9,40.164,7.383,7.383,0,0,0-5.449,1.286c-3,2.327-3.061,6.919-1.9,9.612a15.187,15.187,0,0,0,2.327,3.368c1.531,1.9,2.51,3.061,4.1,3.735a7.1,7.1,0,0,0,4.408.245,59.718,59.718,0,0,0,3.429,8.082c2.143,4.163,5.388,10.347,11.878,15.735a41.849,41.849,0,0,0,8.817,5.572,20.518,20.518,0,0,1,4.469,11.266c.612,9.49-6.306,17.388-12.857,20.878-11.388,6.061-23.756,0-28.286-2.265-2.449-1.224-14.755-7.592-19.9-21.552-6.245-16.837,1.9-33.674,6.735-43.715,4.9-10.1,7.163-9.429,10.9-19.286,4.959-13.041,2.327-17.633,8.021-27.613,2.2-3.918,6.674-11.755,16.041-15.429a29.392,29.392,0,0,1,18.613-.612A25.635,25.635,0,0,1,635.537,383c13.959,0,22.9,13.225,25.042,16.409,6.367,9.368,3,12.245,8.694,25.409,7.163,16.592,14.143,15.613,20.572,31.164,3.122,7.592,8.327,20.143,2.572,32.144-5.939,12.368-19.47,15.98-21.184,16.409-3.122.8-11.51,2.878-19.9-1.592-.8-.429-11.327-6.184-12.184-16.041a20.767,20.767,0,0,1,.98-7.714,22.66,22.66,0,0,1,4.163-7.408c2.633-3.245,5.816-9.245,8.021-21.184a10.27,10.27,0,0,0,4.47-1.286,11,11,0,0,0,5.143-9.98c-.061-.857-.306-5.755-3.857-7.408a6.241,6.241,0,0,0-3.857-.306C642.823,420.1,631.374,408.776,619.925,397.388Z" transform="translate(-559.667 -383)" fill="#ff6464"/>
        <path id="Path_144" data-name="Path 144" d="M635.095,406.4a63.145,63.145,0,0,0-14.51,11.633,59.816,59.816,0,0,0-13.837,24.8,34.473,34.473,0,0,0-.857,3.98,5.1,5.1,0,0,0-3.735,0c-2.326,1.041-2.816,3.857-3.061,5.265a10.646,10.646,0,0,0,1.1,6.8,9.013,9.013,0,0,0,4.409,4.837,7.936,7.936,0,0,0,5.021.429,73.112,73.112,0,0,0,3.98,8.755c2.878,5.51,5.572,10.592,10.776,15.123a34.581,34.581,0,0,0,10.1,6.123,22.628,22.628,0,0,1,3.061,7.041,21.8,21.8,0,0,1,.673,6.123,18.163,18.163,0,0,0,8.327,1.959,19.323,19.323,0,0,0,12.98-5.694,55.3,55.3,0,0,1-2.633-12.735c-.184-2.265-.245-4.408-.245-6.368a35.941,35.941,0,0,0,6.123-8.755,37.8,37.8,0,0,0,3.98-16.47,8.5,8.5,0,0,0,4.408-.428,8.919,8.919,0,0,0,4.408-4.592c.184-.306,2.755-5.572.429-10.776-.551-1.163-1.469-3.306-3.306-3.49a3.885,3.885,0,0,0-2.878,1.347c-2.51-3-7.225-8.572-13.837-16.225-5.694-6.674-9.306-10.837-15.368-15.123C638.4,408.359,636.442,407.2,635.095,406.4Z" transform="translate(-574.838 -392.073)" fill="#fff"/>
        <path id="Path_145" data-name="Path 145" d="M644.147,508.077c-.612,1.408,2.265,3.918,3.612,4.959a13.014,13.014,0,0,0,6.919,2.449,13.872,13.872,0,0,0,9.368-2.327,11.084,11.084,0,0,0,4.47-5.755c.674-2.388.49-5.694-.8-6.245-.98-.367-1.9.857-3.98,2.327-3.674,2.51-7.47,3.123-10.714,3.612C647.514,507.954,644.759,506.852,644.147,508.077Z" transform="translate(-592.338 -428.789)"/>
        <g id="Group_248" data-name="Group 248" transform="translate(32.364 62.007)">
          <g id="Group_247" data-name="Group 247">
            <path id="Path_146" data-name="Path 146" d="M612.478,487.413c2.2,9.184,5.755,18.184,11.633,25.654,5.2,6.674,12.919,13.1,21.919,12.245,8.327-.8,15.123-7.286,19.531-13.9a44.851,44.851,0,0,0,7.469-26.266c-.061-1.163-1.9-1.163-1.837,0a43.23,43.23,0,0,1-6.429,24.062c-4.225,6.8-11.2,13.96-19.715,14.327-9,.367-16.409-6.98-21.184-13.837s-7.714-14.755-9.674-22.837c-.245-1.1-2.021-.612-1.714.551Z" transform="translate(-612.442 -484.275)" fill="#161616"/>
          </g>
        </g>
        <g id="Group_250" data-name="Group 250" transform="translate(58.283 100.81)">
          <g id="Group_249" data-name="Group 249">
            <path id="Path_147" data-name="Path 147" d="M654.913,549.029a23.015,23.015,0,0,1,3.857,12.919.92.92,0,0,0,1.837,0,25.242,25.242,0,0,0-4.1-13.837.919.919,0,0,0-1.592.918Z" transform="translate(-654.775 -547.652)" fill="#161616"/>
          </g>
        </g>
        <g id="Group_252" data-name="Group 252" transform="translate(62.677 109.888)">
          <g id="Group_251" data-name="Group 251">
            <path id="Path_148" data-name="Path 148" d="M662.41,568.431a17.218,17.218,0,0,0,22.225-4.653c.735-.918-.857-1.837-1.592-.918a15.3,15.3,0,0,1-19.715,3.98c-1.041-.551-1.959,1.041-.918,1.592Z" transform="translate(-661.952 -562.479)" fill="#161616"/>
          </g>
        </g>
        <g id="Group_254" data-name="Group 254" transform="translate(80.768 93.064)">
          <g id="Group_253" data-name="Group 253">
            <path id="Path_149" data-name="Path 149" d="M691.5,535.918a53.559,53.559,0,0,0,2.694,16.409c.367,1.1,2.143.612,1.776-.49a54.186,54.186,0,0,1-2.633-15.919.918.918,0,0,0-1.837,0Z" transform="translate(-691.5 -535)" fill="#161616"/>
          </g>
        </g>
        <g id="Group_256" data-name="Group 256" transform="translate(23.161 53.771)">
          <g id="Group_255" data-name="Group 255">
            <path id="Path_150" data-name="Path 150" d="M608.486,488.014c-.8.857-2.755.551-3.674.061a7.826,7.826,0,0,1-1.959-1.469,11.714,11.714,0,0,1-2.816-4.1c-1.225-2.878-1.776-11.143,3.674-9.674a.921.921,0,0,0,.49-1.776c-6.735-1.776-7.776,7.163-6.061,11.633,1.347,3.612,7.531,11.082,11.694,6.612.735-.857-.551-2.143-1.347-1.286Z" transform="translate(-597.411 -470.824)" fill="#161616"/>
          </g>
        </g>
        <g id="Group_258" data-name="Group 258" transform="translate(91.185 47.181)">
          <g id="Group_257" data-name="Group 257">
            <path id="Path_151" data-name="Path 151" d="M713.1,462.411c.735-2.449,3.919,2.265,4.286,3.122a12.5,12.5,0,0,1,.674,6.184c-.49,4.163-3.8,8.143-8.388,6.98a.921.921,0,0,0-.49,1.776c7.408,1.9,11.388-5.817,10.715-12.123-.306-2.755-1.408-6.306-4.041-7.776-1.714-.918-3.918-.673-4.531,1.286a.93.93,0,0,0,1.776.551Z" transform="translate(-708.514 -460.061)" fill="#161616"/>
          </g>
        </g>
        <g id="Group_260" data-name="Group 260" transform="translate(39.081 27.783)">
          <g id="Group_259" data-name="Group 259">
            <path id="Path_152" data-name="Path 152" d="M625.12,437.147a13.03,13.03,0,0,1,9.857-6.98c1.163-.184.673-1.959-.49-1.776a14.73,14.73,0,0,0-10.96,7.837c-.551,1.041,1.041,1.959,1.592.918Z" transform="translate(-623.413 -428.378)" fill="#161616"/>
          </g>
        </g>
        <g id="Group_262" data-name="Group 262" transform="translate(67.919 24.988)">
          <g id="Group_261" data-name="Group 261">
            <path id="Path_153" data-name="Path 153" d="M671.669,425.948a11.2,11.2,0,0,1,12.612,6c.551,1.041,2.082.122,1.592-.918a13.011,13.011,0,0,0-14.694-6.857.921.921,0,0,0,.49,1.776Z" transform="translate(-670.514 -423.812)" fill="#161616"/>
          </g>
        </g>
        <g id="Group_264" data-name="Group 264" transform="translate(55.713 33.512)">
          <g id="Group_263" data-name="Group 263">
            <path id="Path_154" data-name="Path 154" d="M650.592,438.877a71.3,71.3,0,0,1,.8,19.776c-.245,2.021-1.225,4.9-.306,6.919.98,2.2,3.612,4.1,5.266,5.816.8.857,2.143-.429,1.286-1.286-1.1-1.163-2.2-2.265-3.306-3.429-1.714-1.776-1.9-2.327-1.531-4.9.306-2.327.612-4.714.735-7.1a71.932,71.932,0,0,0-1.163-16.225c-.184-1.224-1.959-.735-1.776.429Z" transform="translate(-650.578 -437.735)" fill="#161616"/>
          </g>
        </g>
        <g id="Group_266" data-name="Group 266" transform="translate(45.058 41.474)">
          <g id="Group_265" data-name="Group 265">
            <path id="Path_155" data-name="Path 155" d="M636.129,459.654a7.777,7.777,0,0,1-1.224-4.776c0-.367.245-1.959.551-2.02a11.469,11.469,0,0,1,.551,2.388,16.466,16.466,0,0,1,.184,2.449c0,.245-.061,2.265-.061,1.041-.061-1.776.061-3.551.122-5.327-.612.061-1.224.184-1.776.245a35.9,35.9,0,0,1,.49,5.755H636.8v-.735a.92.92,0,0,0-1.837,0v.735a.92.92,0,0,0,1.837,0,35.876,35.876,0,0,0-.551-6.245c-.184-1.041-1.776-.735-1.776.245a40.074,40.074,0,0,0-.061,6.061,2.027,2.027,0,0,0,1.592,1.959c3.061.612,2.143-5.388,1.9-6.857-.184-1.163-.367-2.939-1.469-3.612a1.818,1.818,0,0,0-2.449.857c-1.531,2.572-.673,6.368.735,8.694.429,1.041,2.021.122,1.408-.857Z" transform="translate(-633.175 -450.739)" fill="#161616"/>
          </g>
        </g>
        <g id="Group_268" data-name="Group 268" transform="translate(73.344 38.229)">
          <g id="Group_267" data-name="Group 267">
            <path id="Path_156" data-name="Path 156" d="M682.329,454.354a7.78,7.78,0,0,1-1.225-4.776c0-.367.245-1.959.551-2.02a11.449,11.449,0,0,1,.551,2.388,16.473,16.473,0,0,1,.184,2.449c0,.245-.061,2.265-.061,1.041-.061-1.776.061-3.551.122-5.327-.612.061-1.225.184-1.776.245a35.9,35.9,0,0,1,.49,5.755H683v-.735a.92.92,0,0,0-1.837,0v.735a.92.92,0,0,0,1.837,0,35.863,35.863,0,0,0-.551-6.245c-.184-1.041-1.776-.735-1.776.245a40.066,40.066,0,0,0-.061,6.061,2.027,2.027,0,0,0,1.592,1.959c3.061.612,2.143-5.388,1.9-6.857-.184-1.163-.367-2.939-1.469-3.612a1.818,1.818,0,0,0-2.449.857c-1.531,2.571-.673,6.368.735,8.694.429,1.1,2.021.184,1.408-.857Z" transform="translate(-679.375 -445.439)" fill="#161616"/>
          </g>
        </g>
        <g id="Group_270" data-name="Group 270" transform="translate(38.078 54.185)">
          <g id="Group_269" data-name="Group 269">
            <path id="Path_157" data-name="Path 157" d="M622.647,473.337a.92.92,0,0,0,0-1.837.92.92,0,0,0,0,1.837Z" transform="translate(-621.775 -471.5)" fill="#161616"/>
          </g>
        </g>
        <g id="Group_272" data-name="Group 272" transform="translate(45.257 55.532)">
          <g id="Group_271" data-name="Group 271">
            <path id="Path_158" data-name="Path 158" d="M634.418,475.537h.245a.918.918,0,0,0,0-1.837h-.245a.942.942,0,0,0-.918.918.9.9,0,0,0,.918.918Z" transform="translate(-633.5 -473.7)" fill="#161616"/>
          </g>
        </g>
        <g id="Group_274" data-name="Group 274" transform="translate(40.994 61.165)">
          <g id="Group_273" data-name="Group 273">
            <path id="Path_159" data-name="Path 159" d="M627.433,484.737a.92.92,0,0,0,0-1.837.92.92,0,0,0,0,1.837Z" transform="translate(-626.537 -482.9)" fill="#161616"/>
          </g>
        </g>
        <g id="Group_276" data-name="Group 276" transform="translate(75.747 53.267)">
          <g id="Group_275" data-name="Group 275">
            <path id="Path_160" data-name="Path 160" d="M684.218,471.837h.245a.918.918,0,1,0,0-1.837h-.245a.942.942,0,0,0-.918.918.9.9,0,0,0,.918.918Z" transform="translate(-683.3 -470)" fill="#161616"/>
          </g>
        </g>
        <g id="Group_278" data-name="Group 278" transform="translate(82.528 48.736)">
          <g id="Group_277" data-name="Group 277">
            <path id="Path_161" data-name="Path 161" d="M695.248,464.437a.92.92,0,0,0,0-1.837.92.92,0,0,0,0,1.837Z" transform="translate(-694.375 -462.6)" fill="#161616"/>
          </g>
        </g>
        <g id="Group_280" data-name="Group 280" transform="translate(81.564 53.695)">
          <g id="Group_279" data-name="Group 279">
            <path id="Path_162" data-name="Path 162" d="M693.718,472.537h.245a.918.918,0,1,0,0-1.837h-.245a.942.942,0,0,0-.918.918.987.987,0,0,0,.918.918Z" transform="translate(-692.8 -470.7)" fill="#161616"/>
          </g>
        </g>
        <g id="Group_282" data-name="Group 282" transform="translate(49.404 68.177)">
          <g id="Group_281" data-name="Group 281">
            <path id="Path_163" data-name="Path 163" d="M644.208,506.871c-.98-1.408-2.572-3.429-1.9-5.265.8-2.082,3.306-1.776,4.959-1.531,2.02.306,3.674.673,5.633.061a25.851,25.851,0,0,0,4.469-2.327c3.49-1.959,7.592-2.143,8.694,2.449,3.122,12.551-19.041,16.1-22.47,5.082-.367-1.1-2.143-.674-1.776.49,4.225,13.531,30.429,8.511,25.838-6.49a6.693,6.693,0,0,0-5.388-4.959c-4.408-.429-7.286,3.98-11.511,4.286-3.122.245-6.919-2.143-9.429.8-2.265,2.633-.428,6,1.225,8.327.735.98,2.326.061,1.653-.918Z" transform="translate(-640.274 -494.352)" fill="#161616"/>
          </g>
        </g>
        <g id="Group_284" data-name="Group 284" transform="translate(49.721 70.901)">
          <g id="Group_283" data-name="Group 283">
            <path id="Path_164" data-name="Path 164" d="M640.858,505.107c1.347,3.735,8.082,2.572,11.021,2.143A30.893,30.893,0,0,0,667,500.331c.918-.735-.367-2.082-1.286-1.286a28.344,28.344,0,0,1-10.9,5.755c-1.776.49-11.143,2.572-12.123-.122-.49-1.163-2.265-.673-1.837.429Z" transform="translate(-640.792 -498.802)" fill="#161616"/>
          </g>
        </g>
        <g id="Group_286" data-name="Group 286" transform="translate(60.021 94.114)">
          <g id="Group_285" data-name="Group 285">
            <path id="Path_165" data-name="Path 165" d="M658.279,546.686c7.164,1.837,16.715-2.694,20.756-8.633.673-.98-.918-1.9-1.592-.918-3.551,5.2-12.429,9.367-18.674,7.776a.921.921,0,0,0-.49,1.776Z" transform="translate(-657.614 -536.716)" fill="#161616"/>
          </g>
        </g>
        <g id="Group_288" data-name="Group 288" transform="translate(60.901 95.545)">
          <g id="Group_287" data-name="Group 287">
            <path id="Path_166" data-name="Path 166" d="M659.51,548.143c6.368,3.98,16.837-1.653,19.9-7.714.551-1.041-1.041-1.959-1.592-.918-2.571,5.143-11.939,10.47-17.388,7.1a.893.893,0,1,0-.918,1.531Z" transform="translate(-659.052 -539.052)" fill="#161616"/>
          </g>
        </g>
        <path id="Path_167" data-name="Path 167" d="M685.48,447.9a98.28,98.28,0,0,1,1.347,9.919c.857,11.266,2.327,30.123-9.061,42.675-2.449,2.694-7.653,7.47-17.266,10.163a51.546,51.546,0,0,0,10.837-1.531,38.844,38.844,0,0,0,5.51-1.776c.245,5.449.428,10.9.673,16.347,2.082-1.347,4.1-2.633,6.184-3.98a26.021,26.021,0,0,1-2.449-14.143c.551-4.286,2.143-7.776,3.735-11.266a50.847,50.847,0,0,1,4.041-7.225A8.236,8.236,0,0,0,690.317,491c3.735,5.572,15.429,6.123,22.776,1.347,6.8-4.408,10.1-13.347,8.388-22.531a27.759,27.759,0,0,1,3.551,3.551c.918,1.1,3.306,4.286,6.612,15.49a61.192,61.192,0,0,1,1.837,7.041,31.3,31.3,0,0,1-.245,12.368A28.645,28.645,0,0,1,722.522,524a32.43,32.43,0,0,1-12.123,5.633c-3.061.673-12.245,2.878-20.878-2.143-3.245-1.9-5.02-3.306-6-5.021a11.891,11.891,0,0,1-1.286-5.021c-.551-8.388-.8-12.613-.245-15.49,1.653-8.327,5.388-9.184,7.47-18.674a45.856,45.856,0,0,0,.98-8.143,7.958,7.958,0,0,0,8.633-4.347c2.2-3.49,3.184-9.735-.245-12.613a7.312,7.312,0,0,0-5.51-1.469C690.807,453.778,688.174,450.839,685.48,447.9Z" transform="translate(-598.712 -408.164)" fill="#3f3f3f" opacity="0.2"/>
        <path id="Path_168" data-name="Path 168" d="M653.9,480.3c3.122.918,6.306,1.9,9.429,2.816-.8.735-1.592,1.408-2.449,2.143-.8.673-1.531,1.225-2.327,1.837a12.932,12.932,0,0,1-3.49-3.98A10.188,10.188,0,0,1,653.9,480.3Z" transform="translate(-596.153 -420.727)" fill="#3f3f3f" opacity="0.13"/>
        <path id="Path_169" data-name="Path 169" d="M568.226,490.512c-6.674,23.572-1.714,42.613,8.266,46.777,7.837,3.245,21.98-1.347,24.613-9.368.367-1.041.735-2.878-.673-8.51a66.8,66.8,0,0,0-9.368-20.939,14.754,14.754,0,0,1-3.49-3.061,13.891,13.891,0,0,1-2.939-6.8c1.776,1.837,4.347,4.163,6,3.429a4.475,4.475,0,0,0,2.021-5.143,76.13,76.13,0,0,0,3,11.143c2.082,5.939,4.163,11.694,9,17.143a36.085,36.085,0,0,0,13.9,9.551,20.471,20.471,0,0,1,4.225,9.674,21.24,21.24,0,0,1-.551,8.327,23.762,23.762,0,0,1-6.551,10.9A25.886,25.886,0,0,1,601.1,560.31c-16.592,2.2-29.45-12.306-31.715-14.817a37.065,37.065,0,0,1-8.143-13.47c-3.429-10.531-.8-20.021,1.1-26.94A68.467,68.467,0,0,1,568.226,490.512Z" transform="translate(-559.582 -423.286)" fill="#3f3f3f" opacity="0.16"/>
      </g>
    </g>
  </g>
</svg>
