<?xml version="1.0" encoding="UTF-8" standalone="no"?><!-- Generator: Gravit.io --><svg xmlns="http://www.w3.org/2000/svg" xmlns:xlink="http://www.w3.org/1999/xlink" style="isolation:isolate" viewBox="0 0 100 100" width="100pt" height="100pt"><defs><clipPath id="_clipPath_SJ9hanWRxDmlE34d1qtf3wwVXE9T8j8y"><rect width="100" height="100"/></clipPath></defs><g clip-path="url(#_clipPath_SJ9hanWRxDmlE34d1qtf3wwVXE9T8j8y)"><ellipse vector-effect="non-scaling-stroke" cx="50.06675111468691" cy="50.973474945711565" rx="11.09020587540838" ry="10.985456146931206" fill="rgb(255,255,164)"/><ellipse vector-effect="non-scaling-stroke" cx="50.06675111468691" cy="50.18879950664503" rx="11.88236343793755" ry="11.770131585997724" fill="none" stroke-width="1" stroke="rgb(0,0,0)" stroke-linejoin="miter" stroke-linecap="round" stroke-miterlimit="3"/><g><path d=" M 19.299 37.502 C 12.251 29.945 12.971 15.59 13.296 15.604 C 13.622 15.617 27.666 15.841 34.714 23.399 C 41.761 30.956 41.769 40.323 38.835 42.99 C 35.9 45.658 26.346 45.06 19.299 37.502 Z " fill="rgb(133,131,247)"/><mask id="_mask_MgxLEPulwzvi5OJVduSTh7fhz0DCGLV9"><path d=" M 20.978 35.965 C 13.931 28.408 14.65 14.053 14.976 14.067 C 15.301 14.081 29.346 14.304 36.393 21.862 C 43.441 29.419 43.448 38.786 40.514 41.454 C 37.58 44.121 28.026 43.523 20.978 35.965 Z " fill="white" stroke="none"/></mask><path d=" M 20.978 35.965 C 13.931 28.408 14.65 14.053 14.976 14.067 C 15.301 14.081 29.346 14.304 36.393 21.862 C 43.441 29.419 43.448 38.786 40.514 41.454 C 37.58 44.121 28.026 43.523 20.978 35.965 Z " fill="none" mask="url(#_mask_MgxLEPulwzvi5OJVduSTh7fhz0DCGLV9)" vector-effect="non-scaling-stroke" stroke-width="2" stroke="rgb(25,25,25)" stroke-linejoin="miter" stroke-linecap="round" stroke-miterlimit="3"/><path d=" M 20.978 35.965 C 13.931 28.408 14.65 14.053 14.976 14.067 C 15.301 14.081 29.346 14.304 36.393 21.862 C 43.441 29.419 43.448 38.786 40.514 41.454 C 37.58 44.121 28.026 43.523 20.978 35.965 Z " fill="none"/></g><g><path d=" M 81.595 39.974 C 89.219 32.998 89.639 18.632 89.313 18.62 C 88.988 18.608 74.97 17.718 67.346 24.693 C 59.722 31.669 58.972 41.005 61.686 43.897 C 64.399 46.788 73.971 46.949 81.595 39.974 Z " fill="rgb(133,131,247)"/><mask id="_mask_cP70lqGAAv61CUJJZRa2BBqWOMWmIMBU"><path d=" M 80.042 38.309 C 87.667 31.333 88.086 16.967 87.761 16.955 C 87.435 16.943 73.417 16.053 65.793 23.028 C 58.169 30.004 57.42 39.341 60.133 42.232 C 62.847 45.123 72.418 45.284 80.042 38.309 Z " fill="white" stroke="none"/></mask><path d=" M 80.042 38.309 C 87.667 31.333 88.086 16.967 87.761 16.955 C 87.435 16.943 73.417 16.053 65.793 23.028 C 58.169 30.004 57.42 39.341 60.133 42.232 C 62.847 45.123 72.418 45.284 80.042 38.309 Z " fill="none" mask="url(#_mask_cP70lqGAAv61CUJJZRa2BBqWOMWmIMBU)" vector-effect="non-scaling-stroke" stroke-width="2" stroke="rgb(25,25,25)" stroke-linejoin="miter" stroke-linecap="round" stroke-miterlimit="3"/><path d=" M 80.042 38.309 C 87.667 31.333 88.086 16.967 87.761 16.955 C 87.435 16.943 73.417 16.053 65.793 23.028 C 58.169 30.004 57.42 39.341 60.133 42.232 C 62.847 45.123 72.418 45.284 80.042 38.309 Z " fill="none"/></g><g><path d=" M 18.405 60.026 C 10.781 67.002 10.361 81.368 10.687 81.38 C 11.012 81.392 25.03 82.282 32.654 75.307 C 40.278 68.331 41.028 58.995 38.314 56.103 C 35.601 53.212 26.029 53.051 18.405 60.026 Z " fill="rgb(133,131,247)"/><mask id="_mask_01NfCwRwmQgIrWzJMn7X4MIs5n7d5S2C"><path d=" M 19.958 61.691 C 12.333 68.667 11.914 83.033 12.239 83.045 C 12.565 83.057 26.583 83.947 34.207 76.972 C 41.831 69.996 42.58 60.659 39.867 57.768 C 37.153 54.877 27.582 54.716 19.958 61.691 Z " fill="white" stroke="none"/></mask><path d=" M 19.958 61.691 C 12.333 68.667 11.914 83.033 12.239 83.045 C 12.565 83.057 26.583 83.947 34.207 76.972 C 41.831 69.996 42.58 60.659 39.867 57.768 C 37.153 54.877 27.582 54.716 19.958 61.691 Z " fill="none" mask="url(#_mask_01NfCwRwmQgIrWzJMn7X4MIs5n7d5S2C)" vector-effect="non-scaling-stroke" stroke-width="2" stroke="rgb(25,25,25)" stroke-linejoin="miter" stroke-linecap="round" stroke-miterlimit="3"/><path d=" M 19.958 61.691 C 12.333 68.667 11.914 83.033 12.239 83.045 C 12.565 83.057 26.583 83.947 34.207 76.972 C 41.831 69.996 42.58 60.659 39.867 57.768 C 37.153 54.877 27.582 54.716 19.958 61.691 Z " fill="none"/></g><g><path d=" M 80.701 62.498 C 87.749 70.055 87.029 84.41 86.704 84.396 C 86.378 84.383 72.334 84.159 65.286 76.601 C 58.239 69.044 58.231 59.677 61.165 57.01 C 64.1 54.342 73.654 54.94 80.701 62.498 Z " fill="rgb(133,131,247)"/><mask id="_mask_jQXju1oRvdHeJenLORYwb4HXCBpXvoG7"><path d=" M 79.022 64.035 C 86.069 71.592 85.35 85.947 85.024 85.933 C 84.699 85.919 70.654 85.696 63.607 78.138 C 56.559 70.581 56.552 61.214 59.486 58.546 C 62.42 55.879 71.974 56.477 79.022 64.035 Z " fill="white" stroke="none"/></mask><path d=" M 79.022 64.035 C 86.069 71.592 85.35 85.947 85.024 85.933 C 84.699 85.919 70.654 85.696 63.607 78.138 C 56.559 70.581 56.552 61.214 59.486 58.546 C 62.42 55.879 71.974 56.477 79.022 64.035 Z " fill="none" mask="url(#_mask_jQXju1oRvdHeJenLORYwb4HXCBpXvoG7)" vector-effect="non-scaling-stroke" stroke-width="2" stroke="rgb(25,25,25)" stroke-linejoin="miter" stroke-linecap="round" stroke-miterlimit="3"/><path d=" M 79.022 64.035 C 86.069 71.592 85.35 85.947 85.024 85.933 C 84.699 85.919 70.654 85.696 63.607 78.138 C 56.559 70.581 56.552 61.214 59.486 58.546 C 62.42 55.879 71.974 56.477 79.022 64.035 Z " fill="none"/></g><g><g><path d=" M 37.447 19.585 C 37.939 9.311 48.774 -0.26 48.993 -0.021 C 49.211 0.218 58.907 10.274 58.415 20.548 C 57.922 30.822 51.187 37.404 47.208 37.208 C 43.229 37.013 36.954 29.858 37.447 19.585 Z " fill="rgb(181,221,253)"/><mask id="_mask_YlbSk6RZORIfriZJnT7ur68CsOL5lV8q"><path d=" M 39.731 19.69 C 40.224 9.416 51.059 -0.155 51.277 0.084 C 51.496 0.323 61.192 10.379 60.699 20.653 C 60.207 30.927 53.471 37.509 49.493 37.313 C 45.514 37.118 39.239 29.963 39.731 19.69 Z " fill="white" stroke="none"/></mask><path d=" M 39.731 19.69 C 40.224 9.416 51.059 -0.155 51.277 0.084 C 51.496 0.323 61.192 10.379 60.699 20.653 C 60.207 30.927 53.471 37.509 49.493 37.313 C 45.514 37.118 39.239 29.963 39.731 19.69 Z " fill="none" mask="url(#_mask_YlbSk6RZORIfriZJnT7ur68CsOL5lV8q)" vector-effect="non-scaling-stroke" stroke-width="2" stroke="rgb(25,25,25)" stroke-linejoin="miter" stroke-linecap="round" stroke-miterlimit="3"/><path d=" M 39.731 19.69 C 40.224 9.416 51.059 -0.155 51.277 0.084 C 51.496 0.323 61.192 10.379 60.699 20.653 C 60.207 30.927 53.471 37.509 49.493 37.313 C 45.514 37.118 39.239 29.963 39.731 19.69 Z " fill="none"/></g><g><path d=" M 79.389 65.231 C 89.76 65.707 100.393 55.916 100.173 55.679 C 99.954 55.441 90.756 44.935 80.385 44.459 C 70.015 43.982 62.77 50.009 62.593 53.952 C 62.417 57.895 69.019 64.754 79.389 65.231 Z " fill="rgb(181,221,253)"/><mask id="_mask_hi9viC2P1Vn1J7QV9adAZgSHSxUA3oXJ"><path d=" M 79.498 62.968 C 89.868 63.444 100.501 53.653 100.282 53.415 C 100.062 53.178 90.864 42.672 80.494 42.195 C 70.123 41.719 62.878 47.746 62.702 51.689 C 62.525 55.631 69.127 62.491 79.498 62.968 Z " fill="white" stroke="none"/></mask><path d=" M 79.498 62.968 C 89.868 63.444 100.501 53.653 100.282 53.415 C 100.062 53.178 90.864 42.672 80.494 42.195 C 70.123 41.719 62.878 47.746 62.702 51.689 C 62.525 55.631 69.127 62.491 79.498 62.968 Z " fill="none" mask="url(#_mask_hi9viC2P1Vn1J7QV9adAZgSHSxUA3oXJ)" vector-effect="non-scaling-stroke" stroke-width="2" stroke="rgb(25,25,25)" stroke-linejoin="miter" stroke-linecap="round" stroke-miterlimit="3"/><path d=" M 79.498 62.968 C 89.868 63.444 100.501 53.653 100.282 53.415 C 100.062 53.178 90.864 42.672 80.494 42.195 C 70.123 41.719 62.878 47.746 62.702 51.689 C 62.525 55.631 69.127 62.491 79.498 62.968 Z " fill="none"/></g><g><path d=" M 20.611 34.769 C 10.24 34.293 -0.393 44.084 -0.173 44.321 C 0.046 44.559 9.244 55.065 19.615 55.541 C 29.985 56.018 37.23 49.991 37.407 46.048 C 37.583 42.105 30.981 35.246 20.611 34.769 Z " fill="rgb(181,221,253)"/><mask id="_mask_fDBRwTVG3wzmpN6k1umKgqZGy5GjoHMW"><path d=" M 20.502 37.032 C 10.132 36.556 -0.501 46.347 -0.282 46.585 C -0.062 46.822 9.136 57.328 19.506 57.805 C 29.877 58.281 37.122 52.254 37.298 48.311 C 37.475 44.369 30.873 37.509 20.502 37.032 Z " fill="white" stroke="none"/></mask><path d=" M 20.502 37.032 C 10.132 36.556 -0.501 46.347 -0.282 46.585 C -0.062 46.822 9.136 57.328 19.506 57.805 C 29.877 58.281 37.122 52.254 37.298 48.311 C 37.475 44.369 30.873 37.509 20.502 37.032 Z " fill="none" mask="url(#_mask_fDBRwTVG3wzmpN6k1umKgqZGy5GjoHMW)" vector-effect="non-scaling-stroke" stroke-width="2" stroke="rgb(25,25,25)" stroke-linejoin="miter" stroke-linecap="round" stroke-miterlimit="3"/><path d=" M 20.502 37.032 C 10.132 36.556 -0.501 46.347 -0.282 46.585 C -0.062 46.822 9.136 57.328 19.506 57.805 C 29.877 58.281 37.122 52.254 37.298 48.311 C 37.475 44.369 30.873 37.509 20.502 37.032 Z " fill="none"/></g><g><path d=" M 62.553 80.415 C 62.061 90.689 51.226 100.26 51.007 100.021 C 50.789 99.782 41.093 89.726 41.585 79.452 C 42.078 69.178 48.813 62.596 52.792 62.792 C 56.771 62.987 63.046 70.142 62.553 80.415 Z " fill="rgb(181,221,253)"/><mask id="_mask_HgZezbETqVpCbKN2pXgbs7ttCeFBHZIG"><path d=" M 60.269 80.31 C 59.776 90.584 48.941 100.155 48.723 99.916 C 48.504 99.677 38.808 89.621 39.301 79.347 C 39.793 69.073 46.529 62.491 50.507 62.687 C 54.486 62.882 60.761 70.037 60.269 80.31 Z " fill="white" stroke="none"/></mask><path d=" M 60.269 80.31 C 59.776 90.584 48.941 100.155 48.723 99.916 C 48.504 99.677 38.808 89.621 39.301 79.347 C 39.793 69.073 46.529 62.491 50.507 62.687 C 54.486 62.882 60.761 70.037 60.269 80.31 Z " fill="none" mask="url(#_mask_HgZezbETqVpCbKN2pXgbs7ttCeFBHZIG)" vector-effect="non-scaling-stroke" stroke-width="2" stroke="rgb(25,25,25)" stroke-linejoin="miter" stroke-linecap="round" stroke-miterlimit="3"/><path d=" M 60.269 80.31 C 59.776 90.584 48.941 100.155 48.723 99.916 C 48.504 99.677 38.808 89.621 39.301 79.347 C 39.793 69.073 46.529 62.491 50.507 62.687 C 54.486 62.882 60.761 70.037 60.269 80.31 Z " fill="none"/></g></g></g></svg>